<svg id="Layer_1" data-name="Layer 1" xmlns="http://www.w3.org/2000/svg" width="100px" height="auto" viewBox="0 0 144 144"><defs><style>.cls-1{fill:#FFFFFF;}</style></defs><title>icons_VisualMedia</title><path class="cls-1" d="M72,24.09619a47.90381,47.90381,0,1,0,47.9043,47.9043A47.95915,47.95915,0,0,0,72,24.09619Zm0,89.80762a41.90381,41.90381,0,1,1,41.9043-41.90332A41.95111,41.95111,0,0,1,72,113.90381Z"/><path class="cls-1" d="M49.85156,58.89893V85.10107L72,95.05518l22.14941-9.95411V58.89893L72,48.94482ZM69,87.12891l-13.14844-5.9087V65.47656L69,71.38562Zm19.14941-5.9087L75,87.12891V71.38574l13.14941-5.90942ZM72,66.15576l-11.83008-5.3164L72,55.523l11.83105,5.31628Z"/></svg>