<svg id="Layer_1" data-name="Layer 1" xmlns="http://www.w3.org/2000/svg" width="100px" viewBox="0 0 144 144"><defs><style>.cls-1{fill:#FFFFFF;}</style></defs><title>icons_VisualMedia</title><path class="cls-1" d="M28.78613,67.12305H67.12695V28.78223H28.78613Zm6-32.34082H61.127V61.12305H34.78613Z"/><path class="cls-1" d="M76.87305,67.12305h38.34082V28.78223H76.87305Zm6-32.34082h26.34082V61.12305H82.87305Z"/><path class="cls-1" d="M28.78613,115.21777H67.12695V76.87695H28.78613Zm6-32.34082H61.127v26.34082H34.78613Z"/><path class="cls-1" d="M96.043,76.87695a19.17041,19.17041,0,1,0,19.1709,19.1709A19.19186,19.19186,0,0,0,96.043,76.87695Zm0,32.34082a13.17041,13.17041,0,1,1,13.1709-13.16992A13.18509,13.18509,0,0,1,96.043,109.21777Z"/></svg>