<svg id="Layer_1" data-name="Layer 1" xmlns="http://www.w3.org/2000/svg" width="100px" viewBox="0 0 144 144"><defs><style>.cls-1{fill:#FFFFFF;}</style></defs><title>icons_VisualMedia</title><path class="cls-1" d="M100.13086,63.19531V30.02051L72,17.37793,43.86914,30.02051v33.1748L72,75.83887Zm-6-3.88086L75,67.91248V45.19568l19.13086-8.59754ZM72,23.95605l17.81274,8.00477L72,39.96582l-17.81274-8.005ZM69,67.91248l-19.13086-8.598V36.59814L69,45.19568Z"/><polygon class="cls-1" points="89.611 110.755 79.257 106.102 79.257 112.679 83.774 114.709 75 118.679 75 83.259 69 83.259 69 118.679 60.226 114.709 64.743 112.679 64.743 106.102 54.389 110.755 23.438 42.023 17.967 44.486 50.594 116.937 72 126.622 93.406 116.937 126.033 44.486 120.563 42.023 89.611 110.755"/></svg>