<svg id="Layer_1" data-name="Layer 1" xmlns="http://www.w3.org/2000/svg" width="100px" viewBox="0 0 144 144"><defs><style>.cls-1{fill:#FFFFFF;}</style></defs><title>icons_VisualMedia</title><polygon class="cls-1" points="114.571 50.43 114.571 57.008 131.306 49.486 128.847 44.014 114.571 50.43"/><path class="cls-1" d="M69.82275,32.03516,32.49951,48.80859V80.78381l6-2.69653V55.38623L66.82275,68.1156v35.923L45.61816,94.5094l-7.31811,3.28894,31.5227,14.1665L107.146,95.19141V48.80859ZM42.81787,50.74927l-.00049-.00025L69.82275,38.61328,96.82813,50.749l-.00049.00025L69.82275,62.88574ZM101.146,91.31055l-28.32325,12.728V68.1156L101.146,55.38623Z"/><polygon class="cls-1" points="54.839 83.852 54.839 83.788 54.839 77.322 54.839 77.274 12.694 96.215 12.712 96.255 15.129 101.634 15.153 101.688 54.839 83.852"/></svg>