<svg id="Layer_1" data-name="Layer 1" xmlns="http://www.w3.org/2000/svg" width="100px" viewBox="0 0 144 144"><defs><style>.cls-1{font-size:14px;fill:#fff;font-family:JacobsChronos-Bold, Jacobs Chronos;font-weight:700;}.cls-2{fill:#FFFFFF;}</style></defs><title>icons_VisualMedia</title><text class="cls-1"><tspan x="46.87677" y="168.842">Phasing</tspan></text><path class="cls-2" d="M100.08594,35.18066,72,22.55762l-28.08594,12.623v29.242L18.82813,75.69727v33.123l28.08593,12.62207L72,110.16846l25.08594,11.27392,28.08594-12.62207v-33.123L100.08594,64.42261ZM72,29.13574l17.76758,7.98511L72,45.10547,54.23218,37.12085ZM43.91406,113.51611l-19.08593-8.57666V82.27478l19.08593,8.57727ZM69,104.93945l-19.08594,8.57666V90.85181l12.32032-5.53736-2.459-5.47265L46.91406,85.62207,29.14624,77.63745l17.76782-7.98511,11.043,4.96289L69,79.57837ZM60.957,69.38574l-11.043-4.96313V41.75818L69,50.33545V67.66309h6V50.33545l19.08594-8.57727V64.42261L83.043,69.38574,72,74.34863Zm58.21485,35.55371-19.08594,8.57666V90.85205l19.08594-8.57727Zm-4.31836-27.302L97.08594,85.62207,83.3584,79.45313l-2.459,5.47265,13.18653,5.92627v22.66406L75,104.93945V79.57837l11.043-4.96314,11.043-4.96289Z"/></svg>