<svg id="Layer_1" data-name="Layer 1" xmlns="http://www.w3.org/2000/svg" width="100px" height="100px" viewBox="0 0 144 144"><defs><style>.cls-1{fill:#FFFFFF;}</style></defs><title>icons_VisualMedia</title><path class="cls-1" d="M23.4668,43.52148v56.958L72,122.291l48.5332-21.81153v-56.958L72,21.709Zm73.78735,14.3429,17.279-7.76538V96.59863L75,114.36475V99.043a28.37163,28.37163,0,0,1-6-.00025v15.322L29.4668,96.59863V50.099l17.27978,7.76575a28.41451,28.41451,0,0,1,3.3335-5.07984L33.78467,45.46167,72,28.28711l38.21533,17.17456-16.29468,7.323A28.41258,28.41258,0,0,1,97.25415,57.86438Z"/><path class="cls-1" d="M86.57739,56.08459a20.699,20.699,0,1,0,3.68775,4.92078A20.66872,20.66872,0,0,0,86.57739,56.08459ZM75,85.24915A14.71027,14.71027,0,1,1,86.74023,70.81738,14.74674,14.74674,0,0,1,75,85.24915Z"/></svg>