<svg version="1.1" id="Layer_1" xmlns="http://www.w3.org/2000/svg" xmlns:xlink="http://www.w3.org/1999/xlink" x="0px" y="0px" width="100%" height="100%" viewBox="0.5 206.5 225 40" enable-background="new 0.5 206.5 225 40" xml:space="preserve">
<g>
	<path fill="#009999" d="M146.39,234.5c1.21-1.1,2.19-1.71,2.98-1.99c0.58-0.21,1.04-0.26,1.41-0.16c0.16,0.04,0.5,0.19,0.38,0.67   c-0.15,0.59-1.21,1.94-2.68,3.27c-1.15,1.03-2.34,1.74-3.21,1.76c-0.32,0.01-0.45-0.16-0.51-0.25   C144.55,237.48,144.61,236.11,146.39,234.5 M134.3,237.1h0.06c-0.94,1.31-1.93,2.53-3.46,4.12c-2.31,2.39-4.35,3.21-5.89,3.66   c-1.75,0.5-1.14,0.87,0.06,0.83c1.62-0.06,4.75-0.76,7.38-2.68c1.51-1.11,2.59-2.09,4.04-3.55l5.54-3.55h0.04   c-0.36,0.55-0.52,1.07-0.56,1.55c-0.01,0.09-0.08,0.8,0.41,1.35c0.4,0.45,1.04,0.62,1.96,0.59c1.3-0.04,2.75-0.58,4.36-1.81h0.04   c-0.07,0.29-0.05,0.5-0.05,0.59c0.04,0.51,0.39,1.23,1.77,1.22c1.44-0.01,2.9-0.76,4.36-1.75c1.04-0.7,3.23-2.45,3.4-2.62h0.04   c-0.73,1.05-1.24,2.15-1.25,2.85c0,0.36,0.08,1.52,1.85,1.52c1.98,0,3.45-1.32,4.12-1.81c0.64-0.46,2.35-1.78,3.02-2.29   c0.41-0.31,0.99-0.75,1.57-1.16c0.14-0.11,0.64-0.46,0.77-0.55h0.04c-0.51,0.57-1.29,1.5-1.65,1.99c-0.96,1.3-1.05,1.82-1.09,2.18   c-0.06,1,0.6,1.68,1.72,1.66c1.72,0,3.52-1.2,4.78-2.18c0.41-0.32,0.9-0.69,1.39-1.08h0.04c-0.4,0.58-0.61,1.21-0.58,1.7   c0.02,0.57,0.37,1.55,2.13,1.55c1.61,0,2.95-0.48,5.08-2.08c0.61-0.46,1.62-1.38,2.03-1.8c0.31,0.09,0.72,0.1,1.03,0.06   c0.89-0.08,1.44-0.35,2.19-0.85c0.18-0.12,0.59-0.41,0.94-0.66h0.04c-0.68,0.75-1.32,1.42-1.77,2.15   c-0.41,0.66-0.61,1.23-0.63,1.73c-0.02,0.54,0.16,1.4,1.75,1.43c1.67,0.04,2.95-0.58,4.36-1.62c0.56-0.4,1.89-1.47,2.53-1.92h0.04   c-0.28,0.49-0.41,0.98-0.42,1.39c-0.02,1.37,0.94,2.14,2.85,2.14h0.04c1.74,0.01,3.38-0.5,5.36-1.9c0.77-0.55,1.77-1.3,2.77-2.03   h0.04c-0.68,1.02-1.54,2.29-1.82,2.77c-0.12,0.2-0.15,0.33-0.15,0.46c0,0.1,0.02,0.23,0.07,0.32c0.16,0.26,0.5,0.31,1.12,0.31   c1.24-0.01,1.3,0.03,1.88-0.5c0.55-0.5,1.05-0.99,1.97-1.85c0.16-0.15,0.65-0.59,0.93-0.81c0.95,0.52,2.68,1.4,3,1.56   c3.77,1.81,5.73,2.2,8.78,2.2c2.42,0,4.26-0.43,5.75-1.15c0.05-0.03,0.22-0.12,0.31-0.17c0.49-0.28,0.76-0.56,0.76-0.73   c0-0.2-0.37-0.24-1.17,0.04c-0.04,0.01-0.2,0.06-0.23,0.07c-1.64,0.48-3.12,0.71-5.56,0.34c-1.95-0.3-2.99-0.82-4.5-1.46   c-0.36-0.15-1.5-0.71-1.75-0.84c-0.84-0.42-1.79-0.89-3.18-1.64c1.35-1.09,2.92-2.02,4.29-2.11c0.28-0.03,0.41,0.14,0.53,0.4   c0.2,0.44,0.7,0.74,1.37,0.74c0.81,0,1.47-0.47,1.47-1.15c0-0.74-0.5-1.13-1.47-1.15c-2.31-0.07-4.44,0.9-6.35,2.32   c-0.79,0.59-1.66,1.33-2.38,1.89h-0.04c0.12-0.17,0.57-0.79,0.71-0.99c1.76-2.4,3.21-4.05,3.68-4.61c0.64-0.76,1.5-1.76,2.38-2.72   c1.12-1.25,2.12-2.04,2.02-2.29c-0.14-0.36-1.59,0.06-2.9,0.69c-0.27,0.13-1.52,0.81-2.75,1.99c-1.43,1.4-1.94,2.08-4.5,4.89   c-0.5,0.55-1.34,1.38-2.21,2.08c-1.15,0.94-2.32,1.75-3.36,2.43c-2.05,1.32-2.85,1.35-3.47,1.31c-0.32-0.03-0.78-0.2-0.94-0.77   c-0.21-0.77-0.02-1.95,1.59-3.63c1.08-1.12,1.93-1.38,2.42-1.42c0.3-0.03,0.4,0.22,0.5,0.4c0.2,0.44,0.71,0.72,1.36,0.72   c0.8,0,1.46-0.47,1.46-1.15c0-0.76-0.5-1.13-1.46-1.15c-0.78-0.02-1.43,0.05-2.15,0.19c-1.32,0.23-2.47,0.84-3.22,1.21   c-0.85,0.4-1.92,1.17-2.11,1.32c-0.54,0.41-0.97,0.68-1.54,1.13c-0.45,0.35-1.42,1.12-2.03,1.58c-0.82,0.64-1.57,1.04-1.88,1.2   c-0.39,0.18-0.74,0.24-0.88,0.12c-0.2-0.16-0.08-0.4,0.12-0.71c0.18-0.29,0.59-0.9,1.38-1.91c0.84-1.08,2.4-2.78,2.4-2.78   c0.4-0.41,0.33-0.64,0.3-0.72c-0.14-0.32-0.5-0.39-1.55-0.39c-1.22,0-1.73,0.06-3.04,1.09c-1.18,0.92-1.56,1.25-2.21,1.71   c-0.56,0.4-1.25,0.77-2.11,0.75c0.34-0.25,0.96-0.87,1.32-1.38c0.74-1.05,0.69-2.03,0.16-2.29c-0.64-0.29-1.67,0.11-2.47,1.38   c-0.51,0.85-0.64,1.68-0.4,2.35c-0.47,0.49-1.55,1.42-1.96,1.72c-1.1,0.78-1.58,1.01-2.18,1.26c-0.66,0.28-0.97,0.13-1.07,0.05   c-0.05-0.05-0.1-0.14-0.09-0.26c0-0.17,0.06-0.33,0.18-0.55c0.31-0.58,0.7-1.16,1.37-2.07c0.54-0.73,0.9-1.18,1.37-1.76l0.72-0.91   c0.16-0.21,0.4-0.48,0.29-0.71c-0.1-0.23-0.4-0.39-1.17-0.39c-1.4-0.01-1.6,0.2-2.03,0.59c-1.51,1.34-2.3,2.21-4.38,3.82   c-1.09,0.85-1.99,1.54-2.99,2.03c-0.58,0.29-0.93,0.04-0.68-0.35c0.46-0.73,0.95-1.33,1.66-2.21c0.82-1.01,1.59-1.96,2.35-2.81   c0.13-0.14,0.4-0.46,0.25-0.7c-0.15-0.26-0.55-0.34-1.38-0.36c-1.87-0.04-2.34,0.42-3.31,1.1c-1.03,0.72-2.06,1.47-2.89,2.06   c-0.66,0.48-1.84,1.34-2.54,1.86c-0.84,0.62-1.39,0.99-1.86,1.27c-0.6,0.35-0.88,0.31-1.04,0.19c-0.16-0.12-0.04-0.38,0.11-0.67   c0.64-1.18,2.41-3.77,3.28-4.82h2.66c0.28,0,0.57-0.13,0.63-0.49c0.04-0.25-0.14-0.49-0.41-0.49l-2.15,0.01   c0.71-0.9,1.3-1.62,2.13-2.59c1.03-1.19,1.52-1.64,2.11-2.23c0.67-0.68-0.31-0.52-0.31-0.52c-2.84,0.4-4.62,2.36-4.62,2.36   c-0.81,0.79-1.22,1.2-2.74,2.98h-1.82c-0.28,0-0.57,0.14-0.63,0.49c-0.04,0.25,0.13,0.49,0.4,0.49h1.13   c-0.06,0.06-1.11,1.04-1.89,1.68c0,0-1.41,1.16-3.18,2.42c-0.66,0.47-1.45,1-2.12,1.3c-0.67,0.31-0.84,0.1-0.88-0.02   c-0.04-0.13,0.02-0.33,0.18-0.57c0,0,0.68-0.95,1.47-1.96c0.8-1.03,1.58-1.91,2.32-2.76c0.11-0.14,0.4-0.41,0.27-0.73   c-0.12-0.3-0.59-0.37-1.34-0.37c-1.2,0-1.57,0.12-2.38,0.94H152c-0.04-0.18-0.1-0.35-0.2-0.5c-0.18-0.24-0.55-0.55-1.28-0.57   c-1.14-0.07-2.53,0.26-4.12,0.98c-1.06,0.48-1.85,0.91-2.58,1.41c0.01-0.01-1.13,0.76-1.13,0.76l-2.31,1.53   c-0.87,0.58-2.11,1.37-2.92,1.84h-0.04c0.3-0.39,1.3-1.76,1.65-2.25c0,0,1.9-2.54,2.38-3.22c0.51-0.73-0.11-0.96-1.08-0.95   c-1.12,0.01-1.84,0.14-2.39,0.78c-0.58,0.67-1.01,1.19-1.55,1.72c-3.55,3.55-6.32,3.92-7.66,3.92c-0.69,0-1.28-0.15-1.55-0.52   c-0.22-0.31-0.28-0.71-0.24-1.14c0.15-1.89,2.07-4.9,5.52-7.54c2.21-1.7,5.37-3.35,8.86-3.46c0.44-0.02,0.86,0.15,0.53,0.76   c-0.7,1.27,0.03,2.1,1.11,2.12c1.03,0.03,1.98-0.44,2.29-1.26c0.37-0.98,0.05-1.81-0.46-2.21c-0.4-0.32-1.01-0.54-1.96-0.58   c-5.93-0.27-10.84,2.2-11.96,2.82c-2.11,1.16-5.44,3.56-7.1,6.34c-0.56,0.93-0.9,1.83-0.99,2.58c-0.23,2.02,0.5,3.86,4.08,3.82   C129.34,239.41,132.04,238.68,134.3,237.1 M194.65,227.41c0.77-1.05,0.13-1.86-0.67-1.95c-0.25-0.03-0.47-0.04-0.73,0.01   c-0.47,0.09-0.85,0.32-1.22,0.69c-1.21,1.22-0.33,2.77-0.33,2.77S193.62,228.83,194.65,227.41"/>
	<rect x="157.4" y="206.73" fill="#006666" width="1.43" height="11.4"/>
	<polygon fill="#006666" points="4.89,213.63 0.5,206.73 2.12,206.73 5.59,212.58 9.08,206.73 10.69,206.73 6.3,213.63 6.3,218.14    4.89,218.14  "/>
	<polygon fill="#006666" points="82.61,206.73 84.45,206.73 91.19,216.62 91.21,216.62 91.21,206.73 92.38,206.73 92.38,218.14    90.52,218.14 83.81,208.27 83.78,208.27 83.78,218.14 82.61,218.14  "/>
	<polygon fill="#006666" points="125.12,206.73 126.97,206.73 133.69,216.62 133.73,216.62 133.73,206.73 134.89,206.73    134.89,218.14 133.03,218.14 126.32,208.27 126.28,208.27 126.28,218.14 125.12,218.14  "/>
	<path fill="#006666" d="M98.04,217.06h2.58c2.61,0,4.59-1.38,4.59-4.63c0-3.25-1.98-4.63-4.59-4.63h-2.58V217.06z M96.63,206.73   h4.6c2.24,0,5.43,1.5,5.43,5.71s-3.19,5.71-5.43,5.71h-4.6V206.73z"/>
	<path fill="#006666" d="M146.19,214.24h5.43l-2.55-6.42h-0.34L146.19,214.24z M154.63,218.14h-1.53l-1.1-2.81h-6.2l-1.12,2.81   h-1.53l4.65-11.41h2.17L154.63,218.14z"/>
	<polygon fill="#006666" points="219.79,207.82 216.1,207.82 216.1,218.14 214.66,218.14 214.66,207.82 210.98,207.82    210.98,206.73 219.79,206.73  "/>
	<path fill="#006666" d="M35.35,206.73v7.57c0,2.02-1.45,3.09-3.25,3.09c-1.84,0-3.26-1.07-3.26-3.09v-7.57h-1.4v7.07   c0,3.29,2.05,4.65,4.66,4.65c2.48,0,4.66-1.36,4.66-4.65v-7.07H35.35z"/>
	<path fill="#006666" d="M17.97,207.57c-2.78,0-4.5,2.2-4.5,4.92c0,2.72,1.72,4.92,4.5,4.92c2.79,0,4.5-2.21,4.5-4.92   C22.47,209.78,20.76,207.57,17.97,207.57 M23.97,212.49c0,3.31-2.47,6-6,6c-3.56,0-6-2.68-6-6c0-3.31,2.44-5.99,6-5.99   C21.5,206.5,23.97,209.18,23.97,212.49"/>
	<path fill="#006666" d="M73.41,207.57c-2.78,0-4.5,2.2-4.5,4.92c0,2.72,1.72,4.92,4.5,4.92c2.78,0,4.5-2.21,4.5-4.92   C77.91,209.78,76.19,207.57,73.41,207.57 M79.41,212.49c0,3.31-2.47,6-5.99,6c-3.55,0-6-2.68-6-6c0-3.31,2.44-5.99,6-5.99   C76.93,206.5,79.41,209.18,79.41,212.49"/>
	<path fill="#006666" d="M115.77,207.57c-2.78,0-4.5,2.2-4.5,4.92c0,2.72,1.72,4.92,4.5,4.92c2.79,0,4.5-2.21,4.5-4.92   C120.27,209.78,118.55,207.57,115.77,207.57 M121.77,212.49c0,3.31-2.47,6-5.99,6c-3.55,0-6-2.68-6-6c0-3.31,2.44-5.99,6-5.99   C119.29,206.5,121.77,209.18,121.77,212.49"/>
	<path fill="#006666" d="M191.69,207.57c-2.78,0-4.5,2.2-4.5,4.92c0,2.72,1.72,4.92,4.5,4.92s4.5-2.21,4.5-4.92   C196.19,209.78,194.48,207.57,191.69,207.57 M197.69,212.49c0,3.31-2.48,6-6,6c-3.56,0-6-2.68-6-6c0-3.31,2.44-5.99,6-5.99   C195.22,206.5,197.69,209.18,197.69,212.49"/>
	<path fill="#006666" d="M45.42,212.44c1.53,0,2.49-1.02,2.49-2.31c0-1.33-1.01-2.31-2.26-2.31h-3.5v4.62L45.42,212.44z    M45.87,206.73c1.92,0,3.47,1.43,3.47,3.39c0,1.69-1.27,2.92-2.84,3.28l3.64,4.73h-1.76l-3.47-4.61h-2.76v4.61h-1.43v-11.4H45.87z"/>
	<path fill="#006666" d="M167.74,212.44c1.53,0,2.48-1.02,2.48-2.31c0-1.33-1.01-2.31-2.25-2.31h-3.5v4.62L167.74,212.44z    M168.2,206.73c1.92,0,3.48,1.43,3.48,3.39c0,1.69-1.27,2.92-2.84,3.28l3.64,4.73h-1.77l-3.47-4.61h-2.75v4.61h-1.43v-11.4H168.2z"/>
	<path fill="#006666" d="M205.44,212.44c1.53,0,2.49-1.02,2.49-2.31c0-1.33-1.01-2.31-2.26-2.31h-3.5v4.62L205.44,212.44z    M205.89,206.73c1.92,0,3.47,1.43,3.47,3.39c0,1.69-1.27,2.92-2.84,3.28l3.64,4.73h-1.76l-3.48-4.61h-2.75v4.61h-1.42v-11.4H205.89   z"/>
	<polygon fill="#006666" points="58.93,206.73 60.36,206.73 60.36,217.04 65.83,217.04 65.83,218.14 58.93,218.14  "/>
	<path fill="#006666" d="M176.49,212.44l3.26-0.01c1.54,0,2.51-0.97,2.51-2.3c0-1.32-1.01-2.31-2.25-2.31l-3.51-0.01L176.49,212.44z    M175.06,206.73h4.9c2.17,0,3.72,1.43,3.72,3.4s-1.53,3.4-3.71,3.4h-3.46h-0.02v4.61h-1.42L175.06,206.73L175.06,206.73z"/>
</g>
</svg>