<?xml version="1.0" encoding="UTF-8" standalone="no"?><!DOCTYPE svg PUBLIC "-//W3C//DTD SVG 1.1//EN" "http://www.w3.org/Graphics/SVG/1.1/DTD/svg11.dtd"><svg width="100%" height="100%" viewBox="0 0 778 180" version="1.1" xmlns="http://www.w3.org/2000/svg" xmlns:xlink="http://www.w3.org/1999/xlink" xml:space="preserve" xmlns:serif="http://www.serif.com/" style="fill-rule:evenodd;clip-rule:evenodd;stroke-linejoin:round;stroke-miterlimit:2;"><path d="M717.073,180c32.196,0 54.634,-16.585 54.634,-40.731c0,-20.732 -12.195,-32.928 -37.805,-38.293l-16.097,-3.415c-8.049,-1.707 -12.439,-5.365 -12.439,-10c0,-6.341 6.098,-10.244 16.098,-10.244c11.219,0 21.951,3.171 34.634,10.488l10.975,-25.121c-11.464,-8.293 -27.073,-12.928 -44.39,-12.928c-31.463,0 -51.952,16.098 -51.952,41.22c0,20 11.952,31.707 37.318,36.829l14.878,3.171c10,2.195 13.415,5.122 13.415,10.975c0,6.342 -7.073,10 -19.757,10c-10.487,0 -25.854,-5.609 -38.78,-14.146l-10.732,25.366c10.976,10.244 30,16.585 50,16.829Zm-123.171,-30.488c-17.804,0 -29.268,-12.927 -29.268,-34.634c0,-21.707 11.464,-34.633 29.268,-34.633c17.805,0 29.269,12.926 29.269,34.633c0,21.707 -11.464,34.634 -29.269,34.634Zm8.049,30.488c29.513,0 55.854,-23.902 55.854,-65.122c0,-40 -23.903,-65.122 -54.634,-65.122c-16.586,0 -29.269,7.074 -37.073,18.781l0,-68.537l-33.659,0l0,142.195c0,11.707 -0.488,21.951 -1.463,34.39l31.707,0c0.488,-4.878 0.975,-10 1.219,-15.609c9.025,12.682 22.927,19.024 38.049,19.024Zm-149.756,-30.488c-17.804,0 -29.268,-12.927 -29.268,-34.634c0,-21.707 11.464,-34.633 29.268,-34.633c17.805,0 29.269,12.926 29.269,34.633c0,21.707 -11.464,34.634 -29.269,34.634Zm-1.219,30.488c38.048,0 65.122,-25.122 65.122,-65.122c0,-40 -25.854,-65.122 -63.903,-65.122c-37.317,0 -63.902,27.318 -63.902,65.122c0,38.78 25.365,65.122 62.683,65.122Zm-110.732,0c16.829,0 34.147,-5.854 44.634,-15.366l-12.195,-25.61c-9.268,5.854 -21.219,9.756 -30.488,9.756c-19.024,0 -31.219,-12.926 -31.219,-33.902c0,-20.243 11.951,-33.902 32.926,-33.902c8.781,0 19.025,3.902 27.562,9.512l13.414,-26.585c-10.732,-9.268 -25.366,-14.147 -41.707,-14.147c-42.195,0 -66.83,30 -66.83,65.122c0,40 24.391,65.122 63.903,65.122Zm-112.927,-48.049c0,16.342 -13.902,21.707 -25.122,21.707c-11.463,0 -17.805,-4.389 -17.805,-13.658c0,-8.049 5.122,-13.902 19.025,-14.634l23.902,-1.22l0,7.805Zm5.61,44.634l31.707,0c-2.439,-10.243 -4.146,-27.073 -4.146,-38.78l0,-39.268c0,-30.244 -18.78,-48.781 -51.951,-48.781c-35.854,0 -51.464,22.683 -53.903,40.732l31.707,0c1.951,-8.049 9.025,-13.171 21.22,-13.171c11.951,0 19.756,6.098 19.756,18.293l0,5.122l-30.732,1.463c-32.439,1.707 -45.609,18.049 -45.609,40c0,23.659 16.829,37.805 42.439,37.805c19.024,0 31.219,-9.269 37.317,-16.829c0.488,5.122 1.463,10 2.195,13.414Zm-132.439,-109.024l35.61,0l0,-67.561l-69.513,0l0,33.659l33.903,0l0,33.902Zm-33.172,112.439c40.976,0 68.782,-28.78 68.782,-68.78l0,-21.22l-35.61,0l0,21.22c0,20.975 -12.927,34.634 -33.172,34.634c-19.024,0 -30,-11.952 -31.951,-28.781l-35.365,0c1.951,36.829 28.536,62.927 67.316,62.927Z" style="fill:#fff;fill-rule:nonzero;"/><path d="M772.539,169.863c-0.281,0 -0.536,0.007 -0.766,0.019l0,1.762c0.23,0.025 0.466,0.038 0.707,0.038c0.907,0 1.36,-0.313 1.36,-0.938c0,-0.332 -0.103,-0.561 -0.306,-0.689c-0.205,-0.128 -0.536,-0.192 -0.995,-0.192Zm-1.455,4.211l0,-4.765c0.293,-0.026 0.567,-0.045 0.823,-0.058c0.255,-0.013 0.465,-0.02 0.632,-0.02c1.339,0 2.01,0.504 2.01,1.513c0,0.663 -0.314,1.122 -0.939,1.378l1.053,1.952l-0.785,0l-0.918,-1.78c-0.141,0.013 -0.288,0.019 -0.44,0.019c-0.281,0 -0.531,-0.012 -0.747,-0.039l0,1.8l-0.689,0Zm1.55,1.589c1.251,0 2.211,-0.342 2.882,-1.024c0.669,-0.683 1.005,-1.662 1.005,-2.939c0,-1.275 -0.336,-2.255 -1.005,-2.937c-0.671,-0.683 -1.631,-1.025 -2.882,-1.025c-1.25,0 -2.213,0.345 -2.89,1.034c-0.677,0.689 -1.015,1.666 -1.015,2.928c0,1.264 0.338,2.24 1.015,2.929c0.677,0.689 1.64,1.034 2.89,1.034Zm-4.862,-3.963c0,-0.981 0.202,-1.837 0.604,-2.564c0.401,-0.727 0.967,-1.289 1.693,-1.685c0.728,-0.394 1.582,-0.593 2.565,-0.593c0.982,0 1.838,0.199 2.565,0.593c0.728,0.396 1.291,0.958 1.694,1.685c0.401,0.727 0.602,1.583 0.602,2.564c0,0.984 -0.201,1.838 -0.602,2.566c-0.403,0.726 -0.966,1.288 -1.694,1.684c-0.727,0.396 -1.583,0.593 -2.565,0.593c-0.983,0 -1.837,-0.197 -2.565,-0.593c-0.726,-0.396 -1.292,-0.958 -1.693,-1.684c-0.402,-0.728 -0.604,-1.582 -0.604,-2.566Z" style="fill:#fff;fill-rule:nonzero;"/></svg>