<?xml version="1.0" encoding="UTF-8" standalone="no"?><!DOCTYPE svg PUBLIC "-//W3C//DTD SVG 1.1//EN" "http://www.w3.org/Graphics/SVG/1.1/DTD/svg11.dtd"><svg width="100%" height="100%" viewBox="0 0 328 78" version="1.1" xmlns="http://www.w3.org/2000/svg" xmlns:xlink="http://www.w3.org/1999/xlink" xml:space="preserve" xmlns:serif="http://www.serif.com/" style="fill-rule:evenodd;clip-rule:evenodd;stroke-linejoin:round;stroke-miterlimit:2;"><path d="M264.656,77.39l-17.065,0l0,-30.303l-31.847,-47.087l19.239,0l21.097,33.068l21.293,-33.068l19.347,0l-32.064,47.408l0,29.982Zm-86.782,0l-13.695,0l-34.891,-77.39l17.718,0l24.146,56.179l24.33,-56.179l17.174,0l-34.782,77.39Zm-160.918,0l-16.956,0l0,-77.389l35.108,0c8.695,0 15.379,2.065 20.054,6.195c4.674,4.13 7.01,9.747 7.01,16.848c0,7.029 -2.374,12.627 -7.119,16.793c-4.747,4.167 -11.396,6.25 -19.945,6.25l-18.152,0l0,31.303Zm124.292,0l-16.846,0l-7.36,-17.173l-36.09,0l-7.418,17.173l-17.065,0l35.542,-77.389l13.694,0l35.543,77.389Zm-54.709,-30.108l24.959,0l-12.43,-29.004l-12.529,29.004Zm-69.583,-14.13l15.978,0c4.492,0 7.826,-0.869 10,-2.609c2.174,-1.739 3.261,-4.201 3.261,-7.39c0,-3.261 -1.07,-5.761 -3.207,-7.5c-2.139,-1.739 -5.489,-2.609 -10.054,-2.609l-15.978,0l0,20.108Z" style="fill:#333;fill-rule:nonzero;"/><rect x="296.821" y="47.282" width="30.324" height="30.324" style="fill:#a52052;"/></svg>