<?xml version="1.0" encoding="UTF-8" standalone="no"?>
<!DOCTYPE svg PUBLIC "-//W3C//DTD SVG 1.1//EN" "http://www.w3.org/Graphics/SVG/1.1/DTD/svg11.dtd">
<svg width="100%" height="100%" viewBox="0 0 328 78" version="1.1" xmlns="http://www.w3.org/2000/svg" xmlns:xlink="http://www.w3.org/1999/xlink" xml:space="preserve" xmlns:serif="http://www.serif.com/" style="fill-rule:evenodd;clip-rule:evenodd;stroke-linejoin:round;stroke-miterlimit:2;">
    <path d="M264.656,77.39L247.591,77.39L247.591,47.087L215.744,0L234.983,0L256.08,33.068L277.373,0L296.72,0L264.656,47.408L264.656,77.39ZM177.874,77.39L164.179,77.39L129.288,0L147.006,0L171.152,56.179L195.482,0L212.656,0L177.874,77.39ZM16.956,77.39L0,77.39L0,0.001L35.108,0.001C43.803,0.001 50.487,2.066 55.162,6.196C59.836,10.326 62.172,15.943 62.172,23.044C62.172,30.073 59.798,35.671 55.053,39.837C50.306,44.004 43.657,46.087 35.108,46.087L16.956,46.087L16.956,77.39ZM141.248,77.39L124.402,77.39L117.042,60.217L80.952,60.217L73.534,77.39L56.469,77.39L92.011,0.001L105.705,0.001L141.248,77.39ZM86.539,47.282L111.498,47.282L99.068,18.278L86.539,47.282ZM16.956,33.152L32.934,33.152C37.426,33.152 40.76,32.283 42.934,30.543C45.108,28.804 46.195,26.342 46.195,23.153C46.195,19.892 45.125,17.392 42.988,15.653C40.849,13.914 37.499,13.044 32.934,13.044L16.956,13.044L16.956,33.152Z" style="fill:white;fill-rule:nonzero;"/>
    <rect x="296.821" y="47.282" width="30.324" height="30.324" style="fill:white;"/>
</svg>
