<svg width="100%" height="100%" viewBox="-4 -4 173 79" id="icon--logo-man-dark" y="299" xmlns="http://www.w3.org/2000/svg"><defs><linearGradient x1="9.2%" y1="60.186%" x2="121.252%" y2="37.603%" id="fda"><stop stop-color="#7A9099" offset="0%"/><stop stop-color="#82969F" offset="10.22%"/><stop stop-color="#96A7AE" offset="26.88%"/><stop stop-color="#BBC7CA" offset="47.78%"/><stop stop-color="#EFF8F5" offset="68.54%"/><stop stop-color="#DCE5E6" offset="76.64%"/><stop stop-color="#B0C1C7" offset="92.69%"/><stop stop-color="#9CB1BA" offset="100%"/></linearGradient><linearGradient x1="18.39%" y1="23.09%" x2="37.68%" y2="3.81%" id="fdb"><stop stop-color="#72CDF4" offset="0%"/><stop stop-color="#79CFF5" offset="4.735%"/><stop stop-color="#9FDBF7" offset="35.9%"/><stop stop-color="#ADDFF8" offset="53.09%"/><stop stop-color="#9EDAF7" offset="68.85%"/><stop stop-color="#76CEF4" offset="97.94%"/><stop stop-color="#72CDF4" offset="100%"/></linearGradient><linearGradient x1="8.557%" y1="76.283%" x2="57.162%" y2="39.232%" id="fdc"><stop stop-color="#60CCF3" offset="0%"/><stop stop-color="#65CDF3" offset="2.991%"/><stop stop-color="#8FD8F4" offset="35.28%"/><stop stop-color="#9DDCF5" offset="53.09%"/><stop stop-color="#8ED7F4" offset="69.42%"/><stop stop-color="#61CCF3" offset="99.58%"/><stop stop-color="#60CCF3" offset="100%"/></linearGradient></defs><g fill-rule="nonzero" fill="none"><path d="M23.535 69.955s-7.54-1.05-8.94-15.367C13.227 40.517 33.6 14.195 38.83 6.14c5.686-8.764-1.976-5.493-5.412-4.475-3.436.988-23.84 7.962-31.32 26.23-6.477 15.891 4.166 38.233 21.437 42.059" fill="url(#fda)"/><path d="M8.858 29.134c-.032 0-.032 0-.065-.033-.032 0-.064-.033-.097-.033a.54.54 0 0 0 .162.066z" fill="url(#fdb)" transform="translate(14.291 40.733)"/><path d="M3.375.062C1.216 5.153-.06 9.967.305 13.855c1.185 12.22 6.84 14.75 8.483 15.244l.456.093h-.03c2.006.432 4.408.308 7.236-.587 6.538-2.098 10.49-6.11 10.49-6.11S11.829 15.861 3.376.062z" fill="url(#fdc)" transform="translate(14.291 40.733)"/><g fill="#002D62"><path d="M47.462 40h2.4L56.2 56.306h-2.4l-1.785-4.91h-6.861l-1.816 4.91h-2.246L47.462 40zm-1.6 9.574h5.507l-2.707-7.598h-.031l-2.77 7.598zM59.554 42.378h-1.939V40h1.939v2.378zm-1.939 2.13h1.939v11.829h-1.939V44.509zM62.477 44.509h1.815v2.501h.031c.923-1.884 2.246-2.84 4.339-2.78v2.07c-3.108 0-4.247 1.791-4.247 4.787v5.25h-1.938V44.509zM70.2 44.509h1.938v1.606h.031c.646-1.297 2.154-1.884 3.754-1.884 3.63 0 5.415 2.872 5.415 6.207 0 3.336-1.784 6.146-5.384 6.146-1.2 0-2.923-.463-3.816-1.853h-.03v6.115h-1.939V44.509h.031zm5.446 1.42c-2.584 0-3.6 2.255-3.6 4.447 0 2.317 1.046 4.478 3.723 4.478 2.646 0 3.539-2.254 3.539-4.57 0-2.193-1.139-4.355-3.662-4.355zM88.138 44.23c3.724 0 5.724 2.719 5.724 6.208 0 3.46-1.97 6.177-5.724 6.177-3.723 0-5.723-2.718-5.723-6.177 0-3.49 2-6.207 5.723-6.207zm0 10.655c2.031 0 3.662-1.606 3.662-4.447 0-2.872-1.63-4.478-3.662-4.478-2.03 0-3.661 1.606-3.661 4.478 0 2.841 1.63 4.447 3.661 4.447zM95.492 44.509h1.816v2.501h.03c.924-1.884 2.247-2.84 4.339-2.78v2.07c-3.108 0-4.246 1.791-4.246 4.787v5.25h-1.939V44.509zM106.385 44.509h2.338v1.73h-2.338v7.35c0 .895.246 1.05 1.446 1.05h.892v1.729h-1.477c-2 0-2.8-.402-2.8-2.594v-7.505h-2v-1.73h2v-3.55h1.939v3.52z"/></g><g fill="#002D62"><path d="M41.03 9.503h3.063l2.32 6.946h.03l2.196-6.946h3.062V19.59H49.66v-7.134l-2.444 7.166h-1.67l-2.443-7.072h-.03v7.072H41.03zM56 9.503h2.227l3.711 10.088H59.68l-.742-2.262h-3.711l-.773 2.262h-2.227L56 9.503zm-.186 6.191h2.567l-1.237-3.708h-.03l-1.3 3.708zM69.175 18.46c-.773 1.006-1.763 1.383-2.721 1.383-3.062 0-4.887-2.326-4.887-5.249 0-2.985 1.794-5.343 4.887-5.343 2.04 0 3.958 1.258 4.175 3.552h-2.103c-.248-1.132-1.083-1.697-2.103-1.697-1.949 0-2.691 1.697-2.691 3.457 0 1.697.742 3.394 2.69 3.394 1.423 0 2.227-.786 2.351-2.168h-2.196v-1.666h4.176v5.468H69.36l-.186-1.131z"/></g><g fill="#002D62"><path d="M41.214 21.062h4.99l3.797 11.22h.031l3.582-11.22h5.022v16.32h-3.338v-11.56h-.03l-3.98 11.56h-2.756l-3.98-11.467h-.031v11.467h-3.337v-16.32zM60.932 29.222c.184-3.03 2.878-3.957 5.511-3.957 2.327 0 5.144.526 5.144 3.37v6.15c0 1.082.122 2.164.398 2.628h-3.276c-.123-.371-.215-.742-.215-1.144-1.01 1.082-2.51 1.453-3.95 1.453-2.234 0-3.98-1.113-3.98-3.555 0-2.689 1.99-3.307 3.98-3.585 1.96-.31 3.797-.217 3.797-1.546 0-1.39-.949-1.607-2.082-1.607-1.224 0-2.02.495-2.143 1.793h-3.184zm7.44 2.38c-.551.494-1.684.494-2.664.68-1.01.216-1.898.556-1.898 1.73 0 1.206.918 1.515 1.96 1.515 2.51 0 2.602-2.009 2.602-2.72v-1.205zM73.73 25.575h3.062v1.638h.06a4.206 4.206 0 0 1 3.583-1.978c3.43 0 4.286 1.947 4.286 4.883v7.264h-3.214v-6.677c0-1.947-.582-2.905-2.052-2.905-1.745 0-2.48.99-2.48 3.4v6.213H73.76V25.575h-.03zM94.825 29.747c-.214-1.329-1.04-2.04-2.388-2.04-2.051 0-2.756 2.102-2.756 3.833 0 1.7.643 3.74 2.664 3.74 1.5 0 2.358-.958 2.572-2.41h3.092c-.398 3.12-2.571 4.852-5.633 4.852-3.521 0-5.91-2.504-5.91-6.058 0-3.679 2.174-6.399 5.971-6.399 2.756 0 5.297 1.453 5.511 4.482h-3.123zM99.51 21.062h3.214v6.15h.062c.826-1.328 2.235-1.977 3.429-1.977 3.429 0 4.286 1.947 4.286 4.883v7.264h-3.215v-6.677c0-1.947-.581-2.905-2.05-2.905-1.746 0-2.48.99-2.48 3.4v6.213H99.54V21.062h-.03zM115.247 32.282c.092 2.07 1.102 2.998 2.878 2.998 1.286 0 2.327-.804 2.541-1.545h2.848c-.919 2.781-2.848 3.987-5.48 3.987-3.706 0-5.971-2.566-5.971-6.213 0-3.554 2.418-6.244 5.97-6.244 3.98 0 5.91 3.4 5.695 7.017h-8.481zm5.235-2.071c-.306-1.638-1.01-2.504-2.571-2.504-2.052 0-2.633 1.608-2.664 2.504h5.235zM127.77 33.55c.03 1.42 1.193 1.977 2.48 1.977.918 0 2.112-.37 2.112-1.514 0-.99-1.347-1.33-3.643-1.824-1.868-.402-3.705-1.082-3.705-3.153 0-3.029 2.572-3.801 5.113-3.801 2.572 0 4.93.865 5.174 3.77h-3.061c-.092-1.267-1.041-1.607-2.205-1.607-.735 0-1.776.124-1.776 1.113 0 1.174 1.807 1.329 3.644 1.762 1.867.432 3.704 1.112 3.704 3.307 0 3.122-2.663 4.11-5.358 4.11-2.725 0-5.358-1.02-5.51-4.172h3.03v.031zM141.18 25.575h2.357v2.163h-2.357v5.842c0 1.113.275 1.36 1.347 1.36.337 0 .643-.03 1.01-.093v2.535c-.55.093-1.255.123-1.867.123-1.96 0-3.705-.463-3.705-2.812v-6.986h-1.96v-2.163h1.96v-3.555h3.215v3.586zM147.364 32.282c.092 2.07 1.103 2.998 2.878 2.998 1.286 0 2.327-.804 2.542-1.545h2.847c-.918 2.781-2.847 3.987-5.48 3.987-3.705 0-5.97-2.566-5.97-6.213 0-3.554 2.418-6.244 5.97-6.244 3.98 0 5.909 3.4 5.694 7.017h-8.48zm5.236-2.071c-.306-1.638-1.01-2.504-2.572-2.504-2.051 0-2.633 1.608-2.664 2.504h5.236zM157.407 25.575h3.062v2.194h.03c.582-1.484 2.174-2.504 3.736-2.504.214 0 .49.031.704.124v3.03a6.405 6.405 0 0 0-1.164-.124c-2.357 0-3.184 1.73-3.184 3.801v5.317h-3.215V25.575h.03z"/></g></g></svg>