<?xml version="1.0" encoding="UTF-8" standalone="no"?>
<!DOCTYPE svg PUBLIC "-//W3C//DTD SVG 1.1//EN" "http://www.w3.org/Graphics/SVG/1.1/DTD/svg11.dtd">
<svg width="100%" height="100%" viewBox="0 0 597 67" version="1.1" xmlns="http://www.w3.org/2000/svg" xmlns:xlink="http://www.w3.org/1999/xlink" xml:space="preserve" xmlns:serif="http://www.serif.com/" style="fill-rule:evenodd;clip-rule:evenodd;stroke-linejoin:round;stroke-miterlimit:1.41421;">
    <g transform="matrix(1,0,0,1,-60.0632,-407.057)">
        <g transform="matrix(0.709984,0,0,0.709984,462.408,351.596)">
            <g transform="matrix(0.445795,0,0,0.445795,182.22,213.915)">
                <g transform="matrix(1,0,0,1,144.589,-304.621)">
                    <path d="M0,180C32.195,180 54.634,163.415 54.634,139.269C54.634,118.537 42.438,106.341 16.829,100.976L0.731,97.561C-7.317,95.854 -11.707,92.195 -11.707,87.561C-11.707,81.22 -5.609,77.317 4.391,77.317C15.609,77.317 26.342,80.488 39.024,87.805L50,62.683C38.536,54.39 22.927,49.756 5.609,49.756C-25.854,49.756 -46.342,65.854 -46.342,90.976C-46.342,110.976 -34.391,122.683 -9.024,127.805L5.854,130.976C15.854,133.171 19.269,136.098 19.269,141.951C19.269,148.293 12.195,151.951 -0.488,151.951C-10.976,151.951 -26.342,146.342 -39.269,137.805L-50,163.171C-39.024,173.415 -20,179.756 0,180M-123.171,149.512C-140.976,149.512 -152.439,136.585 -152.439,114.878C-152.439,93.171 -140.976,80.244 -123.171,80.244C-105.366,80.244 -93.902,93.171 -93.902,114.878C-93.902,136.585 -105.366,149.512 -123.171,149.512M-115.122,180C-85.609,180 -59.269,156.098 -59.269,114.878C-59.269,74.878 -83.171,49.756 -113.902,49.756C-130.488,49.756 -143.171,56.829 -150.976,68.537L-150.976,0L-184.634,0L-184.634,142.195C-184.634,153.902 -185.122,164.146 -186.098,176.585L-154.391,176.585C-153.902,171.707 -153.415,166.585 -153.171,160.976C-144.146,173.658 -130.244,180 -115.122,180M-264.878,149.512C-282.683,149.512 -294.146,136.585 -294.146,114.878C-294.146,93.171 -282.683,80.244 -264.878,80.244C-247.073,80.244 -235.609,93.171 -235.609,114.878C-235.609,136.585 -247.073,149.512 -264.878,149.512M-266.098,180C-228.049,180 -200.976,154.878 -200.976,114.878C-200.976,74.878 -226.829,49.756 -264.878,49.756C-302.195,49.756 -328.78,77.073 -328.78,114.878C-328.78,153.658 -303.415,180 -266.098,180M-376.829,180C-360,180 -342.683,174.146 -332.195,164.634L-344.391,139.024C-353.658,144.878 -365.609,148.78 -374.878,148.78C-393.902,148.78 -406.098,135.854 -406.098,114.878C-406.098,94.634 -394.146,80.976 -373.171,80.976C-364.391,80.976 -354.146,84.878 -345.609,90.488L-332.195,63.902C-342.927,54.634 -357.561,49.756 -373.902,49.756C-416.098,49.756 -440.732,79.756 -440.732,114.878C-440.732,154.878 -416.341,180 -376.829,180M-489.756,131.951C-489.756,148.293 -503.659,153.658 -514.878,153.658C-526.341,153.658 -532.683,149.269 -532.683,140C-532.683,131.951 -527.561,126.098 -513.659,125.366L-489.756,124.146L-489.756,131.951ZM-484.146,176.585L-452.439,176.585C-454.878,166.342 -456.585,149.512 -456.585,137.805L-456.585,98.537C-456.585,68.292 -475.366,49.756 -508.537,49.756C-544.39,49.756 -560,72.439 -562.439,90.488L-530.732,90.488C-528.781,82.439 -521.708,77.317 -509.512,77.317C-497.561,77.317 -489.756,83.415 -489.756,95.61L-489.756,100.732L-520.488,102.195C-552.927,103.902 -566.098,120.244 -566.098,142.195C-566.098,165.854 -549.269,180 -523.659,180C-504.634,180 -492.439,170.731 -486.341,163.171C-485.853,168.293 -484.878,173.171 -484.146,176.585M-616.585,67.561L-580.976,67.561L-580.976,0L-650.488,0L-650.488,33.659L-616.585,33.659L-616.585,67.561ZM-649.756,180C-608.781,180 -580.976,151.22 -580.976,111.22L-580.976,90L-616.585,90L-616.585,111.22C-616.585,132.195 -629.512,145.854 -649.756,145.854C-668.781,145.854 -679.756,133.902 -681.708,117.073L-717.073,117.073C-715.122,153.902 -688.537,180 -649.756,180" style="fill-rule:nonzero;"/>
                </g>
                <g transform="matrix(1,0,0,1,200.055,-131.082)">
                    <path d="M0,-3.675C-0.281,-3.675 -0.536,-3.668 -0.766,-3.656L-0.766,-1.895C-0.536,-1.869 -0.3,-1.857 -0.059,-1.857C0.848,-1.857 1.301,-2.169 1.301,-2.794C1.301,-3.126 1.198,-3.356 0.995,-3.484C0.79,-3.612 0.459,-3.675 0,-3.675M-1.455,0.536L-1.455,-4.23C-1.162,-4.255 -0.888,-4.275 -0.632,-4.287C-0.377,-4.3 -0.167,-4.307 0,-4.307C1.339,-4.307 2.01,-3.803 2.01,-2.794C2.01,-2.131 1.696,-1.672 1.071,-1.416L2.124,0.536L1.339,0.536L0.421,-1.244C0.28,-1.232 0.133,-1.226 -0.02,-1.226C-0.3,-1.226 -0.55,-1.237 -0.766,-1.264L-0.766,0.536L-1.455,0.536ZM0.095,2.125C1.346,2.125 2.306,1.783 2.977,1.1C3.646,0.418 3.981,-0.562 3.981,-1.838C3.981,-3.113 3.646,-4.093 2.977,-4.776C2.306,-5.458 1.346,-5.8 0.095,-5.8C-1.155,-5.8 -2.118,-5.455 -2.795,-4.766C-3.472,-4.077 -3.81,-3.101 -3.81,-1.838C-3.81,-0.574 -3.472,0.402 -2.795,1.091C-2.118,1.78 -1.155,2.125 0.095,2.125M-4.767,-1.838C-4.767,-2.82 -4.565,-3.675 -4.163,-4.403C-3.762,-5.129 -3.196,-5.692 -2.47,-6.087C-1.742,-6.482 -0.888,-6.68 0.095,-6.68C1.077,-6.68 1.933,-6.482 2.66,-6.087C3.388,-5.692 3.951,-5.129 4.354,-4.403C4.755,-3.675 4.956,-2.82 4.956,-1.838C4.956,-0.855 4.755,0 4.354,0.727C3.951,1.454 3.388,2.015 2.66,2.412C1.933,2.807 1.077,3.005 0.095,3.005C-0.888,3.005 -1.742,2.807 -2.47,2.412C-3.196,2.015 -3.762,1.454 -4.163,0.727C-4.565,0 -4.767,-0.855 -4.767,-1.838" style="fill:rgb(35,31,32);fill-rule:nonzero;"/>
                </g>
            </g>
            <g transform="matrix(7.50178,0,0,7.50178,-3948.36,-1620.72)">
                <path d="M450.782,236.263L450.782,227.625C451.145,227.576 451.572,227.531 452.063,227.489C452.553,227.448 453.017,227.427 453.455,227.427C454.585,227.427 455.461,227.648 456.084,228.089C456.707,228.531 457.019,229.275 457.019,230.323C457.019,231.297 456.709,232.047 456.091,232.575C455.472,233.103 454.556,233.367 453.343,233.367C453.17,233.367 453.011,233.363 452.867,233.355C452.723,233.347 452.588,233.334 452.465,233.318L452.465,236.263L450.782,236.263ZM453.38,228.615C453.232,228.615 453.081,228.62 452.929,228.628C452.776,228.636 452.621,228.648 452.465,228.665L452.465,232.142C452.58,232.15 452.708,232.159 452.848,232.167C452.989,232.175 453.137,232.179 453.294,232.179C453.979,232.179 454.484,232.039 454.81,231.759C455.136,231.478 455.299,231.004 455.299,230.335C455.299,229.791 455.156,229.368 454.872,229.067C454.587,228.766 454.09,228.615 453.38,228.615Z" style="fill-rule:nonzero;"/>
            </g>
            <g transform="matrix(7.50178,0,0,7.50178,-3948.36,-1620.72)">
                <path d="M460.545,236.436C459.588,236.436 458.844,236.15 458.312,235.576C457.78,235.003 457.514,234.188 457.514,233.132C457.514,232.076 457.78,231.262 458.312,230.688C458.844,230.115 459.588,229.828 460.545,229.828C461.502,229.828 462.247,230.115 462.779,230.688C463.311,231.262 463.577,232.076 463.577,233.132C463.577,234.188 463.311,235.003 462.779,235.576C462.247,236.15 461.502,236.436 460.545,236.436ZM460.545,235.273C461.453,235.273 461.907,234.559 461.907,233.132C461.907,231.705 461.453,230.991 460.545,230.991C459.638,230.991 459.184,231.705 459.184,233.132C459.184,234.559 459.638,235.273 460.545,235.273Z" style="fill-rule:nonzero;"/>
            </g>
            <g transform="matrix(7.50178,0,0,7.50178,-3948.36,-1620.72)">
                <path d="M469.492,236.263L468.354,232.674L467.24,236.263L465.953,236.263C465.607,235.215 465.291,234.172 465.007,233.132C464.722,232.093 464.468,231.049 464.246,230.001L465.978,230.001C466.06,230.711 466.164,231.418 466.287,232.124C466.411,232.829 466.555,233.532 466.72,234.234L467.797,230.608L469.096,230.608L470.223,234.258C470.363,233.549 470.487,232.839 470.594,232.13C470.701,231.42 470.788,230.711 470.854,230.001L472.537,230.001C472.314,231.049 472.06,232.093 471.776,233.132C471.491,234.172 471.175,235.215 470.829,236.263L469.492,236.263Z" style="fill-rule:nonzero;"/>
            </g>
            <g transform="matrix(7.50178,0,0,7.50178,-3948.36,-1620.72)">
                <path d="M478.674,235.756C478.311,235.987 477.924,236.158 477.511,236.269C477.099,236.381 476.686,236.436 476.274,236.436C475.3,236.436 474.545,236.148 474.009,235.57C473.473,234.993 473.205,234.188 473.205,233.157C473.205,232.084 473.467,231.262 473.991,230.688C474.515,230.115 475.234,229.828 476.15,229.828C477.041,229.828 477.715,230.119 478.173,230.701C478.631,231.282 478.86,232.113 478.86,233.194L478.86,233.615L474.851,233.615C474.9,234.209 475.067,234.621 475.352,234.852C475.636,235.083 476.051,235.199 476.596,235.199C476.851,235.199 477.126,235.168 477.418,235.106C477.711,235.044 478.031,234.943 478.377,234.803L478.674,235.756ZM476.15,230.991C475.375,230.991 474.941,231.528 474.851,232.6L477.264,232.6C477.231,232.014 477.126,231.6 476.948,231.356C476.771,231.113 476.505,230.991 476.15,230.991Z" style="fill-rule:nonzero;"/>
            </g>
            <g transform="matrix(7.50178,0,0,7.50178,-3948.36,-1620.72)">
                <path d="M480.073,236.263L480.073,231.796C480.073,231.507 480.06,231.2 480.036,230.874C480.011,230.548 479.978,230.257 479.937,230.001L481.434,230.001C481.467,230.133 481.5,230.3 481.533,230.503C481.566,230.705 481.595,230.909 481.62,231.115C481.809,230.628 482.045,230.292 482.325,230.107C482.606,229.921 482.89,229.828 483.179,229.828C483.294,229.828 483.406,229.836 483.513,229.853C483.62,229.869 483.74,229.898 483.872,229.939L483.773,231.325C483.682,231.309 483.591,231.295 483.501,231.282C483.41,231.27 483.311,231.264 483.204,231.264C482.948,231.264 482.707,231.328 482.48,231.455C482.253,231.583 482.067,231.816 481.923,232.155C481.778,232.493 481.698,232.98 481.682,233.615L481.682,236.263L480.073,236.263Z" style="fill-rule:nonzero;"/>
            </g>
            <g transform="matrix(7.50178,0,0,7.50178,-3948.36,-1620.72)">
                <path d="M489.775,235.756C489.412,235.987 489.024,236.158 488.611,236.269C488.199,236.381 487.786,236.436 487.374,236.436C486.4,236.436 485.646,236.148 485.109,235.57C484.573,234.993 484.305,234.188 484.305,233.157C484.305,232.084 484.567,231.262 485.091,230.688C485.615,230.115 486.334,229.828 487.25,229.828C488.141,229.828 488.816,230.119 489.273,230.701C489.731,231.282 489.96,232.113 489.96,233.194L489.96,233.615L485.951,233.615C486,234.209 486.167,234.621 486.452,234.852C486.737,235.083 487.151,235.199 487.696,235.199C487.951,235.199 488.226,235.168 488.519,235.106C488.811,235.044 489.131,234.943 489.478,234.803L489.775,235.756ZM487.25,230.991C486.475,230.991 486.042,231.528 485.951,232.6L488.364,232.6C488.331,232.014 488.226,231.6 488.048,231.356C487.871,231.113 487.605,230.991 487.25,230.991Z" style="fill-rule:nonzero;"/>
            </g>
            <g transform="matrix(7.50178,0,0,7.50178,-3948.36,-1620.72)">
                <path d="M497.014,236.263L495.517,236.263C495.467,236.073 495.418,235.822 495.368,235.508C495.145,235.805 494.863,236.034 494.52,236.195C494.178,236.356 493.821,236.436 493.45,236.436C492.617,236.436 491.975,236.154 491.526,235.589C491.076,235.023 490.851,234.238 490.851,233.231C490.851,232.109 491.109,231.262 491.625,230.688C492.14,230.115 492.823,229.828 493.673,229.828C493.994,229.828 494.287,229.867 494.551,229.946C494.815,230.024 495.055,230.129 495.269,230.261L495.269,227.229L496.878,227.229L496.878,234.469C496.878,234.757 496.892,235.063 496.921,235.384C496.95,235.706 496.981,235.999 497.014,236.263ZM495.269,233.8L495.269,231.387C495.096,231.272 494.908,231.181 494.706,231.115C494.504,231.049 494.291,231.016 494.069,231.016C493.59,231.016 493.213,231.181 492.936,231.511C492.66,231.841 492.522,232.394 492.522,233.169C492.522,234.555 492.976,235.248 493.883,235.248C494.254,235.248 494.578,235.12 494.855,234.865C495.131,234.609 495.269,234.254 495.269,233.8Z" style="fill-rule:nonzero;"/>
            </g>
            <g transform="matrix(7.50178,0,0,7.50178,-3948.36,-1620.72)">
                <path d="M501.481,235.756L501.481,227.229L503.09,227.229L503.09,230.632C503.321,230.377 503.593,230.179 503.907,230.038C504.22,229.898 504.546,229.828 504.884,229.828C505.684,229.828 506.305,230.111 506.747,230.676C507.188,231.241 507.409,232.027 507.409,233.033C507.409,234.155 507.132,235.003 506.58,235.576C506.027,236.15 505.276,236.436 504.327,236.436C503.799,236.436 503.294,236.374 502.811,236.251C502.329,236.127 501.885,235.962 501.481,235.756ZM503.09,232.464L503.09,235.063C503.247,235.12 503.412,235.166 503.585,235.199C503.758,235.232 503.931,235.248 504.105,235.248C504.624,235.248 505.027,235.087 505.311,234.766C505.596,234.444 505.738,233.887 505.738,233.095C505.738,232.386 505.625,231.862 505.398,231.523C505.171,231.185 504.847,231.016 504.426,231.016C504.08,231.016 503.771,231.144 503.498,231.4C503.226,231.655 503.09,232.01 503.09,232.464Z" style="fill-rule:nonzero;"/>
            </g>
            <g transform="matrix(7.50178,0,0,7.50178,-3948.36,-1620.72)">
                <path d="M507.73,238.713L507.805,237.587C507.97,237.62 508.131,237.647 508.287,237.668C508.444,237.688 508.588,237.698 508.72,237.698C508.951,237.698 509.149,237.663 509.314,237.593C509.479,237.523 509.632,237.397 509.772,237.216C509.913,237.034 510.057,236.779 510.205,236.449C509.859,235.607 509.527,234.786 509.209,233.986C508.892,233.186 508.611,232.443 508.368,231.759C508.124,231.074 507.928,230.488 507.78,230.001L509.537,230.001C509.702,230.612 509.904,231.323 510.144,232.136C510.383,232.949 510.68,233.899 511.035,234.988C511.191,234.518 511.348,233.998 511.505,233.429C511.662,232.86 511.808,232.28 511.944,231.691C512.08,231.101 512.202,230.538 512.309,230.001L514.066,230.001C514,230.282 513.908,230.624 513.788,231.028C513.668,231.433 513.532,231.864 513.38,232.322C513.227,232.78 513.068,233.239 512.903,233.701C512.738,234.163 512.577,234.597 512.42,235.001C512.264,235.405 512.119,235.756 511.987,236.053C511.657,236.795 511.35,237.375 511.065,237.791C510.781,238.208 510.478,238.499 510.156,238.664C509.834,238.829 509.451,238.911 509.005,238.911C508.535,238.911 508.11,238.845 507.73,238.713Z" style="fill-rule:nonzero;"/>
            </g>
        </g>
    </g>
</svg>
