<svg width="228" height="80" viewBox="-4 -4 228 80" id="icon--logo-stn-dark" y="139" xmlns="http://www.w3.org/2000/svg"><defs><linearGradient x1="9.2%" y1="60.702%" x2="121.252%" y2="36.976%" id="fga"><stop stop-color="#7A9099" offset="0%"/><stop stop-color="#82969F" offset="10.22%"/><stop stop-color="#96A7AE" offset="26.88%"/><stop stop-color="#BBC7CA" offset="47.78%"/><stop stop-color="#EFF8F5" offset="68.54%"/><stop stop-color="#DCE5E6" offset="76.64%"/><stop stop-color="#B0C1C7" offset="92.69%"/><stop stop-color="#9CB1BA" offset="100%"/></linearGradient><linearGradient x1="18.39%" y1="23.04%" x2="37.68%" y2="3.76%" id="fgb"><stop stop-color="#72CDF4" offset="0%"/><stop stop-color="#79CFF5" offset="4.735%"/><stop stop-color="#9FDBF7" offset="35.9%"/><stop stop-color="#ADDFF8" offset="53.09%"/><stop stop-color="#9EDAF7" offset="68.85%"/><stop stop-color="#76CEF4" offset="97.94%"/><stop stop-color="#72CDF4" offset="100%"/></linearGradient><linearGradient x1="8.557%" y1="77.613%" x2="57.162%" y2="38.687%" id="fgc"><stop stop-color="#60CCF3" offset="0%"/><stop stop-color="#65CDF3" offset="2.991%"/><stop stop-color="#8FD8F4" offset="35.28%"/><stop stop-color="#9DDCF5" offset="53.09%"/><stop stop-color="#8ED7F4" offset="69.42%"/><stop stop-color="#61CCF3" offset="99.58%"/><stop stop-color="#60CCF3" offset="100%"/></linearGradient></defs><g fill-rule="nonzero" fill="none"><path d="M24.141 70.007s-7.735-1.05-9.17-15.378c-1.403-14.082 19.494-40.424 24.86-48.484 5.832-8.77-2.028-5.496-5.553-4.477-3.524.988-24.453 7.967-32.126 26.248-6.643 15.904 4.273 38.262 21.99 42.091" fill="url(#fga)"/><path d="M9.076 29.152c-.03 0-.03 0-.062-.031-.031 0-.062-.031-.094-.031.063.03.125.062.156.062z" fill="url(#fgb)" transform="translate(14.66 40.763)"/><path d="M3.462.062C1.248 5.157-.062 9.975.312 13.866 1.528 26.094 7.33 28.626 9.014 29.12l.468.092H9.45c2.058.433 4.522.31 7.423-.586 6.706-2.1 10.76-6.115 10.76-6.115s-15.5-6.64-24.172-22.45z" fill="url(#fgc)" transform="translate(14.66 40.763)"/><g fill="#002D62"><path d="M47.462 41.088h2.4l6.338 15.53h-2.4l-1.785-4.677h-6.861l-1.816 4.677h-2.246l6.37-15.53zm-1.6 9.118h5.507l-2.707-7.235h-.031l-2.77 7.235zM59.554 43.353h-1.939v-2.265h1.939v2.265zm-1.939 2h1.939v11.265h-1.939V45.353zM62.477 45.353h1.815v2.382h.031c.923-1.794 2.246-2.706 4.339-2.647v1.97c-3.108 0-4.247 1.707-4.247 4.56v5h-1.938V45.353zM70.2 45.353h1.938v1.53h.031c.646-1.236 2.154-1.795 3.754-1.795 3.63 0 5.415 2.736 5.415 5.912 0 3.176-1.784 5.853-5.384 5.853-1.2 0-2.923-.441-3.816-1.765h-.03v5.824h-1.939v-15.56h.031zm5.446 1.382c-2.584 0-3.6 2.147-3.6 4.236 0 2.205 1.046 4.264 3.723 4.264 2.646 0 3.539-2.147 3.539-4.353 0-2.088-1.139-4.147-3.662-4.147zM88.138 45.118c3.724 0 5.724 2.588 5.724 5.911 0 3.295-1.97 5.883-5.724 5.883-3.723 0-5.723-2.588-5.723-5.883 0-3.323 2-5.911 5.723-5.911zm0 10.117c2.031 0 3.662-1.53 3.662-4.235 0-2.735-1.63-4.265-3.662-4.265-2.03 0-3.661 1.53-3.661 4.265 0 2.735 1.63 4.235 3.661 4.235zM95.492 45.353h1.816v2.382h.03c.924-1.794 2.247-2.706 4.339-2.647v1.97c-3.108 0-4.246 1.707-4.246 4.56v5h-1.939V45.353zM106.385 45.353h2.338V47h-2.338v7c0 .853.246 1 1.446 1h.892v1.647h-1.477c-2 0-2.8-.382-2.8-2.47v-7.148h-2v-1.647h2V42h1.939v3.353z"/></g><g fill="#002D62"><path d="M42.03 9.265h3.063l2.32 6.5h.03l2.196-6.5h3.062v9.44H50.66V12.03l-2.444 6.706h-1.67l-2.443-6.617h-.03v6.588H42.03zM57 9.265h2.227l3.711 9.44H60.68l-.742-2.117h-3.711l-.773 2.118h-2.227L57 9.265zm-.186 5.794h2.567l-1.237-3.47h-.03l-1.3 3.47zM70.175 17.647a3.42 3.42 0 0 1-2.721 1.294c-3.062 0-4.887-2.176-4.887-4.912 0-2.794 1.794-5 4.887-5 2.04 0 3.958 1.177 4.175 3.324h-2.103c-.248-1.059-1.083-1.588-2.103-1.588-1.949 0-2.691 1.588-2.691 3.235 0 1.588.742 3.176 2.69 3.176 1.423 0 2.227-.735 2.351-2.029h-2.196v-1.559h4.176v5.118H70.36l-.186-1.059z"/></g><g fill="#002D62"><path d="M42.216 20.455h3.572V33.54h7.945v2.975H42.216zM60.755 24.554c3.726 0 6.097 2.428 6.097 6.132 0 3.673-2.402 6.102-6.097 6.102-3.696 0-6.098-2.43-6.098-6.102.03-3.704 2.402-6.132 6.098-6.132zm0 9.835c2.217 0 2.864-1.852 2.864-3.703 0-1.852-.647-3.734-2.864-3.734-2.187 0-2.864 1.852-2.864 3.734.03 1.851.677 3.703 2.864 3.703zM68.638 24.887h3.08v1.61h.062c.831-1.306 2.248-1.943 3.603-1.943 3.449 0 4.311 1.912 4.311 4.796v7.134h-3.233v-6.557c0-1.913-.586-2.854-2.064-2.854-1.755 0-2.494.972-2.494 3.34v6.101h-3.234V24.887h-.03zM90.196 34.996h-.031c-.74 1.245-2.064 1.792-3.573 1.792-3.541 0-5.296-3.006-5.296-6.224 0-3.127 1.755-6.01 5.204-6.01 1.386 0 2.772.576 3.51 1.73h-.03.03v-5.829h3.234v16.029h-3.08v-1.488h.032zm-2.803-8.044c-2.125 0-2.864 1.79-2.864 3.703 0 1.822.832 3.734 2.864 3.734 2.156 0 2.772-1.852 2.772-3.764 0-1.852-.678-3.673-2.772-3.673zM101.097 24.554c3.727 0 6.098 2.428 6.098 6.132 0 3.673-2.402 6.102-6.098 6.102-3.695 0-6.097-2.43-6.097-6.102 0-3.704 2.402-6.132 6.097-6.132zm0 9.835c2.218 0 2.864-1.852 2.864-3.703 0-1.852-.646-3.734-2.864-3.734-2.186 0-2.864 1.852-2.864 3.734 0 1.851.678 3.703 2.864 3.703zM108.95 24.887h3.08v1.61h.061c.832-1.306 2.248-1.943 3.603-1.943 3.45 0 4.312 1.912 4.312 4.796v7.134h-3.234v-6.557c0-1.913-.585-2.854-2.063-2.854-1.755 0-2.494.972-2.494 3.34v6.101h-3.234V24.887h-.03zM130.908 31.171c0 2.125 1.693 2.975 3.603 2.975 1.262 0 3.172-.364 3.172-2.003 0-1.73-2.433-2.034-4.835-2.641-2.402-.638-4.866-1.548-4.866-4.554 0-3.278 3.141-4.857 6.098-4.857 3.387 0 6.528 1.457 6.528 5.16h-3.449c-.123-1.942-1.509-2.428-3.203-2.428-1.139 0-2.463.486-2.463 1.822 0 1.244.77 1.396 4.865 2.428 1.17.304 4.835 1.032 4.835 4.675 0 2.945-2.34 5.13-6.775 5.13-3.603 0-6.96-1.76-6.929-5.707h3.419zM146.675 24.887h2.371v2.125h-2.37v5.738c0 1.093.276 1.336 1.354 1.336.339 0 .647-.03 1.016-.091v2.489c-.554.091-1.262.121-1.878.121-1.971 0-3.726-.455-3.726-2.762v-6.86h-1.971v-2.126h1.97v-3.49h3.234v3.52zM150.124 28.44c.185-2.976 2.895-3.886 5.543-3.886 2.341 0 5.174.516 5.174 3.308v6.042c0 1.062.123 2.125.4 2.58h-3.295c-.123-.364-.215-.729-.215-1.123-1.016 1.062-2.525 1.427-3.973 1.427-2.248 0-4.003-1.093-4.003-3.492 0-2.64 2.001-3.248 4.003-3.521 1.971-.304 3.819-.213 3.819-1.518 0-1.366-.955-1.578-2.094-1.578-1.232 0-2.033.485-2.156 1.76h-3.203zm7.453 2.367c-.555.486-1.694.486-2.68.668-1.016.213-1.909.546-1.909 1.7 0 1.184.924 1.488 1.971 1.488 2.525 0 2.618-1.974 2.618-2.672v-1.184zM162.997 24.887h3.08v1.61h.061c.832-1.306 2.248-1.943 3.603-1.943 3.45 0 4.312 1.912 4.312 4.796v7.134h-3.234v-6.557c0-1.913-.585-2.854-2.063-2.854-1.756 0-2.495.972-2.495 3.34v6.101h-3.233V24.887h-.031zM178.672 32.72c.03 1.396 1.201 1.942 2.494 1.942.924 0 2.125-.364 2.125-1.487 0-.971-1.355-1.305-3.664-1.791-1.879-.395-3.727-1.063-3.727-3.097 0-2.975 2.587-3.733 5.143-3.733 2.587 0 4.958.85 5.205 3.703h-3.08c-.092-1.245-1.047-1.578-2.217-1.578-.74 0-1.786.121-1.786 1.092 0 1.154 1.817 1.306 3.664 1.73 1.879.426 3.727 1.094 3.727 3.249 0 3.066-2.68 4.037-5.39 4.037-2.74 0-5.389-1.001-5.543-4.098h3.049v.03zM192.16 24.887h2.372v2.125h-2.371v5.738c0 1.093.277 1.336 1.355 1.336.338 0 .646-.03 1.016-.091v2.489c-.554.091-1.263.121-1.879.121-1.97 0-3.726-.455-3.726-2.762v-6.86h-1.97v-2.126h1.97v-3.49h3.234v3.52zM198.412 31.475c.092 2.034 1.109 2.945 2.895 2.945 1.293 0 2.34-.79 2.556-1.518h2.864c-.924 2.732-2.864 3.916-5.512 3.916-3.727 0-6.006-2.52-6.006-6.102 0-3.491 2.433-6.132 6.006-6.132 4.003 0 5.943 3.34 5.728 6.891h-8.53zm5.266-2.034c-.308-1.609-1.016-2.459-2.587-2.459-2.063 0-2.648 1.579-2.679 2.46h5.266zM216.89 34.996h-.031c-.74 1.245-2.063 1.792-3.572 1.792-3.542 0-5.297-3.006-5.297-6.224 0-3.127 1.755-6.01 5.204-6.01 1.386 0 2.772.576 3.51 1.73h-.03.03v-5.829h3.234v16.029h-3.08v-1.488h.032zm-2.834-8.044c-2.125 0-2.864 1.79-2.864 3.703 0 1.822.832 3.734 2.864 3.734 2.156 0 2.772-1.852 2.772-3.764 0-1.852-.677-3.673-2.772-3.673z"/></g></g></svg>