<svg width="100" height="100" viewBox="0 0 50 100" xmlns="http://www.w3.org/2000/svg" stroke-linejoin="round"><style>.a{fill:#2962ff; fill-opacity: 0.05}</style><circle cx="14.1" cy="0.3" r="0.3" class="a"/><circle cx="7.2" cy="0.3" r="0.3" class="a"/><circle cx="0.3" cy="0.3" r="0.3" class="a"/><circle cx="14.1" cy="2" r="0.3" class="a"/><circle cx="7.2" cy="2" r="0.3" class="a"/><circle cx="0.3" cy="2" r="0.3" class="a"/><circle cx="14.1" cy="3.8" r="0.3" class="a"/><circle cx="7.2" cy="3.8" r="0.3" class="a"/><circle cx="0.3" cy="3.8" r="0.3" class="a"/><circle cx="14.1" cy="5.5" r="0.3" class="a"/><circle cx="14.1" cy="14.2" r="0.3" class="a"/><circle cx="7.2" cy="5.5" r="0.3" class="a"/><circle cx="7.2" cy="14.2" r="0.3" class="a"/><circle cx="0.3" cy="5.5" r="0.3" class="a"/><circle cx="0.3" cy="14.2" r="0.3" class="a"/><circle cx="14.1" cy="7.3" r="0.3" class="a"/><circle cx="7.2" cy="7.3" r="0.3" class="a"/><circle cx="0.3" cy="7.3" r="0.3" class="a"/><circle cx="14.1" cy="9" r="0.3" class="a"/><circle cx="7.2" cy="9" r="0.3" class="a"/><circle cx="0.3" cy="9" r="0.3" class="a"/><circle cx="14.1" cy="10.7" r="0.3" class="a"/><circle cx="7.2" cy="10.7" r="0.3" class="a"/><circle cx="0.3" cy="10.7" r="0.3" class="a"/><circle cx="14.1" cy="12.5" r="0.3" class="a"/><circle cx="7.2" cy="12.5" r="0.3" class="a"/><circle cx="0.3" cy="12.5" r="0.3" class="a"/><circle cx="8.9" cy="0.3" r="0.3" class="a"/><circle cx="2" cy="0.3" r="0.3" class="a"/><circle cx="8.9" cy="2" r="0.3" class="a"/><circle cx="2" cy="2" r="0.3" class="a"/><circle cx="8.9" cy="3.8" r="0.3" class="a"/><circle cx="2" cy="3.8" r="0.3" class="a"/><circle cx="8.9" cy="5.5" r="0.3" class="a"/><circle cx="8.9" cy="14.2" r="0.3" class="a"/><circle cx="2" cy="5.5" r="0.3" class="a"/><circle cx="2" cy="14.2" r="0.3" class="a"/><circle cx="8.9" cy="7.3" r="0.3" class="a"/><circle cx="2" cy="7.3" r="0.3" class="a"/><circle cx="8.9" cy="9" r="0.3" class="a"/><circle cx="2" cy="9" r="0.3" class="a"/><circle cx="8.9" cy="10.7" r="0.3" class="a"/><circle cx="2" cy="10.7" r="0.3" class="a"/><circle cx="8.9" cy="12.5" r="0.3" class="a"/><circle cx="2" cy="12.5" r="0.3" class="a"/><circle cx="10.7" cy="0.3" r="0.3" class="a"/><circle cx="3.7" cy="0.3" r="0.3" class="a"/><circle cx="10.7" cy="2" r="0.3" class="a"/><circle cx="3.7" cy="2" r="0.3" class="a"/><circle cx="10.7" cy="3.8" r="0.3" class="a"/><circle cx="3.7" cy="3.8" r="0.3" class="a"/><circle cx="10.7" cy="5.5" r="0.3" class="a"/><circle cx="10.7" cy="14.2" r="0.3" class="a"/><circle cx="3.7" cy="5.5" r="0.3" class="a"/><circle cx="3.7" cy="14.2" r="0.3" class="a"/><circle cx="10.7" cy="7.3" r="0.3" class="a"/><circle cx="3.7" cy="7.3" r="0.3" class="a"/><circle cx="10.7" cy="9" r="0.3" class="a"/><circle cx="3.7" cy="9" r="0.3" class="a"/><circle cx="10.7" cy="10.7" r="0.3" class="a"/><circle cx="3.7" cy="10.7" r="0.3" class="a"/><circle cx="10.7" cy="12.5" r="0.3" class="a"/><circle cx="3.7" cy="12.5" r="0.3" class="a"/><circle cx="12.4" cy="0.3" r="0.3" class="a"/><circle cx="5.5" cy="0.3" r="0.3" class="a"/><circle cx="12.4" cy="2" r="0.3" class="a"/><circle cx="5.5" cy="2" r="0.3" class="a"/><circle cx="12.4" cy="3.8" r="0.3" class="a"/><circle cx="5.5" cy="3.8" r="0.3" class="a"/><circle cx="12.4" cy="5.5" r="0.3" class="a"/><circle cx="12.4" cy="14.2" r="0.3" class="a"/><circle cx="5.5" cy="5.5" r="0.3" class="a"/><circle cx="5.5" cy="14.2" r="0.3" class="a"/><circle cx="12.4" cy="7.3" r="0.3" class="a"/><circle cx="5.5" cy="7.3" r="0.3" class="a"/><circle cx="12.4" cy="9" r="0.3" class="a"/><circle cx="5.5" cy="9" r="0.3" class="a"/><circle cx="12.4" cy="10.7" r="0.3" class="a"/><circle cx="5.5" cy="10.7" r="0.3" class="a"/><circle cx="12.4" cy="12.5" r="0.3" class="a"/><circle cx="5.5" cy="12.5" r="0.3" class="a"/><circle cx="49.7" cy="49.6" r="0.3" class="a"/><circle cx="42.8" cy="49.6" r="0.3" class="a"/><circle cx="35.9" cy="49.6" r="0.3" class="a"/><circle cx="49.7" cy="51.3" r="0.3" class="a"/><circle cx="42.8" cy="51.3" r="0.3" class="a"/><circle cx="35.9" cy="51.3" r="0.3" class="a"/><circle cx="49.7" cy="53.1" r="0.3" class="a"/><circle cx="42.8" cy="53.1" r="0.3" class="a"/><circle cx="35.9" cy="53.1" r="0.3" class="a"/><circle cx="49.7" cy="54.8" r="0.3" class="a"/><circle cx="49.7" cy="63.5" r="0.3" class="a"/><circle cx="42.8" cy="54.8" r="0.3" class="a"/><circle cx="42.8" cy="63.5" r="0.3" class="a"/><circle cx="35.9" cy="54.8" r="0.3" class="a"/><circle cx="35.9" cy="63.5" r="0.3" class="a"/><circle cx="49.7" cy="56.6" r="0.3" class="a"/><circle cx="42.8" cy="56.6" r="0.3" class="a"/><circle cx="35.9" cy="56.6" r="0.3" class="a"/><circle cx="49.7" cy="58.3" r="0.3" class="a"/><circle cx="42.8" cy="58.3" r="0.3" class="a"/><circle cx="35.9" cy="58.3" r="0.3" class="a"/><circle cx="49.7" cy="60" r="0.3" class="a"/><circle cx="42.8" cy="60" r="0.3" class="a"/><circle cx="35.9" cy="60" r="0.3" class="a"/><circle cx="49.7" cy="61.8" r="0.3" class="a"/><circle cx="42.8" cy="61.8" r="0.3" class="a"/><circle cx="35.9" cy="61.8" r="0.3" class="a"/><circle cx="44.5" cy="49.6" r="0.3" class="a"/><circle cx="37.6" cy="49.6" r="0.3" class="a"/><circle cx="44.5" cy="51.3" r="0.3" class="a"/><circle cx="37.6" cy="51.3" r="0.3" class="a"/><circle cx="44.5" cy="53.1" r="0.3" class="a"/><circle cx="37.6" cy="53.1" r="0.3" class="a"/><circle cx="44.5" cy="54.8" r="0.3" class="a"/><circle cx="44.5" cy="63.5" r="0.3" class="a"/><circle cx="37.6" cy="54.8" r="0.3" class="a"/><circle cx="37.6" cy="63.5" r="0.3" class="a"/><circle cx="44.5" cy="56.6" r="0.3" class="a"/><circle cx="37.6" cy="56.6" r="0.3" class="a"/><circle cx="44.5" cy="58.3" r="0.3" class="a"/><circle cx="37.6" cy="58.3" r="0.3" class="a"/><circle cx="44.5" cy="60" r="0.3" class="a"/><circle cx="37.6" cy="60" r="0.3" class="a"/><circle cx="44.5" cy="61.8" r="0.3" class="a"/><circle cx="37.6" cy="61.8" r="0.3" class="a"/><circle cx="46.3" cy="49.6" r="0.3" class="a"/><circle cx="39.3" cy="49.6" r="0.3" class="a"/><circle cx="46.3" cy="51.3" r="0.3" class="a"/><circle cx="39.3" cy="51.3" r="0.3" class="a"/><circle cx="46.3" cy="53.1" r="0.3" class="a"/><circle cx="39.3" cy="53.1" r="0.3" class="a"/><circle cx="46.3" cy="54.8" r="0.3" class="a"/><circle cx="46.3" cy="63.5" r="0.3" class="a"/><circle cx="39.3" cy="54.8" r="0.3" class="a"/><circle cx="39.3" cy="63.5" r="0.3" class="a"/><circle cx="46.3" cy="56.6" r="0.3" class="a"/><circle cx="39.3" cy="56.6" r="0.3" class="a"/><circle cx="46.3" cy="58.3" r="0.3" class="a"/><circle cx="39.3" cy="58.3" r="0.3" class="a"/><circle cx="46.3" cy="60" r="0.3" class="a"/><circle cx="39.3" cy="60" r="0.3" class="a"/><circle cx="46.3" cy="61.8" r="0.3" class="a"/><circle cx="39.3" cy="61.8" r="0.3" class="a"/><circle cx="48" cy="49.6" r="0.3" class="a"/><circle cx="41.1" cy="49.6" r="0.3" class="a"/><circle cx="48" cy="51.3" r="0.3" class="a"/><circle cx="41.1" cy="51.3" r="0.3" class="a"/><circle cx="48" cy="53.1" r="0.3" class="a"/><circle cx="41.1" cy="53.1" r="0.3" class="a"/><circle cx="48" cy="54.8" r="0.3" class="a"/><circle cx="48" cy="63.5" r="0.3" class="a"/><circle cx="41.1" cy="54.8" r="0.3" class="a"/><circle cx="41.1" cy="63.5" r="0.3" class="a"/><circle cx="48" cy="56.6" r="0.3" class="a"/><circle cx="41.1" cy="56.6" r="0.3" class="a"/><circle cx="48" cy="58.3" r="0.3" class="a"/><circle cx="41.1" cy="58.3" r="0.3" class="a"/><circle cx="48" cy="60" r="0.3" class="a"/><circle cx="41.1" cy="60" r="0.3" class="a"/><circle cx="48" cy="61.8" r="0.3" class="a"/><circle cx="41.1" cy="61.8" r="0.3" class="a"/><circle cx="14.4" cy="84.9" r="0.3" class="a"/><circle cx="7.5" cy="84.9" r="0.3" class="a"/><circle cx="0.6" cy="84.9" r="0.3" class="a"/><circle cx="14.4" cy="86.6" r="0.3" class="a"/><circle cx="7.5" cy="86.6" r="0.3" class="a"/><circle cx="0.6" cy="86.6" r="0.3" class="a"/><circle cx="14.4" cy="88.4" r="0.3" class="a"/><circle cx="7.5" cy="88.4" r="0.3" class="a"/><circle cx="0.6" cy="88.4" r="0.3" class="a"/><circle cx="14.4" cy="90.1" r="0.3" class="a"/><circle cx="14.4" cy="98.8" r="0.3" class="a"/><circle cx="7.5" cy="90.1" r="0.3" class="a"/><circle cx="7.5" cy="98.8" r="0.3" class="a"/><circle cx="0.6" cy="90.1" r="0.3" class="a"/><circle cx="0.6" cy="98.8" r="0.3" class="a"/><circle cx="14.4" cy="91.9" r="0.3" class="a"/><circle cx="7.5" cy="91.9" r="0.3" class="a"/><circle cx="0.6" cy="91.9" r="0.3" class="a"/><circle cx="14.4" cy="93.6" r="0.3" class="a"/><circle cx="7.5" cy="93.6" r="0.3" class="a"/><circle cx="0.6" cy="93.6" r="0.3" class="a"/><circle cx="14.4" cy="95.4" r="0.3" class="a"/><circle cx="7.5" cy="95.4" r="0.3" class="a"/><circle cx="0.6" cy="95.4" r="0.3" class="a"/><circle cx="14.4" cy="97.1" r="0.3" class="a"/><circle cx="7.5" cy="97.1" r="0.3" class="a"/><circle cx="0.6" cy="97.1" r="0.3" class="a"/><circle cx="9.2" cy="84.9" r="0.3" class="a"/><circle cx="2.3" cy="84.9" r="0.3" class="a"/><circle cx="9.2" cy="86.6" r="0.3" class="a"/><circle cx="2.3" cy="86.6" r="0.3" class="a"/><circle cx="9.2" cy="88.4" r="0.3" class="a"/><circle cx="2.3" cy="88.4" r="0.3" class="a"/><circle cx="9.2" cy="90.1" r="0.3" class="a"/><circle cx="9.2" cy="98.8" r="0.3" class="a"/><circle cx="2.3" cy="90.1" r="0.3" class="a"/><circle cx="2.3" cy="98.8" r="0.3" class="a"/><circle cx="9.2" cy="91.9" r="0.3" class="a"/><circle cx="2.3" cy="91.9" r="0.3" class="a"/><circle cx="9.2" cy="93.6" r="0.3" class="a"/><circle cx="2.3" cy="93.6" r="0.3" class="a"/><circle cx="9.2" cy="95.4" r="0.3" class="a"/><circle cx="2.3" cy="95.4" r="0.3" class="a"/><circle cx="9.2" cy="97.1" r="0.3" class="a"/><circle cx="2.3" cy="97.1" r="0.3" class="a"/><circle cx="10.9" cy="84.9" r="0.3" class="a"/><circle cx="4" cy="84.9" r="0.3" class="a"/><circle cx="10.9" cy="86.6" r="0.3" class="a"/><circle cx="4" cy="86.6" r="0.3" class="a"/><circle cx="10.9" cy="88.4" r="0.3" class="a"/><circle cx="4" cy="88.4" r="0.3" class="a"/><circle cx="10.9" cy="90.1" r="0.3" class="a"/><circle cx="10.9" cy="98.8" r="0.3" class="a"/><circle cx="4" cy="90.1" r="0.3" class="a"/><circle cx="4" cy="98.8" r="0.3" class="a"/><circle cx="10.9" cy="91.9" r="0.3" class="a"/><circle cx="4" cy="91.9" r="0.3" class="a"/><circle cx="10.9" cy="93.6" r="0.3" class="a"/><circle cx="4" cy="93.6" r="0.3" class="a"/><circle cx="10.9" cy="95.4" r="0.3" class="a"/><circle cx="4" cy="95.4" r="0.3" class="a"/><circle cx="10.9" cy="97.1" r="0.3" class="a"/><circle cx="4" cy="97.1" r="0.3" class="a"/><circle cx="12.7" cy="84.9" r="0.3" class="a"/><circle cx="5.8" cy="84.9" r="0.3" class="a"/><circle cx="12.7" cy="86.6" r="0.3" class="a"/><circle cx="5.8" cy="86.6" r="0.3" class="a"/><circle cx="12.7" cy="88.4" r="0.3" class="a"/><circle cx="5.8" cy="88.4" r="0.3" class="a"/><circle cx="12.7" cy="90.1" r="0.3" class="a"/><circle cx="12.7" cy="98.8" r="0.3" class="a"/><circle cx="5.8" cy="90.1" r="0.3" class="a"/><circle cx="5.8" cy="98.8" r="0.3" class="a"/><circle cx="12.7" cy="91.9" r="0.3" class="a"/><circle cx="5.8" cy="91.9" r="0.3" class="a"/><circle cx="12.7" cy="93.6" r="0.3" class="a"/><circle cx="5.8" cy="93.6" r="0.3" class="a"/><circle cx="12.7" cy="95.4" r="0.3" class="a"/><circle cx="5.8" cy="95.4" r="0.3" class="a"/><circle cx="12.7" cy="97.1" r="0.3" class="a"/><circle cx="5.8" cy="97.1" r="0.3" class="a"/></svg>