<svg width="100" height="100" viewBox="0 0 1980 5000" xmlns="http://www.w3.org/2000/svg" stroke-linejoin="round">
  <style>
  .a{fill:none;stroke-opacity:0.1;stroke-width:50px;stroke:#274ffc;}
  .b{fill:none;stroke-opacity:0.05;stroke-width:50px;stroke:#B0BEC5;}
  </style>
  <path d="M2154-123c0 0-2029 567-2029 1737 0 1306 1855 886 1855 2192 0 624.6-1006 1194-1006 1194" class="b"/>
  <path d="M2154-123c0 0-1950.9 569.6-2029 1737 -29.6 443 2248 1732.4 1168 2563 -329.7 253.6-319 823-319 823" class="b"/>
  <path d="M2154-123c0 0-2029-65-2029 1105 0 512.9 928.7 776.3 421 1284 -507.7 507.7 1434 746.9 1434 1540 0 624.6-1006 1194-1006 1194" class="b"/>
  <path d="M2154-123c0 0-1954 291-1954 1461 0 1170 1540 1269 1540 2574 0 720-766 1088-766 1088" class="b"/>
  <path d="M2154-123c0 0-1790 318-1790 1488 0 1170 1409 686 1409 1991 0 720-799 1644-799 1644" class="b"/>
  <path d="M2154-123c0 0-2105 316-2105 1486 0 1306 1876 761 1876 2067 0 624.6-951 1570-951 1570" class="a"/>
</svg>