<?xml version="1.0" encoding="UTF-8" standalone="no"?><!DOCTYPE svg PUBLIC "-//W3C//DTD SVG 1.1//EN" "http://www.w3.org/Graphics/SVG/1.1/DTD/svg11.dtd"><svg width="100%" height="100%" viewBox="0 0 180 50" version="1.1" xmlns="http://www.w3.org/2000/svg" xmlns:xlink="http://www.w3.org/1999/xlink" xml:space="preserve" xmlns:serif="http://www.serif.com/" style="fill-rule:evenodd;clip-rule:evenodd;stroke-linejoin:round;stroke-miterlimit:2;"><path d="M66.586,10.683l0.702,-0.045l0,-3.485l-7.433,0.044l-4.937,-0.044l-0.002,0.796c1.838,0.062 2.264,0.122 2.264,1.76l0,9.382c0,1.978 -0.256,2.262 -2.264,2.262l0,0.8l5.416,-0.043l7.03,0.042c0.249,-1.151 0.703,-2.625 1.043,-3.57l-0.753,-0.134c-0.904,2.2 -2.025,2.563 -4.306,2.667l-1.25,0c-2.252,0 -2.331,-0.491 -2.331,-2.812l0,-3.355l2.426,0c1.85,0 2.473,0.124 2.473,2.028l0.731,0l-0.052,-1.446l-0.049,-1.024c0,-0.731 0.061,-2.123 0.11,-2.603l-0.724,0c-0.184,1.523 -0.315,1.928 -1.893,1.928l-3.022,0l0,-5.64l3.107,0c2.427,0 3.382,0.641 3.714,2.492Z" style="fill:#999;fill-rule:nonzero;"/><path d="M69.271,13.083c0.912,0.209 1.342,0.669 1.342,1.443l0,6.134c0,0.616 -0.284,0.64 -0.987,0.64l-0.541,0l0,0.854l2.625,-0.048l2.582,0.048l-0.003,-0.854l-0.542,0c-0.716,0 -1.032,-0.025 -1.032,-0.64l0,-6.78c0.811,-0.532 1.899,-0.946 2.561,-0.946c1.085,0 2.005,0.43 2.005,1.953l0,5.773c0,0.616 -0.285,0.64 -0.987,0.64l-0.542,0l0,0.854l2.625,-0.048l2.582,0.048l-0.003,-0.854l-0.541,0c-0.716,0 -1.034,-0.025 -1.034,-0.64l0,-5.971c0,-2.305 -1.183,-3.367 -2.785,-3.367c-1.413,0 -2.522,0.742 -3.881,1.622l0,-1.375c0,-0.289 -0.221,-0.262 -0.306,-0.226c-0.849,0.369 -2.219,0.853 -3.138,1.125l0,0.615Z" style="fill:#999;fill-rule:nonzero;"/><path d="M160.832,13.083c0.912,0.209 1.343,0.669 1.343,1.443l0,6.134c0,0.616 -0.285,0.64 -0.987,0.64l-0.541,0l0,0.854l2.626,-0.048l2.58,0.048l-0.002,-0.854l-0.542,0c-0.716,0 -1.032,-0.025 -1.032,-0.64l0,-6.78c0.809,-0.532 1.898,-0.946 2.56,-0.946c1.085,0 2.006,0.43 2.006,1.953l0,5.773c0,0.616 -0.286,0.64 -0.987,0.64l-0.542,0l0,0.854l2.625,-0.048l2.581,0.048l-0.002,-0.854l-0.54,0c-0.717,0 -1.035,-0.025 -1.035,-0.64l0,-5.971c0,-2.305 -1.183,-3.367 -2.787,-3.367c-1.413,0 -2.521,0.742 -3.879,1.622l0,-1.375c0,-0.289 -0.222,-0.262 -0.306,-0.226c-0.849,0.369 -2.221,0.853 -3.139,1.125l0,0.615Z" style="fill:#999;fill-rule:nonzero;"/><path d="M119.275,13.083c0.913,0.209 1.342,0.669 1.342,1.443l0,6.134c0,0.616 -0.287,0.64 -0.987,0.64l-0.539,0l0,0.854l2.623,-0.048l2.581,0.048l-0.003,-0.854l-0.541,0c-0.716,0 -1.032,-0.025 -1.032,-0.64l0,-6.78c0.809,-0.532 1.897,-0.946 2.559,-0.946c1.088,0 2.006,0.43 2.006,1.953l0,5.773c0,0.616 -0.286,0.64 -0.986,0.64l-0.543,0l0,0.854l2.627,-0.048l2.579,0.048l-0.002,-0.854l-0.54,0c-0.718,0 -1.033,-0.025 -1.033,-0.64l0,-5.971c0,-2.305 -1.185,-3.367 -2.786,-3.367c-1.412,0 -2.523,0.742 -3.881,1.622l0,-1.375c0,-0.289 -0.223,-0.262 -0.307,-0.226c-0.848,0.369 -2.218,0.853 -3.137,1.125l0,0.615Z" style="fill:#999;fill-rule:nonzero;"/><path d="M91.876,12.522l0,-0.855l-2.283,0.049l-1.922,-0.049l-0.002,0.843c0.382,0 0.663,0.021 0.864,0.063c0.292,0.062 0.422,0.292 0.422,0.613c0,0.321 -0.162,0.874 -0.455,1.573l-1.931,4.467l-1.981,-4.967c-0.402,-0.951 -0.381,-1.404 0.05,-1.641c0.118,-0.065 0.552,-0.096 0.941,-0.096l0,-0.854l-2.717,0.048l-2.615,-0.049l-0.002,0.855c0.881,0 1.224,0 1.921,1.702l3.411,8.275l0.803,0l3.611,-8.389c0.424,-0.988 0.783,-1.588 1.885,-1.588Z" style="fill:#999;fill-rule:nonzero;"/><path d="M92.625,12.304l0,0.538c0.657,0.192 1.204,0.647 1.204,1.545l0,6.273c0,0.616 -0.285,0.64 -0.986,0.64l-0.565,0l0,0.854l2.649,-0.048l2.557,0.048l0,-0.854l-0.522,0c-0.715,0 -1.032,-0.025 -1.032,-0.64l0,-8.889c0,-0.459 -0.249,-0.494 -0.581,-0.344c-0.556,0.249 -1.846,0.637 -2.724,0.877Z" style="fill:#999;fill-rule:nonzero;"/><path d="M93.621,8.057c0,0.671 0.6,1.282 1.257,1.282c0.684,0 1.262,-0.587 1.262,-1.282c0,-0.682 -0.565,-1.237 -1.262,-1.237c-0.657,0 -1.257,0.589 -1.257,1.237Z" style="fill:#999;fill-rule:nonzero;"/><path d="M98.82,13.197c0.796,0.209 1.203,0.518 1.203,1.404l0,6.059c0,0.616 -0.285,0.64 -0.986,0.64l-0.751,0l0,0.854l2.881,-0.048l2.561,0.034l0.804,0.014l0,-0.854l-1.42,0c-0.702,0 -0.988,-0.024 -0.988,-0.64l0,-5.44c0,-1.326 1.248,-1.795 1.567,-1.795c0.377,0 0.553,0.128 0.743,0.266c0.194,0.142 0.396,0.289 0.786,0.289c0.678,0 1.213,-0.574 1.213,-1.305c0,-0.934 -0.845,-1.353 -1.445,-1.353c-0.984,0 -2.176,0.861 -2.884,1.937l0,-1.622c0,-0.358 -0.258,-0.389 -0.554,-0.225c-0.5,0.278 -1.93,0.972 -2.725,1.275l-0.005,0.51Z" style="fill:#999;fill-rule:nonzero;"/><path d="M109.292,16.726c0,-2.124 0.93,-4.441 3.183,-4.441c2.282,0 3.236,2.531 3.236,4.81c0,2.127 -0.935,4.441 -3.204,4.441c-2.268,0 -3.215,-2.529 -3.215,-4.81Zm-2.38,0.231c0,3.508 2.299,5.542 5.617,5.542c3.004,0 5.56,-2.232 5.56,-5.635c0,-3.559 -2.252,-5.542 -5.638,-5.542c-3.043,0 -5.539,2.18 -5.539,5.635Z" style="fill:#999;fill-rule:nonzero;"/><path d="M141.734,13.043c-0.366,-1.101 -1.238,-1.721 -2.508,-1.721c-1.607,0 -2.648,0.742 -3.852,1.601c0,0 -0.021,0.015 -0.027,0.019l0,-1.171c0,-0.405 -0.324,-0.572 -0.768,-0.315c-0.104,0.061 -1.421,0.513 -2.539,0.848l0,0.538c0.705,0.207 1.204,0.647 1.204,1.545l0,6.273c0,0.616 -0.284,0.64 -0.985,0.64l-0.613,0l0,0.855l2.697,-0.049l2.58,0.048l-0.003,-0.854l-0.541,0c-0.716,0 -1.032,-0.025 -1.032,-0.64l0,-6.782c0.638,-0.436 1.818,-1.055 2.606,-1.055c1.325,0 1.891,0.813 1.891,2.723l0,5.114c0,0.616 -0.284,0.64 -0.988,0.64l-0.542,0l0,0.854l2.626,-0.048l2.602,0.048l0,-0.854l-0.542,0c-0.713,0 -1.056,-0.026 -1.056,-0.64l0,-6.782c0.639,-0.436 1.819,-1.055 2.608,-1.055c1.323,0 1.887,0.813 1.887,2.723l0,5.114c0,0.616 -0.285,0.64 -0.987,0.64l-0.54,0l0,0.854l2.625,-0.048l2.513,0.048l-0.003,-0.854l-0.474,0c-0.715,0 -1.031,-0.025 -1.031,-0.64l0,-5.948c0,-2.122 -1.076,-3.39 -2.879,-3.39c-1.453,0 -2.97,0.987 -3.929,1.721Z" style="fill:#999;fill-rule:nonzero;"/><path d="M152.999,14.772c0.306,-1.534 1.221,-2.458 2.497,-2.458c1.149,0 1.889,0.787 1.889,2.004c0,0.271 -0.163,0.454 -0.524,0.454l-3.862,0Zm6.31,0.989l0.303,-0.382c0,-2.831 -2.034,-4.057 -4.025,-4.057c-1.928,0 -4.8,1.6 -4.8,6.005c0,1.789 0.95,5.172 4.546,5.172c2.105,0 3.448,-1.425 4.383,-2.665l-0.512,-0.489c-1.048,1.049 -1.984,1.516 -3.038,1.516c-1.728,0 -3.137,-1.671 -3.276,-3.888c-0.024,-0.393 -0.036,-0.674 -0.036,-0.881c0,-0.154 0.012,-0.241 0.023,-0.331l6.432,0Z" style="fill:#999;fill-rule:nonzero;"/><path d="M91.606,33.064c0.912,0.208 1.343,0.669 1.343,1.442l0,6.136c0,0.614 -0.285,0.639 -0.988,0.639l-0.541,0l0,0.854l2.625,-0.049l2.582,0.049l-0.002,-0.854l-0.542,0c-0.716,0 -1.033,-0.027 -1.033,-0.639l0,-6.782c0.811,-0.532 1.899,-0.946 2.561,-0.946c1.086,0 2.005,0.43 2.005,1.953l0,5.775c0,0.614 -0.285,0.639 -0.987,0.639l-0.542,0l0,0.854l2.625,-0.049l2.582,0.049l-0.003,-0.854l-0.541,0c-0.716,0 -1.032,-0.027 -1.032,-0.639l0,-5.974c0,-2.303 -1.185,-3.365 -2.787,-3.365c-1.414,0 -2.523,0.742 -3.881,1.621l0,-1.375c0,-0.289 -0.22,-0.263 -0.306,-0.226c-0.848,0.369 -2.218,0.853 -3.138,1.125l0,0.616Z" style="fill:#999;fill-rule:nonzero;"/><path d="M83.885,34.752c0.305,-1.533 1.221,-2.459 2.495,-2.459c1.148,0 1.89,0.789 1.89,2.006c0,0.271 -0.164,0.453 -0.524,0.453l-3.861,0Zm6.308,0.99l0.304,-0.382c0,-2.832 -2.035,-4.057 -4.024,-4.057c-1.93,0 -4.802,1.6 -4.802,6.005c0,1.788 0.951,5.172 4.548,5.172c2.103,0 3.447,-1.425 4.382,-2.666l-0.513,-0.489c-1.047,1.048 -1.983,1.515 -3.036,1.515c-1.728,0 -3.139,-1.67 -3.279,-3.888c-0.023,-0.391 -0.035,-0.673 -0.035,-0.88c0,-0.154 0.012,-0.242 0.026,-0.33l6.429,0Z" style="fill:#999;fill-rule:nonzero;"/><path d="M172.554,12.391l0,0.557l1.527,0l0,7.272c0,1.471 0.825,2.279 2.323,2.279c1.078,0 2.116,-0.526 3.169,-1.612l-0.518,-0.528c-0.53,0.461 -0.961,0.641 -1.539,0.641c-0.313,0 -1.333,-0.132 -1.333,-1.822l0,-6.23l3.338,0l0,-1.277l-3.338,0l0,-2.333l-0.508,0c-1.056,1.675 -2.211,2.508 -3.121,3.053Z" style="fill:#999;fill-rule:nonzero;"/><path d="M61.465,29.928l2.4,5.683l-4.575,0l2.175,-5.683Zm0.747,-3.071c-0.314,0.445 -1.217,0.893 -1.522,1.005c0.222,0.761 0.082,1.246 -0.368,2.364c-0.008,0.018 -3.311,7.987 -3.311,7.987c-0.228,0.576 -0.465,1.174 -0.749,1.729c-0.579,1.118 -0.927,1.344 -2.231,1.415l0,0.776l2.918,-0.043l2.958,0.043l-0.001,-0.789l-0.851,0.016c-0.852,-0.037 -1.334,-0.117 -1.334,-0.865c0,-0.631 0.356,-1.622 0.642,-2.42l0.497,-1.366l5.47,0l1.168,2.924c0.17,0.397 0.374,0.955 0.351,1.153c-0.046,0.408 -0.402,0.558 -1.196,0.558l-0.556,0l0,0.791l3.63,-0.045l2.775,0.043l-0.002,-0.789c-0.595,0 -1.313,-0.021 -1.766,-0.517c-0.301,-0.329 -0.755,-1.509 -1.097,-2.362l-4.868,-11.608l-0.557,0Z" style="fill:#999;fill-rule:nonzero;"/><path d="M73.374,34.668c0,-1.211 0.71,-2.513 2.023,-2.513c1.483,0 2.148,1.461 2.148,2.907c0,1.249 -0.556,2.584 -2.119,2.584c-1.41,0 -2.052,-1.248 -2.052,-2.978Zm-0.81,9.516c0,-2.053 2.238,-2.053 3.718,-2.053c2.084,0 3.139,0.59 3.139,1.75c0,2.082 -2.836,2.539 -3.927,2.539c-1.351,0 -2.93,-0.586 -2.93,-2.236Zm-0.974,-5.135c-0.184,0.24 -0.295,0.658 -0.295,0.92c0,1.015 0.897,1.678 1.827,2.017c-1.309,0.299 -2.498,1.19 -2.498,2.707c0,1.608 1.546,2.716 4.501,2.716c4.89,0 6.259,-3.079 6.259,-4.458c0,-1.68 -1.091,-2.574 -3.297,-2.574c-0.579,0 -2.446,0.004 -3.194,-0.022c-1.494,-0.05 -1.495,-0.708 -1.495,-0.943c0,-0.492 0.301,-0.77 0.604,-1.048c0.434,0.084 0.882,0.132 1.238,0.132c2.894,0 4.407,-1.855 4.407,-3.689c0,-0.59 -0.201,-1.157 -0.512,-1.625c0.356,0.015 2.201,0.088 2.201,0.088l0,-1.385c-0.625,0.095 -1.08,0.135 -1.466,0.135c-0.865,0 -1.547,-0.197 -2.141,-0.369c-0.704,-0.203 -1.548,-0.348 -2.142,-0.348c-2.706,0 -4.454,1.447 -4.454,3.689c0,1.348 0.66,2.303 2.086,3.09l-1.629,0.967Z" style="fill:#999;fill-rule:nonzero;"/><path d="M112.681,39.441c-0.929,0.721 -1.682,1.11 -2.803,1.108c-2.746,-0.004 -3.783,-1.784 -3.792,-4.432c-0.006,-1.793 1.305,-3.699 2.945,-3.684c1.212,0.01 1.563,0.512 1.965,1.052c0.274,0.361 0.53,0.705 0.97,0.708c0.644,0.005 0.972,-0.558 0.963,-1.118c-0.013,-1.03 -1.324,-1.698 -3.285,-1.716c-3.214,-0.032 -5.637,2.548 -5.637,6.047c0,2.885 2.09,5.008 4.698,5.008c1.955,0 3.515,-1.166 4.535,-2.396l-0.559,-0.577Z" style="fill:#999;fill-rule:nonzero;"/><path d="M118.31,41.637c-0.077,0.203 -0.556,1.447 -1.541,3.548c-0.284,-0.218 -0.533,-0.293 -0.896,-0.293c-0.707,0 -1.235,0.678 -1.235,1.282c0,0.705 0.541,1.235 1.258,1.235c0.73,0 1.236,-0.391 1.597,-1.233l5.232,-12.27c0.419,-0.968 0.851,-1.423 1.839,-1.402l0,-0.858l-1.862,0.05l-2.285,-0.047l-0.016,0.853c0.333,0 0.598,0.015 0.801,0.073c0.337,0.097 0.496,0.314 0.496,0.774c0,0.135 -0.091,0.438 -0.237,0.84l-1.941,4.741l-1.911,-4.801c-0.193,-0.481 -0.366,-0.935 -0.338,-1.127c0.036,-0.24 0.18,-0.369 0.459,-0.436c0.202,-0.05 0.472,-0.068 0.818,-0.075l-0.003,-0.843l-2.209,0.048l-2.81,-0.048l0,0.867c0.159,0.007 0.383,-0.007 0.548,0.032c0.414,0.101 0.748,0.32 0.927,0.746l3.309,8.344Z" style="fill:#999;fill-rule:nonzero;"/><path d="M18.946,48.962c1.887,0.459 3.855,0.697 5.883,0.697c2.274,0 4.476,-0.306 6.568,-0.878c-1.885,-4.497 -6.185,-12.639 -6.185,-12.639c0,0 -4.45,8.39 -6.266,12.82Zm5.883,-48.962c-13.713,0 -24.829,11.116 -24.829,24.83c0,10.51 6.532,19.498 15.758,23.12c2.103,-5.685 4.63,-11.362 6.071,-14.436c-0.123,-2.067 -0.374,-3.949 -0.624,-5.42c-5.703,-1.408 -9.748,-5.305 -9.748,-5.305l1.623,-2.396c0,0 5.528,4.45 12.113,4.45c6.584,0 12.11,-4.449 12.11,-4.449l1.626,2.395c0,0 -4.052,3.904 -9.763,5.307c-0.246,1.447 -0.494,3.291 -0.619,5.316c1.412,3.006 3.902,8.627 6.002,14.272c8.882,-3.783 15.109,-12.592 15.109,-22.854c0,-13.714 -11.116,-24.83 -24.829,-24.83Zm-5.463,10.11c-0.682,-1.075 -1.874,-1.797 -3.242,-1.82c-2.167,-0.04 -3.953,1.687 -3.99,3.85c-0.005,0.216 0.01,0.427 0.038,0.632c1.202,0.308 3.196,1.627 3.3,4.268c-1.086,-1.436 -2.061,-1.886 -3.711,-2.031c-2.352,-0.207 -4.368,1.856 -4.407,4.158c-0.017,0.895 0.252,1.729 0.72,2.415c-1.088,0.966 -1.785,2.369 -1.812,3.939c-0.053,2.979 1.486,5.1 4.054,5.559c1.41,0.25 3.736,-0.08 5.087,-1.596c-1.222,2.565 -3.416,3.565 -5.632,3.589c-3.655,0.043 -6.526,-3.214 -6.463,-6.868c0.035,-1.969 0.926,-3.726 2.314,-4.913c-0.467,-0.862 -0.725,-1.854 -0.706,-2.905c0.051,-2.922 2.225,-5.31 5.028,-5.717c-0.012,-0.187 -0.019,-0.376 -0.016,-0.566c0.06,-3.384 2.849,-6.081 6.232,-6.02c1.094,0.019 2.117,0.323 2.996,0.84c1.046,-1.071 2.514,-1.724 4.13,-1.696c2.768,0.048 5.035,2.083 5.465,4.72c-1.056,-1.345 -2.686,-2.22 -4.528,-2.252c-1.989,-0.035 -3.765,0.921 -4.857,2.414Zm24.234,15.83c0.67,-1.756 0.572,-3.79 -0.438,-5.547c-1.094,-1.894 -3.001,-3.028 -5.028,-3.21c0.334,-1.404 0.452,-2.695 -0.118,-4.089c-0.994,-2.417 -4.279,-3.549 -6.515,-2.659c3.049,-2.162 7.029,-1.739 8.735,1.361c0.523,0.947 0.773,2.263 0.785,3.383c1.601,0.382 3.047,1.396 3.937,2.935c1.521,2.636 0.885,5.923 -1.358,7.826Zm-15.329,-4.993c0.076,-0.236 0.12,-0.488 0.12,-0.753c0,-1.287 -0.99,-2.329 -2.213,-2.329c-1.219,0 -2.209,1.042 -2.209,2.329c0,1.287 0.99,2.329 2.209,2.329c0.073,0 0.143,-0.004 0.214,-0.012c-0.171,0.061 -0.35,0.109 -0.535,0.144c-1.95,0.363 -3.81,-1.01 -4.154,-3.062c-0.343,-2.056 0.959,-4.012 2.911,-4.374c1.948,-0.362 3.807,1.008 4.152,3.062c0.162,0.962 -0.038,1.903 -0.495,2.666Z" style="fill:#999;fill-rule:nonzero;"/></svg>