<?xml version="1.0" encoding="UTF-8" standalone="no"?><!DOCTYPE svg PUBLIC "-//W3C//DTD SVG 1.1//EN" "http://www.w3.org/Graphics/SVG/1.1/DTD/svg11.dtd"><svg width="100%" height="100%" viewBox="0 0 827 387" version="1.1" xmlns="http://www.w3.org/2000/svg" xmlns:xlink="http://www.w3.org/1999/xlink" xml:space="preserve" xmlns:serif="http://www.serif.com/" style="fill-rule:evenodd;clip-rule:evenodd;stroke-miterlimit:10;"><path d="M363.223,9.276l-40.971,40.97l0,2.875l43.841,-43.845l-2.87,0Z" style="fill:#cdcccc;fill-rule:nonzero;"/><path d="M421.265,9.276l-99.017,99.016l0,2.871l101.888,-101.887l-2.871,0Z" style="fill:#cdcccc;fill-rule:nonzero;"/><path d="M479.308,9.276l-157.059,157.058l0,2.871l159.929,-159.929l-2.87,0Z" style="fill:#cdcccc;fill-rule:nonzero;"/><path d="M537.348,9.276l-215.096,215.095l0,2.875l217.966,-217.97l-2.87,0Z" style="fill:#cdcccc;fill-rule:nonzero;"/><path d="M595.389,9.276l-273.138,273.137l0,2.875l276.013,-276.012l-2.875,0Z" style="fill:#cdcccc;fill-rule:nonzero;"/><path d="M653.431,9.276l-331.183,331.179l0,2.875l334.054,-334.054l-2.871,0Z" style="fill:#cdcccc;fill-rule:nonzero;"/><path d="M711.474,9.276l-367.517,367.516l2.871,0l367.517,-367.516l-2.871,0Z" style="fill:#cdcccc;fill-rule:nonzero;"/><path d="M769.516,9.276l-367.516,367.516l2.87,0l367.517,-367.516l-2.871,0Z" style="fill:#cdcccc;fill-rule:nonzero;"/><path d="M460.04,376.791l2.871,0l362.792,-362.792l0,-2.871l-365.663,365.663Z" style="fill:#cdcccc;fill-rule:nonzero;"/><path d="M518.082,376.791l2.871,0l304.75,-304.75l0,-2.871l-307.621,307.621Z" style="fill:#cdcccc;fill-rule:nonzero;"/><path d="M576.124,376.791l2.871,0l246.708,-246.708l0,-2.871l-249.579,249.579Z" style="fill:#cdcccc;fill-rule:nonzero;"/><path d="M634.164,376.791l2.875,0l188.662,-188.663l0,-2.875l-191.537,191.538Z" style="fill:#cdcccc;fill-rule:nonzero;"/><path d="M692.206,376.791l2.871,0l130.625,-130.625l0,-2.871l-133.496,133.496Z" style="fill:#cdcccc;fill-rule:nonzero;"/><path d="M750.249,376.791l2.871,0l72.583,-72.583l0,-2.871l-75.454,75.454Z" style="fill:#cdcccc;fill-rule:nonzero;"/><path d="M808.291,376.791l2.871,0l14.542,-14.538l0,-2.875l-17.413,17.413Z" style="fill:#cdcccc;fill-rule:nonzero;"/><path d="M333.766,9.276l-11.516,11.516l0,2.871l14.387,-14.387l-2.871,0Z" style="fill:#cdcccc;fill-rule:nonzero;"/><path d="M391.806,9.276l-69.554,69.554l0,2.875l72.429,-72.429l-2.875,0Z" style="fill:#cdcccc;fill-rule:nonzero;"/><path d="M449.848,9.276l-127.596,127.595l0,2.875l130.471,-130.47l-2.875,0Z" style="fill:#cdcccc;fill-rule:nonzero;"/><path d="M507.89,9.276l-185.642,185.641l0,2.871l188.513,-188.512l-2.871,0Z" style="fill:#cdcccc;fill-rule:nonzero;"/><path d="M565.933,9.276l-243.684,243.683l0,2.871l246.554,-246.554l-2.87,0Z" style="fill:#cdcccc;fill-rule:nonzero;"/><path d="M623.975,9.276l-301.725,301.725l0,2.87l304.596,-304.595l-2.871,0Z" style="fill:#cdcccc;fill-rule:nonzero;"/><path d="M682.018,9.276l-359.767,359.766l0,2.875l362.637,-362.641l-2.87,0Z" style="fill:#cdcccc;fill-rule:nonzero;"/><path d="M740.058,9.276l-367.516,367.516l2.871,0l367.516,-367.516l-2.871,0Z" style="fill:#cdcccc;fill-rule:nonzero;"/><path d="M798.099,9.276l-367.517,367.516l2.875,0l367.517,-367.516l-2.875,0Z" style="fill:#cdcccc;fill-rule:nonzero;"/><path d="M488.623,376.791l2.87,0l334.209,-334.208l0,-2.871l-337.079,337.079Z" style="fill:#cdcccc;fill-rule:nonzero;"/><path d="M546.665,376.791l2.871,0l276.167,-276.167l0,-2.871l-279.038,279.038Z" style="fill:#cdcccc;fill-rule:nonzero;"/><path d="M604.708,376.791l2.87,0l218.125,-218.121l0,-2.875l-220.995,220.996Z" style="fill:#cdcccc;fill-rule:nonzero;"/><path d="M662.75,376.791l2.871,0l160.083,-160.079l0,-2.875l-162.954,162.954Z" style="fill:#cdcccc;fill-rule:nonzero;"/><path d="M720.792,376.791l2.871,0l102.041,-102.038l0,-2.875l-104.912,104.913Z" style="fill:#cdcccc;fill-rule:nonzero;"/><path d="M778.834,376.791l2.871,0l43.996,-43.996l0,-2.875l-46.867,46.871Z" style="fill:#cdcccc;fill-rule:nonzero;"/><rect x="13.718" y="58.106" width="745.775" height="272.183" style="fill:#fff;"/><rect x="14.13" y="62.752" width="2.321" height="85.858" style="fill:#666766;"/><rect x="14.13" y="58.102" width="2.321" height="0.125" style="fill:#666766;"/><rect x="14.13" y="243.515" width="2.321" height="85.862" style="fill:#666766;"/><rect x="14.13" y="333.894" width="2.321" height="0.371" style="fill:#666766;"/><rect x="14.13" y="153.136" width="2.321" height="85.858" style="fill:#666766;"/><rect x="104.664" y="62.748" width="4.642" height="85.863" style="fill:#666766;"/><rect x="104.664" y="153.131" width="4.642" height="85.862" style="fill:#666766;"/><rect x="104.664" y="333.894" width="4.642" height="0.371" style="fill:#666766;"/><rect x="104.664" y="243.515" width="4.642" height="85.862" style="fill:#666766;"/><rect x="104.664" y="58.102" width="4.642" height="0.125" style="fill:#666766;"/><path d="M197.461,244.701l0.113,-91.573l4.646,0.005l-0.113,91.574l-4.646,-0.006Z" style="fill:#666766;"/><rect x="197.518" y="62.748" width="4.642" height="85.863" style="fill:#666766;"/><rect x="197.518" y="243.515" width="4.642" height="85.862" style="fill:#666766;"/><rect x="197.518" y="333.894" width="4.642" height="0.371" style="fill:#666766;"/><rect x="197.518" y="58.102" width="4.642" height="0.125" style="fill:#666766;"/><rect x="290.372" y="58.102" width="4.642" height="0.125" style="fill:#666766;"/><rect x="290.372" y="62.748" width="4.642" height="85.863" style="fill:#666766;"/><rect x="290.372" y="243.515" width="4.642" height="85.862" style="fill:#666766;"/><rect x="290.372" y="333.894" width="4.642" height="0.371" style="fill:#666766;"/><rect x="290.372" y="153.131" width="4.642" height="85.862" style="fill:#666766;"/><rect x="383.226" y="153.131" width="4.642" height="85.862" style="fill:#666766;"/><rect x="383.226" y="58.102" width="4.642" height="0.125" style="fill:#666766;"/><rect x="383.226" y="333.894" width="4.642" height="0.371" style="fill:#666766;"/><rect x="383.226" y="243.515" width="4.642" height="85.862" style="fill:#666766;"/><rect x="383.226" y="62.748" width="4.642" height="85.863" style="fill:#666766;"/><rect x="476.076" y="153.131" width="4.642" height="85.862" style="fill:#666766;"/><rect x="476.076" y="243.515" width="4.642" height="85.862" style="fill:#666766;"/><rect x="476.08" y="333.894" width="4.642" height="0.371" style="fill:#666766;"/><rect x="476.076" y="62.748" width="4.642" height="85.863" style="fill:#666766;"/><rect x="476.08" y="58.102" width="4.642" height="0.125" style="fill:#666766;"/><rect x="568.93" y="62.748" width="4.642" height="85.863" style="fill:#666766;"/><rect x="568.93" y="58.102" width="4.642" height="0.125" style="fill:#666766;"/><rect x="568.93" y="243.515" width="4.642" height="85.862" style="fill:#666766;"/><rect x="568.93" y="333.894" width="4.642" height="0.371" style="fill:#666766;"/><rect x="568.93" y="153.131" width="4.642" height="85.862" style="fill:#666766;"/><rect x="661.78" y="58.102" width="4.642" height="0.125" style="fill:#666766;"/><rect x="661.785" y="153.131" width="4.642" height="85.862" style="fill:#666766;"/><rect x="661.78" y="333.894" width="4.642" height="0.371" style="fill:#666766;"/><rect x="661.785" y="243.515" width="4.642" height="85.862" style="fill:#666766;"/><rect x="661.785" y="62.748" width="4.642" height="85.863" style="fill:#666766;"/><rect x="754.635" y="333.894" width="4.642" height="0.371" style="fill:#666766;"/><rect x="754.635" y="58.102" width="4.642" height="0.125" style="fill:#666766;"/><rect x="754.635" y="153.136" width="4.642" height="85.858" style="fill:#666766;"/><rect x="754.635" y="62.752" width="4.642" height="85.858" style="fill:#666766;"/><rect x="754.635" y="243.515" width="4.642" height="85.862" style="fill:#666766;"/><path d="M759.279,329.375l-4.642,0l-88.212,0l-4.642,0l-88.208,0l-4.642,0l-88.213,0l-4.641,0l-88.213,0l-4.641,0l-88.213,0l-4.642,0l-88.208,0l-4.646,0l-88.208,0l-4.646,0l-88.208,0l-2.321,0l0,4.517l745.987,0l0,-4.517l-0.841,0Z" style="fill:#666766;fill-rule:nonzero;"/><path d="M759.279,238.993l-4.642,0l-88.212,0l-4.642,0l-88.208,0l-4.642,0l-88.213,0l-4.641,0l-88.213,0l-4.641,0l-88.213,0l-4.642,0l-88.208,0l-4.646,0l-88.208,0l-4.646,0l-88.208,0l-2.321,0l0,4.517l745.987,0l0,-4.517l-0.841,0Z" style="fill:#666766;fill-rule:nonzero;"/><path d="M759.279,148.61l-4.642,0l-88.212,0l-4.642,0l-88.208,0l-4.642,0l-88.213,0l-4.641,0l-88.213,0l-4.641,0l-88.213,0l-4.642,0l-88.208,0l-4.646,0l-88.208,0l-4.646,0l-88.208,0l-2.321,0l0,4.521l745.987,0l0,-4.521l-0.841,0Z" style="fill:#666766;fill-rule:nonzero;"/><path d="M759.279,58.228l-4.642,0l-88.212,0l-4.642,0l-88.208,0l-4.642,0l-88.213,0l-4.641,0l-88.213,0l-4.641,0l-88.213,0l-4.642,0l-88.208,0l-4.646,0l-88.208,0l-4.646,0l-88.208,0l-2.321,0l0,4.521l745.987,0l0,-4.521l-0.841,0Z" style="fill:#666766;fill-rule:nonzero;"/><rect x="104.497" y="58.231" width="97.662" height="94.9" style="fill:#a52052;"/><rect x="289.91" y="148.736" width="97.662" height="94.9" style="fill:#a52052;"/><rect x="13.718" y="60.094" width="745.775" height="272.183" style="fill:none;stroke:#030404;stroke-width:2.73px;"/><rect x="476.314" y="60.865" width="97.662" height="94.9" style="fill:#a52052;"/><path d="M571.889,341.893c11.221,3.246 15.104,1.959 20.892,-6.4c4.233,-6.116 8.537,-12.183 12.8,-18.279c22.5,-32.171 45.037,-64.316 67.429,-96.562c2.254,-3.246 4.663,-4.621 8.654,-4.563c14.484,0.217 28.975,0.25 43.459,0.046c17.525,-0.254 33.895,-5.2 49.05,-13.75c12.65,-7.137 12.37,-11.871 -0.634,-18.829c-16.108,-8.625 -33.146,-13.675 -51.641,-13.329c-13.03,0.241 -26.08,-0.238 -39.105,0.158c-4.845,0.15 -7.683,-1.75 -10.216,-5.379c-26.496,-37.95 -53.046,-75.854 -79.563,-113.788c-6.075,-8.687 -9.516,-9.883 -21.204,-6.85c14.129,42.463 28.25,84.896 42.538,127.85c-29.821,3.663 -58.742,7.271 -87.696,10.617c-1.746,0.2 -4.404,-1.217 -5.509,-2.712c-7.22,-9.809 -14.666,-19.525 -20.954,-29.93c-3.812,-6.32 -8.412,-5.937 -14.454,-4.925c0.329,1.671 0.496,3.063 0.888,4.388c3.162,10.708 6.204,21.454 9.641,32.071c1.25,3.858 0.529,5.675 -3.446,6.716c-4.012,1.05 -7.862,2.7 -13.558,4.717c7.25,2.567 12.588,4.454 18.308,6.479c-4.17,14.129 -8.166,27.679 -12.191,41.309c10.091,1.654 10.475,1.366 15.237,-5.546c6.563,-9.529 13.488,-18.809 19.921,-28.421c2.221,-3.325 4.613,-3.933 8.317,-3.454c22.154,2.85 44.341,5.458 66.512,8.191c6.054,0.746 12.088,1.638 18.992,2.575c-14.342,43.088 -28.4,85.334 -42.467,127.6m-88.529,-135.02c-5.183,-1.755 -9.462,-3.209 -13.75,-4.646c-4.154,-1.392 -6.767,-4.2 -6.821,-8.617c-0.062,-4.533 1.967,-7.967 6.617,-9.358c0.392,-0.117 0.746,-0.359 1.133,-0.509c12.75,-4.979 12.746,-4.975 8.784,-17.925c-1.934,-6.329 -4.009,-12.62 -5.738,-19.004c-2.233,-8.254 1.588,-12.933 10.05,-13.958c12.483,-1.504 21.979,1.546 28.163,13.637c3.82,7.471 9.425,14.067 14.57,20.788c1.267,1.658 4.013,3.408 5.863,3.204c21.392,-2.358 42.742,-5.083 64.096,-7.746c0.566,-0.071 1.091,-0.516 2.179,-1.058c-0.625,-2.083 -1.2,-4.217 -1.896,-6.308c-11.95,-35.913 -23.933,-71.813 -35.862,-107.734c-3.709,-11.162 0.112,-14.779 11.654,-16.462c17.254,-2.513 26.071,6.262 34.771,19.271c23.195,34.695 47.512,68.641 71.312,102.937c2.683,3.871 5.708,5.729 10.746,5.542c11.783,-0.442 23.592,-0.146 35.392,-0.142c20.595,0.004 39.625,5.829 57.191,16.225c17.584,10.408 18.279,23.596 1.554,35.054c-16.4,11.229 -35.083,16.584 -54.879,17.338c-13.437,0.512 -26.912,0.271 -40.362,0.016c-4.259,-0.083 -6.713,1.434 -9.1,4.871c-27.238,39.217 -54.563,78.375 -82.171,117.329c-1.8,2.538 -6.017,4.217 -9.325,4.65c-5.7,0.755 -11.567,0.259 -17.363,0.205c-9.008,-0.092 -12.9,-5.317 -10.07,-13.838c10.358,-31.187 20.825,-62.342 31.237,-93.512c2.475,-7.417 4.888,-14.85 7.542,-22.913c-2.438,-0.45 -4.371,-0.908 -6.325,-1.154c-19.713,-2.45 -39.417,-4.996 -59.167,-7.121c-2.217,-0.237 -5.546,1.321 -6.917,3.133c-6.966,9.238 -13.554,18.767 -20.07,28.334c-2.696,3.958 -6.042,5.991 -10.863,5.808c-4.133,-0.158 -8.283,0.075 -12.417,-0.067c-7.733,-0.27 -11.716,-5.433 -9.637,-12.92c3.033,-10.925 6.421,-21.746 9.879,-33.35" style="fill:#231f20;fill-rule:nonzero;"/><path d="M571.889,341.893c14.067,-42.266 28.125,-84.512 42.467,-127.6c-6.904,-0.937 -12.938,-1.829 -18.992,-2.575c-22.171,-2.733 -44.358,-5.341 -66.512,-8.191c-3.704,-0.479 -6.096,0.129 -8.317,3.454c-6.433,9.612 -13.358,18.892 -19.921,28.421c-4.762,6.912 -5.146,7.2 -15.237,5.546c4.025,-13.63 8.021,-27.18 12.191,-41.309c-5.72,-2.025 -11.058,-3.912 -18.308,-6.479c5.696,-2.017 9.546,-3.667 13.558,-4.717c3.975,-1.041 4.696,-2.858 3.446,-6.716c-3.437,-10.617 -6.479,-21.363 -9.641,-32.071c-0.392,-1.325 -0.559,-2.717 -0.888,-4.388c6.042,-1.012 10.642,-1.395 14.454,4.925c6.288,10.405 13.734,20.121 20.954,29.93c1.105,1.495 3.763,2.912 5.509,2.712c28.954,-3.346 57.875,-6.954 87.696,-10.617c-14.288,-42.954 -28.409,-85.387 -42.538,-127.85c11.688,-3.033 15.129,-1.837 21.204,6.851c26.517,37.933 53.067,75.837 79.563,113.787c2.533,3.629 5.371,5.529 10.216,5.379c13.025,-0.396 26.075,0.083 39.105,-0.158c18.495,-0.346 35.533,4.704 51.641,13.329c13.004,6.958 13.284,11.692 0.634,18.829c-15.155,8.55 -31.525,13.496 -49.05,13.75c-14.484,0.204 -28.975,0.171 -43.459,-0.046c-3.991,-0.058 -6.4,1.317 -8.654,4.563c-22.392,32.246 -44.929,64.392 -67.429,96.562c-4.263,6.096 -8.567,12.163 -12.8,18.28c-5.788,8.358 -9.671,9.645 -20.892,6.399Z" style="fill:#fff;fill-rule:nonzero;stroke:#fff;stroke-width:8.53px;"/></svg>