<?xml version="1.0" encoding="UTF-8" standalone="no"?><!DOCTYPE svg PUBLIC "-//W3C//DTD SVG 1.1//EN" "http://www.w3.org/Graphics/SVG/1.1/DTD/svg11.dtd"><svg width="100%" height="100%" viewBox="0 0 329 293" version="1.1" xmlns="http://www.w3.org/2000/svg" xmlns:xlink="http://www.w3.org/1999/xlink" xml:space="preserve" xmlns:serif="http://www.serif.com/" style="fill-rule:evenodd;clip-rule:evenodd;stroke-miterlimit:10;"><g opacity="0.6"><g><clipPath id="_clip1"><rect x="77.334" y="157.765" width="120.829" height="88.205" clip-rule="nonzero"/></clipPath><g clip-path="url(#_clip1)"><path d="M36.311,166.831l166.831,-166.831l0.689,0l-167.52,167.52l0,-0.689Z" style="fill:#cdcccc;fill-rule:nonzero;"/><path d="M36.311,180.761l180.761,-180.761l0.689,0l-181.45,181.451l0,-0.69Z" style="fill:#cdcccc;fill-rule:nonzero;"/><path d="M36.311,194.691l194.691,-194.691l0.689,0l-195.38,195.38l0,-0.689Z" style="fill:#cdcccc;fill-rule:nonzero;"/></g></g><path d="M87.167,157.765l-9.833,9.833l0,0.69l10.522,-10.523l-0.689,0Z" style="fill:#cdcccc;fill-rule:nonzero;"/><path d="M101.098,157.765l-23.764,23.764l0,0.689l24.453,-24.453l-0.689,0Z" style="fill:#cdcccc;fill-rule:nonzero;"/><path d="M115.028,157.765l-37.694,37.694l0,0.689l38.383,-38.383l-0.689,0Z" style="fill:#cdcccc;fill-rule:nonzero;"/><path d="M128.957,157.765l-51.623,51.623l0,0.69l52.312,-52.313l-0.689,0Z" style="fill:#cdcccc;fill-rule:nonzero;"/><path d="M142.887,157.765l-65.553,65.553l0,0.69l66.243,-66.243l-0.69,0Z" style="fill:#cdcccc;fill-rule:nonzero;"/><path d="M156.818,157.765l-79.484,79.483l0,0.69l80.173,-80.173l-0.689,0Z" style="fill:#cdcccc;fill-rule:nonzero;"/><path d="M170.748,157.765l-88.204,88.204l0.689,0l88.204,-88.204l-0.689,0Z" style="fill:#cdcccc;fill-rule:nonzero;"/><path d="M184.678,157.765l-88.204,88.204l0.689,0l88.204,-88.204l-0.689,0Z" style="fill:#cdcccc;fill-rule:nonzero;"/><g><clipPath id="_clip2"><rect x="77.334" y="157.765" width="120.829" height="88.205" clip-rule="nonzero"/></clipPath><g clip-path="url(#_clip2)"><path d="M110.404,245.97l0.689,0l87.07,-87.07l0,-0.689l-87.759,87.759Z" style="fill:#cdcccc;fill-rule:nonzero;"/><path d="M124.334,245.97l0.689,0l73.14,-73.14l0,-0.689l-73.829,73.829Z" style="fill:#cdcccc;fill-rule:nonzero;"/><path d="M138.264,245.97l0.689,0l59.21,-59.21l0,-0.689l-59.899,59.899Z" style="fill:#cdcccc;fill-rule:nonzero;"/><path d="M152.193,245.97l0.69,0l45.279,-45.279l0,-0.69l-45.969,45.969Z" style="fill:#cdcccc;fill-rule:nonzero;"/><path d="M166.124,245.97l0.689,0l31.35,-31.35l0,-0.689l-32.039,32.039Z" style="fill:#cdcccc;fill-rule:nonzero;"/><path d="M180.054,245.97l0.689,0l17.42,-17.42l0,-0.689l-18.109,18.109Z" style="fill:#cdcccc;fill-rule:nonzero;"/><path d="M193.984,245.97l0.689,0l3.49,-3.489l0,-0.69l-4.179,4.179Z" style="fill:#cdcccc;fill-rule:nonzero;"/><path d="M328.857,125.715l-166.831,166.831l-0.689,0l167.52,-167.52l0,0.689Z" style="fill:#cdcccc;fill-rule:nonzero;"/><path d="M328.857,139.646l-152.901,152.901l-0.689,0l153.59,-153.59l0,0.689Z" style="fill:#cdcccc;fill-rule:nonzero;"/><path d="M328.857,153.576l-138.971,138.971l-0.689,0l139.66,-139.66l0,0.689Z" style="fill:#cdcccc;fill-rule:nonzero;"/><path d="M36.311,159.761l159.761,-159.761l0.689,0l-160.45,160.45l0,-0.689Z" style="fill:#cdcccc;fill-rule:nonzero;"/><path d="M36.311,173.691l173.691,-173.691l0.689,0l-174.38,174.38l0,-0.689Z" style="fill:#cdcccc;fill-rule:nonzero;"/><path d="M36.311,187.621l187.621,-187.621l0.689,0l-188.31,188.31l0,-0.689Z" style="fill:#cdcccc;fill-rule:nonzero;"/></g></g><path d="M80.098,157.765l-2.764,2.764l0,0.689l3.453,-3.453l-0.689,0Z" style="fill:#cdcccc;fill-rule:nonzero;"/><path d="M94.027,157.765l-16.693,16.693l0,0.69l17.383,-17.383l-0.69,0Z" style="fill:#cdcccc;fill-rule:nonzero;"/><path d="M107.957,157.765l-30.623,30.623l0,0.69l31.313,-31.313l-0.69,0Z" style="fill:#cdcccc;fill-rule:nonzero;"/><path d="M121.888,157.765l-44.554,44.554l0,0.689l45.243,-45.243l-0.689,0Z" style="fill:#cdcccc;fill-rule:nonzero;"/><path d="M135.818,157.765l-58.484,58.484l0,0.689l59.173,-59.173l-0.689,0Z" style="fill:#cdcccc;fill-rule:nonzero;"/><path d="M149.748,157.765l-72.414,72.414l0,0.689l73.103,-73.103l-0.689,0Z" style="fill:#cdcccc;fill-rule:nonzero;"/><path d="M163.678,157.765l-86.344,86.344l0,0.69l87.033,-87.034l-0.689,0Z" style="fill:#cdcccc;fill-rule:nonzero;"/><path d="M177.608,157.765l-88.204,88.204l0.689,0l88.204,-88.204l-0.689,0Z" style="fill:#cdcccc;fill-rule:nonzero;"/><path d="M191.538,157.765l-88.204,88.204l0.69,0l88.204,-88.204l-0.69,0Z" style="fill:#cdcccc;fill-rule:nonzero;"/><g><clipPath id="_clip3"><rect x="77.334" y="157.765" width="120.829" height="88.205" clip-rule="nonzero"/></clipPath><g clip-path="url(#_clip3)"><path d="M117.263,245.97l0.689,0l80.21,-80.21l0,-0.689l-80.899,80.899Z" style="fill:#cdcccc;fill-rule:nonzero;"/><path d="M131.194,245.97l0.689,0l66.28,-66.28l0,-0.689l-66.969,66.969Z" style="fill:#cdcccc;fill-rule:nonzero;"/><path d="M145.124,245.97l0.689,0l52.35,-52.349l0,-0.69l-53.039,53.039Z" style="fill:#cdcccc;fill-rule:nonzero;"/><path d="M159.054,245.97l0.689,0l38.42,-38.419l0,-0.69l-39.109,39.109Z" style="fill:#cdcccc;fill-rule:nonzero;"/><path d="M172.984,245.97l0.689,0l24.49,-24.489l0,-0.69l-25.179,25.179Z" style="fill:#cdcccc;fill-rule:nonzero;"/><path d="M186.914,245.97l0.689,0l10.559,-10.559l0,-0.69l-11.248,11.249Z" style="fill:#cdcccc;fill-rule:nonzero;"/><path d="M328.857,118.646l-173.901,173.901l-0.689,0l174.59,-174.59l0,0.689Z" style="fill:#cdcccc;fill-rule:nonzero;"/><path d="M328.857,132.576l-159.971,159.971l-0.689,0l160.66,-160.66l0,0.689Z" style="fill:#cdcccc;fill-rule:nonzero;"/><path d="M328.857,146.506l-146.04,146.041l-0.69,0l146.73,-146.73l0,0.689Z" style="fill:#cdcccc;fill-rule:nonzero;"/><path d="M328.857,160.436l-132.11,132.111l-0.69,0l132.8,-132.8l0,0.689Z" style="fill:#cdcccc;fill-rule:nonzero;"/></g></g></g><rect x="3.286" y="169.485" width="178.986" height="65.324" style="fill:#fff;"/><g opacity="0.3"><rect x="3.385" y="170.6" width="0.557" height="20.606" style="fill:#666766;"/><rect x="3.385" y="169.484" width="0.557" height="0.03" style="fill:#666766;"/><rect x="3.385" y="213.983" width="0.557" height="20.607" style="fill:#666766;"/><rect x="3.385" y="235.674" width="0.557" height="0.089" style="fill:#666766;"/><rect x="3.385" y="192.292" width="0.557" height="20.606" style="fill:#666766;"/><rect x="25.113" y="170.599" width="1.114" height="20.607" style="fill:#666766;"/><rect x="25.113" y="192.29" width="1.114" height="20.607" style="fill:#666766;"/><rect x="25.113" y="235.674" width="1.114" height="0.089" style="fill:#666766;"/><rect x="25.113" y="213.983" width="1.114" height="20.607" style="fill:#666766;"/><rect x="25.113" y="169.484" width="1.114" height="0.03" style="fill:#666766;"/><path d="M47.385,214.267l0.027,-21.977l1.115,0.001l-0.027,21.978l-1.115,-0.002Z" style="fill:#666766;"/><rect x="47.398" y="170.599" width="1.114" height="20.607" style="fill:#666766;"/><rect x="47.398" y="213.983" width="1.114" height="20.607" style="fill:#666766;"/><rect x="47.398" y="235.674" width="1.114" height="0.089" style="fill:#666766;"/><rect x="47.398" y="169.484" width="1.114" height="0.03" style="fill:#666766;"/><rect x="69.683" y="169.484" width="1.114" height="0.03" style="fill:#666766;"/><rect x="69.683" y="170.599" width="1.114" height="20.607" style="fill:#666766;"/><rect x="69.683" y="213.983" width="1.114" height="20.607" style="fill:#666766;"/><rect x="69.683" y="235.674" width="1.114" height="0.089" style="fill:#666766;"/><rect x="69.683" y="192.29" width="1.114" height="20.607" style="fill:#666766;"/><rect x="91.968" y="192.29" width="1.114" height="20.607" style="fill:#666766;"/><rect x="91.968" y="169.484" width="1.114" height="0.03" style="fill:#666766;"/><rect x="91.968" y="235.674" width="1.114" height="0.089" style="fill:#666766;"/><rect x="91.968" y="213.983" width="1.114" height="20.607" style="fill:#666766;"/><rect x="91.968" y="170.599" width="1.114" height="20.607" style="fill:#666766;"/><rect x="114.252" y="192.29" width="1.114" height="20.607" style="fill:#666766;"/><rect x="114.252" y="213.983" width="1.114" height="20.607" style="fill:#666766;"/><rect x="114.253" y="235.674" width="1.114" height="0.089" style="fill:#666766;"/><rect x="114.252" y="170.599" width="1.114" height="20.607" style="fill:#666766;"/><rect x="114.253" y="169.484" width="1.114" height="0.03" style="fill:#666766;"/><rect x="136.537" y="170.599" width="1.114" height="20.607" style="fill:#666766;"/><rect x="136.537" y="169.484" width="1.114" height="0.03" style="fill:#666766;"/><rect x="136.537" y="213.983" width="1.114" height="20.607" style="fill:#666766;"/><rect x="136.537" y="235.674" width="1.114" height="0.089" style="fill:#666766;"/><rect x="136.537" y="192.29" width="1.114" height="20.607" style="fill:#666766;"/><rect x="158.821" y="169.484" width="1.114" height="0.03" style="fill:#666766;"/><rect x="158.822" y="192.29" width="1.114" height="20.607" style="fill:#666766;"/><rect x="158.821" y="235.674" width="1.114" height="0.089" style="fill:#666766;"/><rect x="158.822" y="213.983" width="1.114" height="20.607" style="fill:#666766;"/><rect x="158.822" y="170.599" width="1.114" height="20.607" style="fill:#666766;"/><rect x="181.106" y="235.674" width="1.114" height="0.089" style="fill:#666766;"/><rect x="181.106" y="169.484" width="1.114" height="0.03" style="fill:#666766;"/><rect x="181.106" y="192.292" width="1.114" height="20.606" style="fill:#666766;"/><rect x="181.106" y="170.6" width="1.114" height="20.606" style="fill:#666766;"/><rect x="181.106" y="213.983" width="1.114" height="20.607" style="fill:#666766;"/><path d="M182.221,234.589l-1.114,0l-21.171,0l-1.114,0l-21.17,0l-1.114,0l-21.171,0l-1.114,0l-21.171,0l-1.114,0l-21.171,0l-1.114,0l-21.17,0l-1.115,0l-21.17,0l-1.115,0l-21.17,0l-0.557,0l0,1.084l179.037,0l0,-1.084l-0.202,0Z" style="fill:#666766;fill-rule:nonzero;"/><path d="M182.221,212.897l-1.114,0l-21.171,0l-1.114,0l-21.17,0l-1.114,0l-21.171,0l-1.114,0l-21.171,0l-1.114,0l-21.171,0l-1.114,0l-21.17,0l-1.115,0l-21.17,0l-1.115,0l-21.17,0l-0.557,0l0,1.084l179.037,0l0,-1.084l-0.202,0Z" style="fill:#666766;fill-rule:nonzero;"/><path d="M182.221,191.205l-1.114,0l-21.171,0l-1.114,0l-21.17,0l-1.114,0l-21.171,0l-1.114,0l-21.171,0l-1.114,0l-21.171,0l-1.114,0l-21.17,0l-1.115,0l-21.17,0l-1.115,0l-21.17,0l-0.557,0l0,1.085l179.037,0l0,-1.085l-0.202,0Z" style="fill:#666766;fill-rule:nonzero;"/><path d="M182.221,169.514l-1.114,0l-21.171,0l-1.114,0l-21.17,0l-1.114,0l-21.171,0l-1.114,0l-21.171,0l-1.114,0l-21.171,0l-1.114,0l-21.17,0l-1.115,0l-21.17,0l-1.115,0l-21.17,0l-0.557,0l0,1.085l179.037,0l0,-1.085l-0.202,0Z" style="fill:#666766;fill-rule:nonzero;"/></g><rect x="25.073" y="169.515" width="23.439" height="22.776" style="fill:#a52052;"/><rect x="69.572" y="191.236" width="23.439" height="22.776" style="fill:#a52052;"/><rect x="114.309" y="170.147" width="23.439" height="22.776" style="fill:#a52052;"/><rect x="3.286" y="169.962" width="178.986" height="65.324" style="fill:none;stroke:#030404;stroke-width:0.65px;"/><path d="M137.247,237.593c2.693,0.779 3.625,0.47 5.014,-1.536c1.016,-1.468 2.049,-2.924 3.072,-4.387c5.4,-7.721 10.809,-15.436 16.183,-23.175c0.541,-0.779 1.119,-1.109 2.077,-1.095c3.476,0.052 6.954,0.06 10.43,0.011c4.206,-0.061 8.135,-1.248 11.772,-3.3c3.036,-1.713 2.969,-2.849 -0.152,-4.519c-3.866,-2.07 -7.955,-3.282 -12.394,-3.199c-3.127,0.058 -6.259,-0.057 -9.385,0.038c-1.163,0.036 -1.844,-0.42 -2.452,-1.291c-6.359,-9.108 -12.731,-18.205 -19.095,-27.309c-1.458,-2.085 -2.284,-2.372 -5.089,-1.644c3.391,10.191 6.78,20.375 10.209,30.684c-7.157,0.879 -14.098,1.745 -21.047,2.548c-0.419,0.048 -1.057,-0.292 -1.322,-0.651c-1.733,-2.354 -3.52,-4.686 -5.029,-7.183c-0.915,-1.517 -2.019,-1.425 -3.469,-1.182c0.079,0.401 0.119,0.735 0.213,1.053c0.759,2.57 1.489,5.149 2.314,7.697c0.3,0.926 0.127,1.362 -0.827,1.612c-0.963,0.252 -1.887,0.648 -3.254,1.132c1.74,0.616 3.021,1.069 4.394,1.555c-1.001,3.391 -1.96,6.643 -2.926,9.914c2.422,0.397 2.514,0.328 3.657,-1.331c1.575,-2.287 3.237,-4.514 4.781,-6.821c0.533,-0.798 1.107,-0.944 1.996,-0.829c5.317,0.684 10.642,1.31 15.963,1.966c1.453,0.179 2.901,0.393 4.558,0.618c-3.442,10.341 -6.816,20.48 -10.192,30.624m-21.247,-32.405c-1.244,-0.421 -2.271,-0.77 -3.3,-1.115c-0.997,-0.334 -1.624,-1.008 -1.637,-2.068c-0.015,-1.088 0.472,-1.912 1.588,-2.246c0.094,-0.028 0.179,-0.086 0.272,-0.122c3.06,-1.195 3.059,-1.194 2.108,-4.302c-0.464,-1.519 -0.962,-3.029 -1.377,-4.561c-0.536,-1.981 0.381,-3.104 2.412,-3.35c2.996,-0.361 5.275,0.371 6.759,3.273c0.917,1.793 2.262,3.376 3.497,4.989c0.304,0.398 0.963,0.818 1.407,0.769c5.134,-0.566 10.258,-1.22 15.383,-1.859c0.136,-0.017 0.262,-0.124 0.523,-0.254c-0.15,-0.5 -0.288,-1.012 -0.455,-1.514c-2.868,-8.619 -5.744,-17.235 -8.607,-25.856c-0.89,-2.679 0.027,-3.547 2.797,-3.951c4.141,-0.603 6.257,1.503 8.345,4.625c5.567,8.327 11.403,16.474 17.115,24.705c0.644,0.929 1.37,1.375 2.579,1.33c2.828,-0.106 5.662,-0.035 8.494,-0.034c4.943,0.001 9.51,1.399 13.726,3.894c4.22,2.498 4.387,5.663 0.373,8.413c-3.936,2.695 -8.42,3.98 -13.171,4.161c-3.225,0.123 -6.459,0.065 -9.687,0.004c-1.022,-0.02 -1.611,0.344 -2.184,1.169c-6.537,9.412 -13.095,18.81 -19.721,28.159c-0.432,0.609 -1.444,1.012 -2.238,1.116c-1.368,0.181 -2.776,0.062 -4.167,0.049c-2.162,-0.022 -3.096,-1.276 -2.417,-3.321c2.486,-7.485 4.998,-14.962 7.497,-22.443c0.594,-1.78 1.173,-3.564 1.81,-5.499c-0.585,-0.108 -1.049,-0.218 -1.518,-0.277c-4.731,-0.588 -9.46,-1.199 -14.2,-1.709c-0.532,-0.057 -1.331,0.317 -1.66,0.752c-1.672,2.217 -3.253,4.504 -4.817,6.8c-0.647,0.95 -1.45,1.438 -2.607,1.394c-0.992,-0.038 -1.988,0.018 -2.98,-0.016c-1.856,-0.065 -2.812,-1.304 -2.313,-3.101c0.728,-2.622 1.541,-5.219 2.371,-8.004" style="fill:#231f20;fill-rule:nonzero;"/><path d="M137.247,237.593c3.376,-10.144 6.75,-20.283 10.192,-30.624c-1.657,-0.225 -3.105,-0.439 -4.558,-0.618c-5.321,-0.656 -10.646,-1.282 -15.963,-1.966c-0.889,-0.115 -1.463,0.031 -1.996,0.829c-1.544,2.307 -3.206,4.534 -4.781,6.821c-1.143,1.659 -1.235,1.728 -3.657,1.331c0.966,-3.271 1.925,-6.523 2.926,-9.914c-1.373,-0.486 -2.654,-0.939 -4.394,-1.555c1.367,-0.484 2.291,-0.88 3.254,-1.132c0.954,-0.25 1.127,-0.686 0.827,-1.612c-0.825,-2.548 -1.555,-5.127 -2.314,-7.697c-0.094,-0.318 -0.134,-0.652 -0.213,-1.053c1.45,-0.243 2.554,-0.335 3.469,1.182c1.509,2.497 3.296,4.829 5.029,7.183c0.265,0.359 0.903,0.699 1.322,0.651c6.949,-0.803 13.89,-1.669 21.047,-2.548c-3.429,-10.309 -6.818,-20.493 -10.209,-30.684c2.805,-0.728 3.631,-0.441 5.089,1.644c6.364,9.104 12.736,18.201 19.095,27.309c0.608,0.871 1.289,1.327 2.452,1.291c3.126,-0.095 6.258,0.02 9.385,-0.038c4.439,-0.083 8.528,1.129 12.394,3.199c3.121,1.67 3.188,2.806 0.152,4.519c-3.637,2.052 -7.566,3.239 -11.772,3.3c-3.476,0.049 -6.954,0.041 -10.43,-0.011c-0.958,-0.014 -1.536,0.316 -2.077,1.095c-5.374,7.739 -10.783,15.454 -16.183,23.175c-1.023,1.463 -2.056,2.919 -3.072,4.387c-1.389,2.006 -2.321,2.315 -5.014,1.536Z" style="fill:#fff;fill-rule:nonzero;stroke:#fff;stroke-width:2.05px;"/></svg>