<svg width="60px" height="60px" viewBox="0 0 67 67" xmlns="http://www.w3.org/2000/svg" stroke-linejoin="round">
  <style>.a{fill:#2962ff; fill-opacity: 0.5}</style>
  <circle cx="33.1" cy="2.5" r="2.5" class="a"/>
  <circle cx="33.1" cy="17.9" r="2.5" class="a"/>
  <circle cx="33.1" cy="33.3" r="2.5" class="a"/>
  <circle cx="33.1" cy="48.7" r="2.5" class="a"/>
  <circle cx="33.1" cy="64.1" r="2.5" class="a"/>
  <circle cx="48.3" cy="2.5" r="2.5" class="a"/>
  <circle cx="2.5" cy="2.5" r="2.5" class="a"/>
  <circle cx="48.3" cy="17.9" r="2.5" class="a"/>
  <circle cx="2.5" cy="17.9" r="2.5" class="a"/>
  <circle cx="48.3" cy="33.3" r="2.5" class="a"/>
  <circle cx="2.5" cy="33.3" r="2.5" class="a"/>
  <circle cx="48.3" cy="48.7" r="2.5" class="a"/>
  <circle cx="2.5" cy="48.7" r="2.5" class="a"/>
  <circle cx="48.3" cy="64.1" r="2.5" class="a"/>
  <circle cx="2.5" cy="64.1" r="2.5" class="a"/>
  <circle cx="63.6" cy="2.5" r="2.5" class="a"/>
  <circle cx="17.8" cy="2.5" r="2.5" class="a"/>
  <circle cx="63.6" cy="17.9" r="2.5" class="a"/>
  <circle cx="17.8" cy="17.9" r="2.5" class="a"/>
  <circle cx="63.6" cy="33.3" r="2.5" class="a"/>
  <circle cx="17.8" cy="33.3" r="2.5" class="a"/>
  <circle cx="63.6" cy="48.7" r="2.5" class="a"/>
  <circle cx="17.8" cy="48.7" r="2.5" class="a"/>
  <circle cx="63.6" cy="64.1" r="2.5" class="a"/>
  <circle cx="17.8" cy="64.1" r="2.5" class="a"/>
</svg>