<svg width="100" height="100" viewBox="0 0 1165 1247" xmlns="http://www.w3.org/2000/svg" stroke-linejoin="round"><style>.a{fill:#2962ff;}</style><circle cx="582.2" cy="11.8" r="11.8" class="a"/><circle cx="297" cy="11.8" r="11.8" class="a"/><circle cx="11.8" cy="11.8" r="11.8" class="a"/><circle cx="582.2" cy="83.7" r="11.8" class="a"/><circle cx="297" cy="83.7" r="11.8" class="a"/><circle cx="11.8" cy="83.7" r="11.8" class="a"/><circle cx="582.2" cy="155.6" r="11.8" class="a"/><circle cx="297" cy="155.6" r="11.8" class="a"/><circle cx="11.8" cy="155.6" r="11.8" class="a"/><circle cx="582.2" cy="227.5" r="11.8" class="a"/><circle cx="582.2" cy="587.1" r="11.8" class="a"/><circle cx="582.2" cy="946.7" r="11.8" class="a"/><circle cx="297" cy="227.5" r="11.8" class="a"/><circle cx="297" cy="587.1" r="11.8" class="a"/><circle cx="297" cy="946.7" r="11.8" class="a"/><circle cx="11.8" cy="227.5" r="11.8" class="a"/><circle cx="11.8" cy="587.1" r="11.8" class="a"/><circle cx="11.8" cy="946.7" r="11.8" class="a"/><circle cx="582.2" cy="299.5" r="11.8" class="a"/><circle cx="582.2" cy="659" r="11.8" class="a"/><circle cx="582.2" cy="1018.6" r="11.8" class="a"/><circle cx="297" cy="299.5" r="11.8" class="a"/><circle cx="297" cy="659" r="11.8" class="a"/><circle cx="297" cy="1018.6" r="11.8" class="a"/><circle cx="11.8" cy="299.5" r="11.8" class="a"/><circle cx="11.8" cy="659" r="11.8" class="a"/><circle cx="11.8" cy="1018.6" r="11.8" class="a"/><circle cx="582.2" cy="371.4" r="11.8" class="a"/><circle cx="582.2" cy="730.9" r="11.8" class="a"/><circle cx="582.2" cy="1090.5" r="11.8" class="a"/><circle cx="297" cy="371.4" r="11.8" class="a"/><circle cx="297" cy="730.9" r="11.8" class="a"/><circle cx="297" cy="1090.5" r="11.8" class="a"/><circle cx="11.8" cy="371.4" r="11.8" class="a"/><circle cx="11.8" cy="730.9" r="11.8" class="a"/><circle cx="11.8" cy="1090.5" r="11.8" class="a"/><circle cx="582.2" cy="443.3" r="11.8" class="a"/><circle cx="582.2" cy="802.9" r="11.8" class="a"/><circle cx="582.2" cy="1162.4" r="11.8" class="a"/><circle cx="297" cy="443.3" r="11.8" class="a"/><circle cx="297" cy="802.9" r="11.8" class="a"/><circle cx="297" cy="1162.4" r="11.8" class="a"/><circle cx="11.8" cy="443.3" r="11.8" class="a"/><circle cx="11.8" cy="802.9" r="11.8" class="a"/><circle cx="11.8" cy="1162.4" r="11.8" class="a"/><circle cx="582.2" cy="515.2" r="11.8" class="a"/><circle cx="582.2" cy="874.8" r="11.8" class="a"/><circle cx="582.2" cy="1234.3" r="11.8" class="a"/><circle cx="297" cy="515.2" r="11.8" class="a"/><circle cx="297" cy="874.8" r="11.8" class="a"/><circle cx="297" cy="1234.3" r="11.8" class="a"/><circle cx="11.8" cy="515.2" r="11.8" class="a"/><circle cx="11.8" cy="874.8" r="11.8" class="a"/><circle cx="11.8" cy="1234.3" r="11.8" class="a"/><circle cx="653.5" cy="11.8" r="11.8" class="a"/><circle cx="368.3" cy="11.8" r="11.8" class="a"/><circle cx="83.1" cy="11.8" r="11.8" class="a"/><circle cx="653.5" cy="83.7" r="11.8" class="a"/><circle cx="368.3" cy="83.7" r="11.8" class="a"/><circle cx="83.1" cy="83.7" r="11.8" class="a"/><circle cx="653.5" cy="155.6" r="11.8" class="a"/><circle cx="368.3" cy="155.6" r="11.8" class="a"/><circle cx="83.1" cy="155.6" r="11.8" class="a"/><circle cx="653.5" cy="227.5" r="11.8" class="a"/><circle cx="653.5" cy="587.1" r="11.8" class="a"/><circle cx="653.5" cy="946.7" r="11.8" class="a"/><circle cx="368.3" cy="227.5" r="11.8" class="a"/><circle cx="368.3" cy="587.1" r="11.8" class="a"/><circle cx="368.3" cy="946.7" r="11.8" class="a"/><circle cx="83.1" cy="227.5" r="11.8" class="a"/><circle cx="83.1" cy="587.1" r="11.8" class="a"/><circle cx="83.1" cy="946.7" r="11.8" class="a"/><circle cx="653.5" cy="299.5" r="11.8" class="a"/><circle cx="653.5" cy="659" r="11.8" class="a"/><circle cx="653.5" cy="1018.6" r="11.8" class="a"/><circle cx="368.3" cy="299.5" r="11.8" class="a"/><circle cx="368.3" cy="659" r="11.8" class="a"/><circle cx="368.3" cy="1018.6" r="11.8" class="a"/><circle cx="83.1" cy="299.5" r="11.8" class="a"/><circle cx="83.1" cy="659" r="11.8" class="a"/><circle cx="83.1" cy="1018.6" r="11.8" class="a"/><circle cx="653.5" cy="371.4" r="11.8" class="a"/><circle cx="653.5" cy="730.9" r="11.8" class="a"/><circle cx="653.5" cy="1090.5" r="11.8" class="a"/><circle cx="368.3" cy="371.4" r="11.8" class="a"/><circle cx="368.3" cy="730.9" r="11.8" class="a"/><circle cx="368.3" cy="1090.5" r="11.8" class="a"/><circle cx="83.1" cy="371.4" r="11.8" class="a"/><circle cx="83.1" cy="730.9" r="11.8" class="a"/><circle cx="83.1" cy="1090.5" r="11.8" class="a"/><circle cx="653.5" cy="443.3" r="11.8" class="a"/><circle cx="653.5" cy="802.9" r="11.8" class="a"/><circle cx="653.5" cy="1162.4" r="11.8" class="a"/><circle cx="368.3" cy="443.3" r="11.8" class="a"/><circle cx="368.3" cy="802.9" r="11.8" class="a"/><circle cx="368.3" cy="1162.4" r="11.8" class="a"/><circle cx="83.1" cy="443.3" r="11.8" class="a"/><circle cx="83.1" cy="802.9" r="11.8" class="a"/><circle cx="83.1" cy="1162.4" r="11.8" class="a"/><circle cx="653.5" cy="515.2" r="11.8" class="a"/><circle cx="653.5" cy="874.8" r="11.8" class="a"/><circle cx="653.5" cy="1234.3" r="11.8" class="a"/><circle cx="368.3" cy="515.2" r="11.8" class="a"/><circle cx="368.3" cy="874.8" r="11.8" class="a"/><circle cx="368.3" cy="1234.3" r="11.8" class="a"/><circle cx="83.1" cy="515.2" r="11.8" class="a"/><circle cx="83.1" cy="874.8" r="11.8" class="a"/><circle cx="83.1" cy="1234.3" r="11.8" class="a"/><circle cx="724.8" cy="11.8" r="11.8" class="a"/><circle cx="439.6" cy="11.8" r="11.8" class="a"/><circle cx="154.4" cy="11.8" r="11.8" class="a"/><circle cx="724.8" cy="83.7" r="11.8" class="a"/><circle cx="439.6" cy="83.7" r="11.8" class="a"/><circle cx="154.4" cy="83.7" r="11.8" class="a"/><circle cx="724.8" cy="155.6" r="11.8" class="a"/><circle cx="439.6" cy="155.6" r="11.8" class="a"/><circle cx="154.4" cy="155.6" r="11.8" class="a"/><circle cx="724.8" cy="227.5" r="11.8" class="a"/><circle cx="724.8" cy="587.1" r="11.8" class="a"/><circle cx="724.8" cy="946.7" r="11.8" class="a"/><circle cx="439.6" cy="227.5" r="11.8" class="a"/><circle cx="439.6" cy="587.1" r="11.8" class="a"/><circle cx="439.6" cy="946.7" r="11.8" class="a"/><circle cx="154.4" cy="227.5" r="11.8" class="a"/><circle cx="154.4" cy="587.1" r="11.8" class="a"/><circle cx="154.4" cy="946.7" r="11.8" class="a"/><circle cx="724.8" cy="299.5" r="11.8" class="a"/><circle cx="724.8" cy="659" r="11.8" class="a"/><circle cx="724.8" cy="1018.6" r="11.8" class="a"/><circle cx="439.6" cy="299.5" r="11.8" class="a"/><circle cx="439.6" cy="659" r="11.8" class="a"/><circle cx="439.6" cy="1018.6" r="11.8" class="a"/><circle cx="154.4" cy="299.5" r="11.8" class="a"/><circle cx="154.4" cy="659" r="11.8" class="a"/><circle cx="154.4" cy="1018.6" r="11.8" class="a"/><circle cx="724.8" cy="371.4" r="11.8" class="a"/><circle cx="724.8" cy="730.9" r="11.8" class="a"/><circle cx="724.8" cy="1090.5" r="11.8" class="a"/><circle cx="439.6" cy="371.4" r="11.8" class="a"/><circle cx="439.6" cy="730.9" r="11.8" class="a"/><circle cx="439.6" cy="1090.5" r="11.8" class="a"/><circle cx="154.4" cy="371.4" r="11.8" class="a"/><circle cx="154.4" cy="730.9" r="11.8" class="a"/><circle cx="154.4" cy="1090.5" r="11.8" class="a"/><circle cx="724.8" cy="443.3" r="11.8" class="a"/><circle cx="724.8" cy="802.9" r="11.8" class="a"/><circle cx="724.8" cy="1162.4" r="11.8" class="a"/><circle cx="439.6" cy="443.3" r="11.8" class="a"/><circle cx="439.6" cy="802.9" r="11.8" class="a"/><circle cx="439.6" cy="1162.4" r="11.8" class="a"/><circle cx="154.4" cy="443.3" r="11.8" class="a"/><circle cx="154.4" cy="802.9" r="11.8" class="a"/><circle cx="154.4" cy="1162.4" r="11.8" class="a"/><circle cx="724.8" cy="515.2" r="11.8" class="a"/><circle cx="724.8" cy="874.8" r="11.8" class="a"/><circle cx="724.8" cy="1234.3" r="11.8" class="a"/><circle cx="439.6" cy="515.2" r="11.8" class="a"/><circle cx="439.6" cy="874.8" r="11.8" class="a"/><circle cx="439.6" cy="1234.3" r="11.8" class="a"/><circle cx="154.4" cy="515.2" r="11.8" class="a"/><circle cx="154.4" cy="874.8" r="11.8" class="a"/><circle cx="154.4" cy="1234.3" r="11.8" class="a"/><circle cx="796.1" cy="11.8" r="11.8" class="a"/><circle cx="510.9" cy="11.8" r="11.8" class="a"/><circle cx="225.7" cy="11.8" r="11.8" class="a"/><circle cx="796.1" cy="83.7" r="11.8" class="a"/><circle cx="510.9" cy="83.7" r="11.8" class="a"/><circle cx="225.7" cy="83.7" r="11.8" class="a"/><circle cx="796.1" cy="155.6" r="11.8" class="a"/><circle cx="510.9" cy="155.6" r="11.8" class="a"/><circle cx="225.7" cy="155.6" r="11.8" class="a"/><circle cx="796.1" cy="227.5" r="11.8" class="a"/><circle cx="796.1" cy="587.1" r="11.8" class="a"/><circle cx="796.1" cy="946.7" r="11.8" class="a"/><circle cx="510.9" cy="227.5" r="11.8" class="a"/><circle cx="510.9" cy="587.1" r="11.8" class="a"/><circle cx="510.9" cy="946.7" r="11.8" class="a"/><circle cx="225.7" cy="227.5" r="11.8" class="a"/><circle cx="225.7" cy="587.1" r="11.8" class="a"/><circle cx="225.7" cy="946.7" r="11.8" class="a"/><circle cx="796.1" cy="299.5" r="11.8" class="a"/><circle cx="796.1" cy="659" r="11.8" class="a"/><circle cx="796.1" cy="1018.6" r="11.8" class="a"/><circle cx="510.9" cy="299.5" r="11.8" class="a"/><circle cx="510.9" cy="659" r="11.8" class="a"/><circle cx="510.9" cy="1018.6" r="11.8" class="a"/><circle cx="225.7" cy="299.5" r="11.8" class="a"/><circle cx="225.7" cy="659" r="11.8" class="a"/><circle cx="225.7" cy="1018.6" r="11.8" class="a"/><circle cx="796.1" cy="371.4" r="11.8" class="a"/><circle cx="796.1" cy="730.9" r="11.8" class="a"/><circle cx="796.1" cy="1090.5" r="11.8" class="a"/><circle cx="510.9" cy="371.4" r="11.8" class="a"/><circle cx="510.9" cy="730.9" r="11.8" class="a"/><circle cx="510.9" cy="1090.5" r="11.8" class="a"/><circle cx="225.7" cy="371.4" r="11.8" class="a"/><circle cx="225.7" cy="730.9" r="11.8" class="a"/><circle cx="225.7" cy="1090.5" r="11.8" class="a"/><circle cx="796.1" cy="443.3" r="11.8" class="a"/><circle cx="796.1" cy="802.9" r="11.8" class="a"/><circle cx="796.1" cy="1162.4" r="11.8" class="a"/><circle cx="510.9" cy="443.3" r="11.8" class="a"/><circle cx="510.9" cy="802.9" r="11.8" class="a"/><circle cx="510.9" cy="1162.4" r="11.8" class="a"/><circle cx="225.7" cy="443.3" r="11.8" class="a"/><circle cx="225.7" cy="802.9" r="11.8" class="a"/><circle cx="225.7" cy="1162.4" r="11.8" class="a"/><circle cx="796.1" cy="515.2" r="11.8" class="a"/><circle cx="796.1" cy="874.8" r="11.8" class="a"/><circle cx="796.1" cy="1234.3" r="11.8" class="a"/><circle cx="510.9" cy="515.2" r="11.8" class="a"/><circle cx="510.9" cy="874.8" r="11.8" class="a"/><circle cx="510.9" cy="1234.3" r="11.8" class="a"/><circle cx="225.7" cy="515.2" r="11.8" class="a"/><circle cx="225.7" cy="874.8" r="11.8" class="a"/><circle cx="225.7" cy="1234.3" r="11.8" class="a"/><circle cx="867.4" cy="11.8" r="11.8" class="a"/><circle cx="867.4" cy="83.7" r="11.8" class="a"/><circle cx="867.4" cy="155.6" r="11.8" class="a"/><circle cx="867.4" cy="227.5" r="11.8" class="a"/><circle cx="867.4" cy="587.1" r="11.8" class="a"/><circle cx="867.4" cy="946.7" r="11.8" class="a"/><circle cx="867.4" cy="299.5" r="11.8" class="a"/><circle cx="867.4" cy="659" r="11.8" class="a"/><circle cx="867.4" cy="1018.6" r="11.8" class="a"/><circle cx="867.4" cy="371.4" r="11.8" class="a"/><circle cx="867.4" cy="730.9" r="11.8" class="a"/><circle cx="867.4" cy="1090.5" r="11.8" class="a"/><circle cx="867.4" cy="443.3" r="11.8" class="a"/><circle cx="867.4" cy="802.9" r="11.8" class="a"/><circle cx="867.4" cy="1162.4" r="11.8" class="a"/><circle cx="867.4" cy="515.2" r="11.8" class="a"/><circle cx="867.4" cy="874.8" r="11.8" class="a"/><circle cx="867.4" cy="1234.3" r="11.8" class="a"/><circle cx="938.7" cy="11.8" r="11.8" class="a"/><circle cx="938.7" cy="83.7" r="11.8" class="a"/><circle cx="938.7" cy="155.6" r="11.8" class="a"/><circle cx="938.7" cy="227.5" r="11.8" class="a"/><circle cx="938.7" cy="587.1" r="11.8" class="a"/><circle cx="938.7" cy="946.7" r="11.8" class="a"/><circle cx="938.7" cy="299.5" r="11.8" class="a"/><circle cx="938.7" cy="659" r="11.8" class="a"/><circle cx="938.7" cy="1018.6" r="11.8" class="a"/><circle cx="938.7" cy="371.4" r="11.8" class="a"/><circle cx="938.7" cy="730.9" r="11.8" class="a"/><circle cx="938.7" cy="1090.5" r="11.8" class="a"/><circle cx="938.7" cy="443.3" r="11.8" class="a"/><circle cx="938.7" cy="802.9" r="11.8" class="a"/><circle cx="938.7" cy="1162.4" r="11.8" class="a"/><circle cx="938.7" cy="515.2" r="11.8" class="a"/><circle cx="938.7" cy="874.8" r="11.8" class="a"/><circle cx="938.7" cy="1234.3" r="11.8" class="a"/><circle cx="1010" cy="11.8" r="11.8" class="a"/><circle cx="1010" cy="83.7" r="11.8" class="a"/><circle cx="1010" cy="155.6" r="11.8" class="a"/><circle cx="1010" cy="227.5" r="11.8" class="a"/><circle cx="1010" cy="587.1" r="11.8" class="a"/><circle cx="1010" cy="946.7" r="11.8" class="a"/><circle cx="1010" cy="299.5" r="11.8" class="a"/><circle cx="1010" cy="659" r="11.8" class="a"/><circle cx="1010" cy="1018.6" r="11.8" class="a"/><circle cx="1010" cy="371.4" r="11.8" class="a"/><circle cx="1010" cy="730.9" r="11.8" class="a"/><circle cx="1010" cy="1090.5" r="11.8" class="a"/><circle cx="1010" cy="443.3" r="11.8" class="a"/><circle cx="1010" cy="802.9" r="11.8" class="a"/><circle cx="1010" cy="1162.4" r="11.8" class="a"/><circle cx="1010" cy="515.2" r="11.8" class="a"/><circle cx="1010" cy="874.8" r="11.8" class="a"/><circle cx="1010" cy="1234.3" r="11.8" class="a"/><circle cx="1081.2" cy="11.8" r="11.8" class="a"/><circle cx="1081.2" cy="83.7" r="11.8" class="a"/><circle cx="1081.2" cy="155.6" r="11.8" class="a"/><circle cx="1081.2" cy="227.5" r="11.8" class="a"/><circle cx="1081.2" cy="587.1" r="11.8" class="a"/><circle cx="1081.2" cy="946.7" r="11.8" class="a"/><circle cx="1081.2" cy="299.5" r="11.8" class="a"/><circle cx="1081.2" cy="659" r="11.8" class="a"/><circle cx="1081.2" cy="1018.6" r="11.8" class="a"/><circle cx="1081.2" cy="371.4" r="11.8" class="a"/><circle cx="1081.2" cy="730.9" r="11.8" class="a"/><circle cx="1081.2" cy="1090.5" r="11.8" class="a"/><circle cx="1081.2" cy="443.3" r="11.8" class="a"/><circle cx="1081.2" cy="802.9" r="11.8" class="a"/><circle cx="1081.2" cy="1162.4" r="11.8" class="a"/><circle cx="1081.2" cy="515.2" r="11.8" class="a"/><circle cx="1081.2" cy="874.8" r="11.8" class="a"/><circle cx="1081.2" cy="1234.3" r="11.8" class="a"/><circle cx="1152.5" cy="11.8" r="11.8" class="a"/><circle cx="1152.5" cy="83.7" r="11.8" class="a"/><circle cx="1152.5" cy="155.6" r="11.8" class="a"/><circle cx="1152.5" cy="227.5" r="11.8" class="a"/><circle cx="1152.5" cy="587.1" r="11.8" class="a"/><circle cx="1152.5" cy="946.7" r="11.8" class="a"/><circle cx="1152.5" cy="299.5" r="11.8" class="a"/><circle cx="1152.5" cy="659" r="11.8" class="a"/><circle cx="1152.5" cy="1018.6" r="11.8" class="a"/><circle cx="1152.5" cy="371.4" r="11.8" class="a"/><circle cx="1152.5" cy="730.9" r="11.8" class="a"/><circle cx="1152.5" cy="1090.5" r="11.8" class="a"/><circle cx="1152.5" cy="443.3" r="11.8" class="a"/><circle cx="1152.5" cy="802.9" r="11.8" class="a"/><circle cx="1152.5" cy="1162.4" r="11.8" class="a"/><circle cx="1152.5" cy="515.2" r="11.8" class="a"/><circle cx="1152.5" cy="874.8" r="11.8" class="a"/><circle cx="1152.5" cy="1234.3" r="11.8" class="a"/></svg>