<?xml version="1.0" encoding="UTF-8" standalone="no"?><!DOCTYPE svg PUBLIC "-//W3C//DTD SVG 1.1//EN" "http://www.w3.org/Graphics/SVG/1.1/DTD/svg11.dtd"><svg width="100%" height="100%" viewBox="0 0 183 54" version="1.1" xmlns="http://www.w3.org/2000/svg" xmlns:xlink="http://www.w3.org/1999/xlink" xml:space="preserve" xmlns:serif="http://www.serif.com/" style="fill-rule:evenodd;clip-rule:evenodd;stroke-linejoin:round;stroke-miterlimit:2;"><path d="M37.791,1.342l-8.033,-1.342l0.718,4.525l7.315,-3.183Z" style="fill:#999;fill-rule:nonzero;"/><path d="M40.892,8.309l-4.114,2.019l-14.71,-2.143l15.723,-6.843l3.101,6.967Z" style="fill:#999;fill-rule:nonzero;"/><path d="M22.067,8.184l20.072,2.924l-14.321,7.355l-6.788,-0.409l1.037,-9.87Z" style="fill:#999;fill-rule:nonzero;"/><path d="M45.898,19.551l-6.408,3.752l-18.892,-1.131l21.541,-11.064l3.759,8.443Z" style="fill:#999;fill-rule:nonzero;"/><path d="M20.598,22.172l27.191,1.625l-17.497,10.896l-11.06,0.466l1.366,-12.987Z" style="fill:#999;fill-rule:nonzero;"/><path d="M52.229,33.773l-4.439,-9.976l-47.79,29.761l28.78,-3.025l23.449,-16.76Z" style="fill:#999;fill-rule:nonzero;"/><path d="M66.717,11.924c-0.543,0 -1.043,0.102 -1.502,0.309c-0.458,0.205 -0.838,0.468 -1.137,0.784l0.001,10.781l-4.185,0l0.001,-20.492l4.184,0l-0.001,6.904c0.451,-0.372 0.993,-0.682 1.631,-0.925c0.634,-0.244 1.346,-0.364 2.132,-0.364c1.871,0 3.327,0.575 4.364,1.726c1.039,1.15 1.559,2.858 1.558,5.122l0.001,8.029l-4.183,0l-0.001,-7.973c0.001,-1.384 -0.237,-2.381 -0.714,-2.987c-0.479,-0.609 -1.195,-0.914 -2.149,-0.914" style="fill:#999;fill-rule:nonzero;"/><path d="M76.619,5.411c0,-0.693 0.183,-1.217 0.547,-1.571c0.366,-0.356 0.977,-0.534 1.838,-0.534c0.862,0 1.474,0.178 1.838,0.534c0.366,0.354 0.55,0.878 0.548,1.571c0.001,0.713 -0.182,1.241 -0.548,1.586c-0.364,0.345 -0.977,0.519 -1.837,0.519c-0.86,0 -1.474,-0.174 -1.839,-0.519c-0.365,-0.345 -0.547,-0.873 -0.547,-1.586m0.28,3.845l4.182,0l0.001,14.542l-4.185,0l0.002,-14.542Z" style="fill:#999;fill-rule:nonzero;"/><path d="M83.571,16.358c0.002,-1.14 0.169,-2.17 0.505,-3.087c0.338,-0.916 0.802,-1.699 1.39,-2.344c0.59,-0.645 1.273,-1.143 2.052,-1.486c0.772,-0.349 1.613,-0.52 2.512,-0.52c0.746,0 1.436,0.116 2.061,0.35c0.627,0.234 1.138,0.548 1.53,0.939l0.002,-0.955l4.182,0l0.001,13.169c-0.002,1.236 -0.141,2.289 -0.421,3.171c-0.283,0.878 -0.725,1.6 -1.334,2.16c-0.607,0.563 -1.396,0.979 -2.357,1.25c-0.965,0.273 -2.131,0.41 -3.495,0.41c-0.954,0 -1.864,-0.089 -2.724,-0.255c-0.86,-0.168 -1.655,-0.442 -2.386,-0.815l0.223,-3.284c0.657,0.469 1.382,0.824 2.178,1.066c0.795,0.244 1.604,0.365 2.427,0.365c1.124,0 2.02,-0.259 2.695,-0.772c0.675,-0.513 1.012,-1.37 1.01,-2.568l0.001,-0.645c-0.393,0.394 -0.904,0.705 -1.531,0.938c-0.626,0.236 -1.313,0.352 -2.062,0.352c-0.898,0 -1.736,-0.173 -2.513,-0.517c-0.776,-0.348 -1.458,-0.843 -2.048,-1.491c-0.591,-0.643 -1.055,-1.425 -1.392,-2.342c-0.337,-0.916 -0.506,-1.946 -0.506,-3.089m4.239,0c0,1.498 0.305,2.61 0.912,3.341c0.608,0.73 1.353,1.096 2.231,1.096c0.524,0 1.021,-0.094 1.49,-0.282c0.469,-0.185 0.859,-0.458 1.178,-0.814l0.001,-6.682c-0.319,-0.335 -0.712,-0.603 -1.18,-0.799c-0.468,-0.197 -0.966,-0.295 -1.488,-0.295c-0.88,0 -1.624,0.366 -2.231,1.094c-0.609,0.733 -0.914,1.845 -0.913,3.341" style="fill:#999;fill-rule:nonzero;"/><path d="M107.879,11.924c-0.543,0 -1.044,0.102 -1.501,0.309c-0.461,0.205 -0.84,0.468 -1.139,0.784l0.001,10.781l-4.183,0l-0.001,-20.492l4.185,0l-0.002,6.904c0.449,-0.372 0.991,-0.682 1.629,-0.925c0.635,-0.244 1.347,-0.364 2.133,-0.364c1.873,0 3.327,0.575 4.367,1.726c1.036,1.15 1.556,2.858 1.556,5.122l0.001,8.029l-4.184,0l0.002,-7.973c0,-1.384 -0.24,-2.381 -0.715,-2.987c-0.478,-0.609 -1.196,-0.914 -2.149,-0.914" style="fill:#999;fill-rule:nonzero;"/><path d="M129.419,9.256l2.639,9.657l2.693,-9.657l4.268,0l-4.745,14.542l-4.267,0l-2.471,-9.347l-2.47,9.347l-4.264,0l-4.746,-14.542l4.265,0l2.696,9.657l2.636,-9.657l3.766,0Z" style="fill:#999;fill-rule:nonzero;"/><path d="M144.973,24.134c-0.75,0 -1.452,-0.101 -2.105,-0.308c-0.656,-0.206 -1.227,-0.506 -1.712,-0.899c-0.486,-0.393 -0.87,-0.879 -1.152,-1.459c-0.281,-0.58 -0.421,-1.245 -0.418,-1.993c-0.003,-1.515 0.569,-2.727 1.709,-3.635c1.142,-0.908 2.809,-1.362 4.998,-1.362l2.695,0l-0.001,-0.667c-0.001,-0.703 -0.208,-1.194 -0.632,-1.471c-0.422,-0.278 -1.137,-0.416 -2.146,-0.416c-0.898,0 -1.779,0.114 -2.639,0.342c-0.862,0.231 -1.646,0.537 -2.359,0.92l-0.393,-2.976c0.73,-0.371 1.615,-0.682 2.653,-0.924c1.037,-0.245 2.091,-0.365 3.159,-0.365c2.262,0 3.92,0.425 4.967,1.274c1.048,0.854 1.572,2.282 1.572,4.283l0.002,9.32l-4.184,0l0,-0.955c-0.619,0.468 -1.222,0.803 -1.812,0.997c-0.588,0.196 -1.323,0.294 -2.202,0.294m1.01,-2.891c0.579,0 1.141,-0.096 1.685,-0.294c0.542,-0.197 0.981,-0.501 1.317,-0.914l0.001,-2.694l-2.556,0c-0.954,0 -1.627,0.183 -2.019,0.548c-0.396,0.366 -0.592,0.868 -0.592,1.501c0.002,0.638 0.192,1.103 0.577,1.406c0.384,0.297 0.914,0.447 1.587,0.447" style="fill:#999;fill-rule:nonzero;"/><path d="M160.056,23.771l-5.84,-14.515l4.38,0l3.451,9.657l3.428,-9.657l4.378,0l-7.44,19.96l-4.38,0l2.023,-5.445Z" style="fill:#999;fill-rule:nonzero;"/><path d="M176.171,24.134c-0.994,0 -1.947,-0.093 -2.863,-0.28c-0.918,-0.188 -1.769,-0.478 -2.557,-0.87l0.198,-3.368c0.71,0.488 1.475,0.861 2.288,1.122c0.813,0.264 1.661,0.395 2.54,0.395c1.516,0 2.275,-0.488 2.273,-1.461c0,-0.207 -0.044,-0.395 -0.126,-0.562c-0.085,-0.168 -0.237,-0.332 -0.464,-0.49c-0.222,-0.157 -0.524,-0.314 -0.897,-0.465c-0.375,-0.149 -0.842,-0.306 -1.404,-0.475c-1.517,-0.432 -2.619,-1.027 -3.311,-1.784c-0.694,-0.758 -1.04,-1.652 -1.039,-2.68c-0.001,-1.404 0.509,-2.47 1.529,-3.2c1.021,-0.73 2.492,-1.095 4.421,-1.095c0.88,0 1.728,0.084 2.54,0.252c0.815,0.169 1.577,0.402 2.288,0.701l-0.308,3.088c-0.602,-0.318 -1.254,-0.57 -1.965,-0.757c-0.712,-0.185 -1.433,-0.281 -2.163,-0.281c-0.767,0 -1.311,0.103 -1.627,0.31c-0.319,0.204 -0.478,0.474 -0.478,0.814c0,0.411 0.187,0.767 0.561,1.066c0.375,0.3 1.104,0.608 2.191,0.923c0.859,0.265 1.574,0.554 2.146,0.873c0.572,0.319 1.031,0.664 1.377,1.038c0.348,0.374 0.594,0.778 0.742,1.207c0.15,0.432 0.225,0.881 0.227,1.348c-0.002,1.499 -0.509,2.642 -1.53,3.439c-1.021,0.795 -2.55,1.192 -4.589,1.192" style="fill:#999;fill-rule:nonzero;"/><path d="M61.61,40.486c0.08,1.2 0.491,2.158 1.228,2.879c0.736,0.719 1.736,1.08 3,1.08c0.745,0 1.429,-0.084 2.053,-0.255c0.623,-0.168 1.21,-0.481 1.76,-0.935l0.22,1.968c-0.519,0.323 -1.122,0.573 -1.81,0.754c-0.689,0.177 -1.444,0.265 -2.271,0.265c-1.035,0 -1.947,-0.169 -2.733,-0.509c-0.784,-0.34 -1.441,-0.806 -1.967,-1.397c-0.526,-0.592 -0.924,-1.287 -1.19,-2.09c-0.268,-0.801 -0.401,-1.67 -0.401,-2.611c0,-0.985 0.134,-1.881 0.401,-2.682c0.267,-0.802 0.648,-1.49 1.142,-2.064c0.493,-0.575 1.094,-1.02 1.798,-1.338c0.704,-0.316 1.485,-0.473 2.345,-0.473c0.906,0 1.716,0.161 2.428,0.486c0.713,0.322 1.313,0.779 1.798,1.372c0.485,0.591 0.854,1.295 1.106,2.114c0.251,0.818 0.377,1.711 0.377,2.683l0,0.376c0,0.121 -0.009,0.248 -0.025,0.377l-9.259,0Zm7.167,-1.749c-0.082,-1.182 -0.435,-2.12 -1.057,-2.817c-0.623,-0.694 -1.469,-1.045 -2.538,-1.045c-1.069,0 -1.911,0.351 -2.528,1.045c-0.615,0.697 -0.964,1.636 -1.044,2.817l7.167,0Z" style="fill:#999;fill-rule:nonzero;"/><path d="M78.65,34.875c-0.727,0 -1.381,0.147 -1.956,0.435c-0.573,0.295 -1.04,0.676 -1.396,1.143l0,9.498l-2.04,0l0,-12.582l2.04,0l0,1.02c0.421,-0.388 0.937,-0.705 1.543,-0.947c0.606,-0.242 1.3,-0.363 2.077,-0.363c1.618,0 2.894,0.482 3.825,1.445c0.931,0.963 1.396,2.402 1.396,4.312l0,7.116l-2.039,0l0,-7.166c0,-1.375 -0.288,-2.369 -0.864,-2.987c-0.573,-0.617 -1.435,-0.924 -2.586,-0.924" style="fill:#999;fill-rule:nonzero;"/><path d="M95.764,33.369l2.04,0l0,11.662c0,2.039 -0.472,3.512 -1.41,4.42c-0.938,0.906 -2.412,1.359 -4.421,1.359c-1.586,0 -2.996,-0.332 -4.226,-0.996l0.146,-2.088c0.632,0.42 1.29,0.739 1.979,0.959c0.688,0.219 1.421,0.327 2.197,0.327c1.265,0 2.194,-0.272 2.795,-0.813c0.6,-0.543 0.899,-1.502 0.899,-2.881l0,-0.631c-0.422,0.406 -0.932,0.725 -1.532,0.961c-0.598,0.235 -1.269,0.352 -2.015,0.352c-0.778,0 -1.515,-0.151 -2.21,-0.449c-0.697,-0.301 -1.308,-0.728 -1.834,-1.287c-0.527,-0.56 -0.94,-1.239 -1.239,-2.042c-0.299,-0.8 -0.449,-1.703 -0.449,-2.708c0,-1.004 0.15,-1.901 0.449,-2.698c0.299,-0.789 0.712,-1.468 1.239,-2.027c0.526,-0.557 1.137,-0.988 1.834,-1.287c0.695,-0.299 1.432,-0.449 2.21,-0.449c0.746,0 1.417,0.114 2.016,0.34c0.601,0.229 1.11,0.543 1.532,0.947l0,-0.971Zm0,3.059c-0.374,-0.519 -0.846,-0.911 -1.422,-1.176c-0.574,-0.269 -1.228,-0.401 -1.956,-0.401c-0.533,0 -1.036,0.102 -1.506,0.305c-0.468,0.201 -0.874,0.496 -1.214,0.885c-0.341,0.388 -0.608,0.874 -0.802,1.458c-0.195,0.582 -0.291,1.255 -0.291,2.016c0,0.763 0.096,1.433 0.291,2.017c0.193,0.584 0.461,1.072 0.802,1.47c0.34,0.397 0.746,0.696 1.214,0.897c0.47,0.203 0.973,0.305 1.506,0.305c0.729,0 1.382,-0.139 1.956,-0.414c0.576,-0.273 1.048,-0.672 1.422,-1.189l0,-6.173Z" style="fill:#999;fill-rule:nonzero;"/><rect x="101.058" y="28.216" width="2.04" height="17.734" style="fill:#999;"/><path d="M110.26,46.242c-0.695,0 -1.34,-0.084 -1.93,-0.254c-0.593,-0.169 -1.106,-0.421 -1.544,-0.753c-0.438,-0.332 -0.776,-0.746 -1.018,-1.239c-0.244,-0.494 -0.366,-1.072 -0.366,-1.736c0,-1.28 0.477,-2.297 1.433,-3.049c0.954,-0.752 2.317,-1.129 4.081,-1.129l3.159,0l0,-0.873c0,-0.877 -0.257,-1.484 -0.766,-1.824c-0.511,-0.34 -1.332,-0.51 -2.467,-0.51c-0.679,0 -1.393,0.084 -2.138,0.258c-0.745,0.168 -1.409,0.414 -1.99,0.738l-0.219,-1.822c0.598,-0.291 1.282,-0.524 2.052,-0.705c0.77,-0.178 1.549,-0.266 2.347,-0.266c0.841,0 1.584,0.08 2.233,0.242c0.647,0.161 1.193,0.426 1.639,0.79c0.446,0.365 0.781,0.842 1.008,1.433c0.228,0.592 0.341,1.315 0.341,2.176l0,8.233l-2.04,0l0,-0.974c-0.438,0.425 -0.985,0.74 -1.638,0.951c-0.658,0.207 -1.384,0.313 -2.177,0.313m0.195,-1.797c0.778,0 1.486,-0.129 2.125,-0.389c0.64,-0.258 1.138,-0.646 1.495,-1.166l0,-3.059l-3.062,0c-1.215,0 -2.105,0.213 -2.673,0.643c-0.565,0.43 -0.85,1.008 -0.85,1.736c0,0.777 0.275,1.344 0.826,1.701c0.551,0.357 1.265,0.534 2.139,0.534" style="fill:#999;fill-rule:nonzero;"/><path d="M124.525,34.875c-0.728,0 -1.38,0.147 -1.954,0.435c-0.576,0.295 -1.04,0.676 -1.397,1.143l0,9.498l-2.04,0l0,-12.582l2.04,0l0,1.02c0.422,-0.388 0.937,-0.705 1.542,-0.947c0.608,-0.242 1.3,-0.363 2.077,-0.363c1.62,0 2.896,0.482 3.826,1.445c0.93,0.963 1.396,2.402 1.396,4.312l0,7.116l-2.04,0l0,-7.166c0,-1.375 -0.287,-2.369 -0.862,-2.987c-0.575,-0.617 -1.439,-0.924 -2.588,-0.924" style="fill:#999;fill-rule:nonzero;"/><path d="M141.674,44.978c-0.422,0.391 -0.935,0.697 -1.542,0.924c-0.607,0.228 -1.269,0.34 -1.979,0.34c-0.829,0 -1.596,-0.147 -2.308,-0.448c-0.715,-0.3 -1.334,-0.737 -1.859,-1.312c-0.527,-0.574 -0.941,-1.268 -1.24,-2.076c-0.298,-0.812 -0.449,-1.725 -0.449,-2.746c0,-1.021 0.151,-1.934 0.449,-2.745c0.299,-0.81 0.713,-1.5 1.24,-2.077c0.525,-0.574 1.145,-1.012 1.859,-1.311c0.712,-0.301 1.479,-0.449 2.308,-0.449c0.711,0 1.372,0.113 1.979,0.341c0.607,0.226 1.12,0.534 1.542,0.921l0,-6.122l2.04,0l0,17.733l-2.04,0l0,-0.973Zm0,-8.55c-0.373,-0.5 -0.851,-0.886 -1.434,-1.153c-0.583,-0.267 -1.215,-0.399 -1.896,-0.399c-0.565,0 -1.092,0.103 -1.576,0.303c-0.486,0.202 -0.908,0.509 -1.266,0.91c-0.355,0.405 -0.631,0.903 -0.825,1.494c-0.194,0.593 -0.29,1.286 -0.29,2.077c0,0.795 0.096,1.49 0.29,2.089c0.194,0.6 0.47,1.097 0.825,1.495c0.357,0.396 0.779,0.695 1.266,0.898c0.484,0.202 1.011,0.303 1.576,0.303c0.682,0 1.313,-0.133 1.896,-0.4c0.583,-0.267 1.061,-0.652 1.434,-1.154l0,-6.463Z" style="fill:#999;fill-rule:nonzero;"/></svg>