<svg width="100px" height="100px" viewBox="0 0 26 28" xmlns="http://www.w3.org/2000/svg" stroke-linejoin="round"><style>.a{fill:none;stroke-width:1px;stroke:#505d68;}.b{fill:#fff;}</style><path d="M7 21.6c0.6-1.2 1.8-2.1 3.2-2.1 1.4 0 2.7 0.9 3.2 2.1l10.6 0c0.8 0 1.4 0.6 1.4 1.4 0 0.8-0.6 1.4-1.4 1.4l-10.5 0c-0.5 1.2-1.8 2.1-3.2 2.1 -1.4 0-2.7-0.9-3.2-2.1l-5.6 0c-0.8 0-1.4-0.6-1.4-1.4 0-0.8 0.6-1.4 1.4-1.4l5.6 0Zm10.3-9.5c0.6-1.2 1.8-2 3.2-2 1.4 0 2.6 0.8 3.2 2l0.3 0c0.8 0 1.4 0.6 1.4 1.4 0 0.8-0.6 1.4-1.4 1.4l-0.3 0c-0.5 1.3-1.8 2.2-3.2 2.2 -1.5 0-2.7-0.9-3.2-2.2l-15.8 0c-0.8 0-1.4-0.6-1.4-1.4 0-0.8 0.6-1.4 1.4-1.4l15.9 0Zm-13.8-9.5c0.6-1.2 1.8-2.1 3.2-2.1 1.4 0 2.7 0.9 3.2 2.1l14.1 0c0.8 0 1.4 0.6 1.4 1.4 0 0.8-0.6 1.4-1.4 1.4l-14.1 0c-0.6 1.2-1.8 2.1-3.2 2.1 -1.4 0-2.7-0.8-3.2-2.1l-2.1 0c-0.8 0-1.4-0.6-1.4-1.4 0-0.8 0.6-1.4 1.4-1.4l2 0Z" fill="#2962ff"/><circle cx="6.6" cy="4.1" r="3.6" class="a"/><circle cx="6.6" cy="4.1" r="1.9" class="b"/><circle cx="20.6" cy="13.5" r="1.9" class="b"/><circle cx="10.2" cy="22.9" r="1.9" class="b"/><circle cx="20.6" cy="13.5" r="3.6" class="a"/><circle cx="10.2" cy="22.9" r="3.6" class="a"/></svg>