<svg width="100px" height="100px" viewBox="0 0 26 26" xmlns="http://www.w3.org/2000/svg" stroke-linejoin="round"><style>.a{fill:#505d68;}</style><path d="M23.2 23.4l0-1.3c0-0.4 0.5-0.4 0.5 0l0 1.3c0.4 0 0.9 0 1.3 0 0.3 0 0.3 0.5 0 0.5l-1.3 0 0 1.3c0 0.3-0.5 0.3-0.5 0l0-1.3 -1.3 0c-0.4 0-0.4-0.5 0-0.5 0.4 0 0.9 0 1.3 0Z" class="a"/><path d="M1.6 1.6l0-1.3c0-0.4 0.5-0.4 0.5 0l0 1.3c0.4 0 0.9 0 1.3 0 0.3 0 0.3 0.5 0 0.5l-1.3 0 0 1.3c0 0.3-0.5 0.3-0.5 0l0-1.3 -1.3 0c-0.4 0-0.4-0.5 0-0.5 0.4 0 0.9 0 1.3 0Z" class="a"/><path d="M17.6 0.8c-1.6 0.9-3 2.4-4 4.1 -1.5 0.6-2.9 1.4-4.2 2.5 -0.7 0.6-1.3 1.2-1.9 1.9 -0.2 0.3-0.3 0.3-0.4 0.5 -2.4 3.2-3.4 7.2-3.8 11.2l0 0c-0.2 0-0.1 0-0.7 0.1 -0.4 0-0.9 0-1.3 0.1 -0.4 0.1-0.9 0.3-1 0.4 0 0 0 0 0 0 0.4-5.1 1.7-10.1 4.9-14.1 3-3.7 7.6-5.8 12.4-6.7Z" class="a"/><path d="M23.7 0.3c2 0.2 2 2.7 0.1 3 -1 0.2-3.2 0.1-4.9 1.6 -2.8 2.4-3.5 6.4-4.5 9.4 -0.9 2.7-2 5.5-4 7.6 -2.1 2.2-5.2 3.4-8.5 3.4 -1.5 0-2.1-1.8-1-2.7 0.5-0.4 1.4-0.3 2.4-0.4 2.2-0.2 4.2-1.3 5.6-3.2 3.4-4.6 3.3-11.1 7.2-15.5 0.2-0.2 0.3-0.4 0.5-0.5 1.8-1.8 4.4-2.6 7-2.6 0 0 0.1 0 0.1 0Z" fill="#2962ff"/><path d="M12.2 21.1c2.4-0.9 4.5-2.2 6.1-4.4 2.6-3.5 3.5-8 3.7-12.3 0.3 0 0.5-0.1 0.7-0.1 0.5 0 1-0.1 1.4-0.2 0.3-0.1 0.7-0.2 0.8-0.3 0.1 0.3 0.1 0.5 0.1 0.8 -0.4 7.6-2.6 15.6-11.2 19.1 -2.2 0.9-4.5 1.3-6.9 1.5 2.3-0.9 4.1-2.4 5.3-4.1Z" class="a"/></svg>