<svg width="100px" height="100px" viewBox="0 0 28 27" xmlns="http://www.w3.org/2000/svg" stroke-linejoin="round"><style>.a{fill:#505d68;}.b{fill:#fff;}</style><path d="M25.4 24.2l0-1.8c0-0.4 0.5-0.4 0.5 0l0 1.8c0.4 0 0.9 0 1.3 0 0.3 0 0.3 0.5 0 0.5l-1.3 0 0 1.3c0 0.3-0.5 0.3-0.5 0l0-1.3 -1.7 0c-0.4 0-0.4-0.5 0-0.5 0.4 0 1.3 0 1.7 0Z" class="a"/><path d="M10.3 2.6c0-1.2-1-2.2-2.2-2.2 -1.8 0-4.2 0-6 0 -1.2 0-2.2 1-2.2 2.2 0 3.3 0 9.5 0 12.8 0 1.2 1 2.2 2.2 2.2 1.8 0 4.2 0 6 0 1.2 0 2.2-1 2.2-2.2 0-3.3 0-9.5 0-12.8Z" class="a"/><path d="M3.2 3.6c0-0.3-0.2-0.5-0.5-0.5l-1 0c-0.3 0-0.5 0.2-0.5 0.5l0 1c0 0.3 0.2 0.5 0.5 0.5l1 0c0.3 0 0.5-0.2 0.5-0.5l0-1Z" class="b"/><path d="M6.1 3.6c0-0.3-0.2-0.5-0.5-0.5l-1 0c-0.3 0-0.5 0.2-0.5 0.5l0 1c0 0.3 0.2 0.5 0.5 0.5l1 0c0.3 0 0.5-0.2 0.5-0.5l0-1Z" class="b"/><path d="M9 3.6c0-0.3-0.2-0.5-0.5-0.5l-1 0c-0.3 0-0.5 0.2-0.5 0.5l0 1c0 0.3 0.2 0.5 0.5 0.5l1 0c0.3 0 0.5-0.2 0.5-0.5l0-1Z" class="b"/><path d="M3.2 7c0-0.3-0.2-0.5-0.5-0.5l-1 0c-0.3 0-0.5 0.2-0.5 0.5l0 1c0 0.3 0.2 0.5 0.5 0.5l1 0c0.3 0 0.5-0.2 0.5-0.5l0-1Z" class="b"/><path d="M6.1 7c0-0.3-0.2-0.5-0.5-0.5l-1 0c-0.3 0-0.5 0.2-0.5 0.5l0 1c0 0.3 0.2 0.5 0.5 0.5l1 0c0.3 0 0.5-0.2 0.5-0.5l0-1Z" class="b"/><path d="M9 7c0-0.3-0.2-0.5-0.5-0.5l-1 0c-0.3 0-0.5 0.2-0.5 0.5l0 1c0 0.3 0.2 0.5 0.5 0.5l1 0c0.3 0 0.5-0.2 0.5-0.5l0-1Z" class="b"/><path d="M3.2 10.3c0-0.3-0.2-0.5-0.5-0.5l-1 0c-0.3 0-0.5 0.2-0.5 0.5l0 1c0 0.3 0.2 0.5 0.5 0.5l1 0c0.3 0 0.5-0.2 0.5-0.5l0-1Z" class="b"/><path d="M6.1 10.3c0-0.3-0.2-0.5-0.5-0.5l-1 0c-0.3 0-0.5 0.2-0.5 0.5l0 1c0 0.3 0.2 0.5 0.5 0.5l1 0c0.3 0 0.5-0.2 0.5-0.5l0-1Z" class="b"/><path d="M9 10.3c0-0.3-0.2-0.5-0.5-0.5l-1 0c-0.3 0-0.5 0.2-0.5 0.5l0 1c0 0.3 0.2 0.5 0.5 0.5l1 0c0.3 0 0.5-0.2 0.5-0.5l0-1Z" class="b"/><path d="M3.2 13.7c0-0.3-0.2-0.5-0.5-0.5l-1 0c-0.3 0-0.5 0.2-0.5 0.5l0 1c0 0.3 0.2 0.5 0.5 0.5l1 0c0.3 0 0.5-0.2 0.5-0.5l0-1Z" class="b"/><path d="M6.1 13.7c0-0.3-0.2-0.5-0.5-0.5l-1 0c-0.3 0-0.5 0.2-0.5 0.5l0 1c0 0.3 0.2 0.5 0.5 0.5l1 0c0.3 0 0.5-0.2 0.5-0.5l0-1Z" class="b"/><path d="M9 13.7c0-0.3-0.2-0.5-0.5-0.5l-1 0c-0.3 0-0.5 0.2-0.5 0.5l0 1c0 0.3 0.2 0.5 0.5 0.5l1 0c0.3 0 0.5-0.2 0.5-0.5l0-1Z" class="b"/><path d="M25.9 24.5l-0.5 0 0-1.2 0.5 0 0 1.3Zm0-1.7l-0.5 0 0-1.2 0.5 0 0 1.3Zm0-1.7l-0.5 0 0-1.2 0.5 0 0 1.3Zm0-1.7l-0.5 0 0-1.2 0.5 0 0 1.3Zm0-1.7l-0.5 0 0-1.2 0.5 0 0 1.3Zm0-1.7l-0.5 0 0-1.2 0.5 0 0 1.3Zm0-1.7l-0.5 0 0-1.2 0.5 0 0 1.3Zm0-1.7l-0.5 0 0-1.2 0.5 0 0 1.3Zm0-1.7l-0.5 0 0-1.2 0.5 0 0 1.3Zm0-1.7l-0.5 0 0-1.2 0.5 0 0 1.3Zm0-1.7l-0.5 0 0-1.2 0.5 0 0 1.3Zm0-1.7l-0.5 0 0-1.2 0.5 0 0 1.3Zm0-1.7l-0.5 0 0-0.6 0.5 0 0 0.6Z" class="a"/><path d="M25.7 24.7l-1.2 0 0-0.5 1.3 0 0 0.5Zm-1.7 0l-1.2 0 0-0.5 1.3 0 0 0.5Zm-1.7 0l-1.2 0 0-0.5 1.3 0 0 0.5Zm-1.7 0l-1.2 0 0-0.5 1.3 0 0 0.5Zm-1.7 0l-1.2 0 0-0.5 1.3 0 0 0.5Zm-1.7 0l-1.2 0 0-0.5 1.3 0 0 0.5Zm-1.7 0l-1.2 0 0-0.5 1.3 0 0 0.5Zm-1.7 0l-1.2 0 0-0.5 1.3 0 0 0.5Zm-1.7 0l-1.2 0 0-0.5 1.3 0 0 0.5Zm-1.7 0l-1.2 0 0-0.5 1.3 0 0 0.5Zm-1.7 0l-1.2 0 0-0.5 1.3 0 0 0.5Zm-1.7 0l-1.2 0 0-0.5 1.3 0 0 0.5Zm-1.7 0l-0.6 0 0-0.5 0.6 0 0 0.5Z" class="a"/><path d="M23.4 15.5c0.1 0 0.2 0.1 0.2 0.2l0 6.6 -0.1 0.1 -6.8 0c-0.5 0-0.2-0.5 0-0.5l6.4 0c0 0 0-6.3 0-6.3 0-0.1 0.1-0.2 0.3-0.2Z" class="a"/><path d="M18.7 17.7l-1.9 0 0-1.9 1.9 0 0 1.9Zm-1.4-1.4l0 0.9 0.9 0 0-0.9 -0.9 0Z" class="a"/><path d="M18 22.2l-0.5 0 0-0.2 0.5 0 0 0.3Zm0-0.5l-0.5 0 0-0.2 0.5 0 0 0.3Zm0-0.5l-0.5 0 0-0.2 0.5 0 0 0.3Zm0-0.5l-0.5 0 0-0.2 0.5 0 0 0.3Zm0-0.5l-0.5 0 0-0.2 0.5 0 0 0.3Zm0-0.5l-0.5 0 0-0.2 0.5 0 0 0.3Zm0-0.5l-0.5 0 0-0.2 0.5 0 0 0.3Zm0-0.5l-0.5 0 0-0.2 0.5 0 0 0.3Zm0-0.5l-0.5 0 0-0.2 0.5 0 0 0.3Zm0-0.5l-0.5 0 0-0.2 0.5 0 0 0.2Z" class="a"/><path d="M18.7 17l-0.2 0 0-0.5 0.3 0 0 0.5Zm0.5 0l-0.2 0 0-0.5 0.3 0 0 0.5Zm0.5 0l-0.2 0 0-0.5 0.3 0 0 0.5Zm0.5 0l-0.2 0 0-0.5 0.3 0 0 0.5Zm0.5 0l-0.2 0 0-0.5 0.3 0 0 0.5Zm0.5 0l-0.2 0 0-0.5 0.3 0 0 0.5Zm0.5 0l-0.2 0 0-0.5 0.3 0 0 0.5Zm0.5 0l-0.2 0 0-0.5 0.3 0 0 0.5Zm0.5 0l-0.2 0 0-0.5 0.3 0 0 0.5Zm0.5 0l-0.2 0 0-0.5 0.2 0 0 0.5Z" class="a"/><path d="M24.6 0c2 0.2 2 2.7 0.1 3 -1 0.2-3.2 0.1-4.9 1.6 -2.8 2.4-3.5 6.4-4.5 9.4 -0.9 2.7-2 5.5-4 7.6 -2.1 2.2-5.2 3.4-8.5 3.4 -1.5 0-2.1-1.8-1-2.7 0.5-0.4 1.4-0.3 2.4-0.4 2.2-0.2 4.2-1.3 5.6-3.2 3.4-4.6 3.3-11.1 7.2-15.5 0.2-0.2 0.3-0.4 0.5-0.5 1.8-1.8 4.4-2.6 7-2.6 0 0 0.1 0 0.1 0Z" fill="#2962ff"/></svg>