<svg width="100px" height="100px" viewBox="0 0 29 29" xmlns="http://www.w3.org/2000/svg" stroke-linejoin="round"><style>.a{fill:#505d68;}.b{fill:#fff;}.c{fill:#2962ff;}</style><path d="M25.4 0c1.9 0 3.5 1.6 3.5 3.5 0 1.9-1.6 3.5-3.5 3.5 -1.9 0-3.5-1.6-3.5-3.5 0-1.9 1.6-3.5 3.5-3.5Zm0 0.9c1.5 0 2.6 1.2 2.6 2.6 0 1.5-1.2 2.6-2.6 2.6 -1.5 0-2.6-1.2-2.6-2.6 0-1.5 1.2-2.6 2.6-2.6Z" class="a"/><path d="M3.5 21.9c1.9 0 3.5 1.6 3.5 3.5 0 1.9-1.6 3.5-3.5 3.5 -1.9 0-3.5-1.6-3.5-3.5 0-1.9 1.6-3.5 3.5-3.5Zm0 0.9c1.5 0 2.6 1.2 2.6 2.6 0 1.5-1.2 2.6-2.6 2.6 -1.5 0-2.6-1.2-2.6-2.6 0-1.5 1.2-2.6 2.6-2.6Z" class="a"/><circle cx="3.5" cy="25.4" r="1.9" class="b"/><circle cx="14.5" cy="25.4" r="1.9" class="c"/><circle cx="25.4" cy="3.5" r="1.9" class="b"/><circle cx="14.5" cy="3.5" r="1.9" class="c"/><circle cx="3.5" cy="3.5" r="1.9" class="c"/><path d="M16.4 14.4c0 1-0.8 1.9-1.9 1.9 -1 0-1.9-0.8-1.9-1.9 0-1 0.8-1.9 1.9-1.9 1 0 1.9 0.8 1.9 1.9Z" class="c"/><path d="M5.4 14.4c0 1-0.8 1.9-1.9 1.9 -1 0-1.9-0.8-1.9-1.9 0-1 0.8-1.9 1.9-1.9 1 0 1.9 0.8 1.9 1.9Z" class="c"/><path d="M27.3 14.4c0 1-0.8 1.9-1.9 1.9 -1 0-1.9-0.8-1.9-1.9 0-1 0.8-1.9 1.9-1.9 1 0 1.9 0.8 1.9 1.9Z" class="c"/><circle cx="25.4" cy="25.4" r="1.9" class="c"/><path d="M4 19.4c0-0.3-0.2-0.5-0.5-0.5 -0.3 0-0.5 0.2-0.5 0.5l0 2.9c0 0.3 0.2 0.5 0.5 0.5 0.3 0 0.5-0.2 0.5-0.5l0-2.9Z" class="a"/><path d="M24.9 9.5c0 0.3 0.2 0.5 0.5 0.5 0.3 0 0.5-0.2 0.5-0.5l0-2.9c0-0.3-0.2-0.5-0.5-0.5 -0.3 0-0.5 0.2-0.5 0.5l0 2.9Z" class="a"/><path d="M9.5 25.9c0.3 0 0.5-0.2 0.5-0.5 0-0.3-0.2-0.5-0.5-0.5l-2.9 0c-0.3 0-0.5 0.2-0.5 0.5 0 0.3 0.2 0.5 0.5 0.5l2.9 0Z" class="a"/><path d="M19.4 3c-0.3 0-0.5 0.2-0.5 0.5 0 0.3 0.2 0.5 0.5 0.5l2.9 0c0.3 0 0.5-0.2 0.5-0.5 0-0.3-0.2-0.5-0.5-0.5l-2.9 0Z" class="a"/><path d="M8.1 21.5c0.2-0.2 0.2-0.5 0-0.7 -0.2-0.2-0.5-0.2-0.7 0l-2 2c-0.2 0.2-0.2 0.5 0 0.7 0.2 0.2 0.5 0.2 0.7 0l2-2Z" class="a"/><path d="M12 17.6c0.2-0.2 0.2-0.5 0-0.7 -0.2-0.2-0.5-0.2-0.7 0l-2 2c-0.2 0.2-0.2 0.5 0 0.7 0.2 0.2 0.5 0.2 0.7 0l2-2Z" class="a"/><path d="M19.7 10c0.2-0.2 0.2-0.5 0-0.7 -0.2-0.2-0.5-0.2-0.7 0l-2 2c-0.2 0.2-0.2 0.5 0 0.7 0.2 0.2 0.5 0.2 0.7 0l2-2Z" class="a"/><path d="M23.5 6.1c0.2-0.2 0.2-0.5 0-0.7 -0.2-0.2-0.5-0.2-0.7 0l-2 2c-0.2 0.2-0.2 0.5 0 0.7 0.2 0.2 0.5 0.2 0.7 0l2-2Z" class="a"/></svg>