<svg width="auto" height="auto" viewBox="0 0 843 596" xmlns="http://www.w3.org/2000/svg" stroke-linejoin="round"><style>.a{fill:rgb(204,204,204);}.b{fill:#FFFFFF;}</style><g transform="matrix(1 0 0 1 0.479212 1.01252e-13)"><path d="M545.6 326.6L544.8 326.6 845.2 26.2 845.2 27 545.6 326.6ZM578.9 326.6L578.1 326.6 845.2 59.6 845.2 60.3 578.9 326.6ZM612.3 326.6L611.5 326.6 845.2 92.9 845.2 93.7 612.3 326.6ZM645.6 326.6L644.8 326.6 845.2 126.2 845.2 127 645.6 326.6ZM678.9 326.6L678.1 326.6 845.2 159.6 845.2 160.4 678.9 326.6ZM712.3 326.6L711.5 326.6 845.2 192.9 845.2 193.7 712.3 326.6ZM745.6 326.6L744.8 326.6 845.2 226.3 845.2 227.1 745.6 326.6ZM779 326.6L778.2 326.6 845.2 259.6 845.2 260.4 779 326.6ZM812.3 326.6L811.5 326.6 845.2 293 845.2 293.8 812.3 326.6ZM844.4-6.1L511.7 326.6 511.3 326.2 843.6-6.1 844.4-6.1ZM529.6 326.6L528.8 326.6 845.2 10.3 845.2 11 529.6 326.6ZM563 326.6L562.2 326.6 845.2 43.6 845.2 44.4 563 326.6ZM596.3 326.6L595.5 326.6 845.2 76.9 845.2 77.7 596.3 326.6ZM629.7 326.6L628.9 326.6 845.2 110.3 845.2 111.1 629.7 326.6ZM663 326.6L662.2 326.6 845.2 143.6 845.2 144.4 663 326.6ZM696.4 326.6L695.6 326.6 845.2 177 845.2 177.8 696.4 326.6ZM729.7 326.6L728.9 326.6 845.2 210.3 845.2 211.1 729.7 326.6ZM763 326.6L762.2 326.6 845.2 243.7 845.2 244.5 763 326.6ZM796.4 326.6L795.6 326.6 845.2 277 845.2 277.8 796.4 326.6ZM844.4-22.1L511.7 310.7 511.3 310.3 843.6-22.1 844.4-22.1ZM512.4 292.5L512.4 291.7 826.2-22.1 827-22.1 512.4 292.5ZM512.4 276.6L512.4 275.8 810.3-22.1 811.1-22.1 512.4 276.6ZM512.4 259.2L512.4 258.4 792.9-22.1 793.7-22.1 512.4 259.2ZM512.4 243.2L512.4 242.4 776.9-22.1 777.7-22.1 512.4 243.2ZM512.4 225.8L512.4 225 759.6-22.1 760.3-22.1 512.4 225.8ZM512.4 209.9L512.4 209.1 743.6-22.1 744.4-22.1 512.4 209.9ZM512.4 192.5L512.4 191.7 726.2-22.1 727-22.1 512.4 192.5ZM512.4 176.5L512.4 175.7 710.3-22.1 711.1-22.1 512.4 176.5ZM512.4 159.1L512.4 158.3 692.9-22.1 693.7-22.1 512.4 159.1ZM512.4 143.2L512.4 142.4 676.9-22.1 677.7-22.1 512.4 143.2ZM512.4 125.8L512.4 125 659.5-22.1 660.3-22.1 512.4 125.8ZM512.4 109.8L512.4 109 643.6-22.1 644.4-22.1 512.4 109.8ZM512.4 92.5L512.4 91.7 626.2-22.1 627-22.1 512.4 92.5ZM512.4 76.5L512.4 75.7 610.2-22.1 611-22.1 512.4 76.5ZM512.4 59.1L512.4 58.3 592.8-22.1 593.6-22.1 512.4 59.1ZM512.4 43.2L512.4 42.4 576.9-22.1 577.7-22.1 512.4 43.2ZM512.4 25.8L512.4 25 559.5-22.1 560.3-22.1 512.4 25.8ZM512.4 9.8L512.4 9 543.5-22.1 544.3-22.1 512.4 9.8Z" class="a"/><path d="M545.6 326.6L544.8 326.6 845.2 26.2 845.2 27 545.6 326.6Z" class="a"/><path d="M578.9 326.6L578.1 326.6 845.2 59.6 845.2 60.3 578.9 326.6Z" class="a"/><path d="M612.3 326.6L611.5 326.6 845.2 92.9 845.2 93.7 612.3 326.6Z" class="a"/><path d="M645.6 326.6L644.8 326.6 845.2 126.2 845.2 127 645.6 326.6Z" class="a"/><path d="M678.9 326.6L678.1 326.6 845.2 159.6 845.2 160.4 678.9 326.6Z" class="a"/><path d="M712.3 326.6L711.5 326.6 845.2 192.9 845.2 193.7 712.3 326.6Z" class="a"/><path d="M745.6 326.6L744.8 326.6 845.2 226.3 845.2 227.1 745.6 326.6Z" class="a"/><path d="M779 326.6L778.2 326.6 845.2 259.6 845.2 260.4 779 326.6Z" class="a"/><path d="M812.3 326.6L811.5 326.6 845.2 293 845.2 293.8 812.3 326.6Z" class="a"/><path d="M844.4-6.1L511.7 326.6 511.3 326.2 843.6-6.1 844.4-6.1Z" class="a"/><path d="M529.6 326.6L528.8 326.6 845.2 10.3 845.2 11 529.6 326.6Z" class="a"/><path d="M563 326.6L562.2 326.6 845.2 43.6 845.2 44.4 563 326.6Z" class="a"/><path d="M596.3 326.6L595.5 326.6 845.2 76.9 845.2 77.7 596.3 326.6Z" class="a"/><path d="M629.7 326.6L628.9 326.6 845.2 110.3 845.2 111.1 629.7 326.6Z" class="a"/><path d="M663 326.6L662.2 326.6 845.2 143.6 845.2 144.4 663 326.6Z" class="a"/><path d="M696.4 326.6L695.6 326.6 845.2 177 845.2 177.8 696.4 326.6Z" class="a"/><path d="M729.7 326.6L728.9 326.6 845.2 210.3 845.2 211.1 729.7 326.6Z" class="a"/><path d="M763 326.6L762.2 326.6 845.2 243.7 845.2 244.5 763 326.6Z" class="a"/><path d="M796.4 326.6L795.6 326.6 845.2 277 845.2 277.8 796.4 326.6Z" class="a"/><path d="M844.4-22.1L511.7 310.7 511.3 310.3 843.6-22.1 844.4-22.1Z" class="a"/><path d="M512.4 292.5L512.4 291.7 826.2-22.1 827-22.1 512.4 292.5Z" class="a"/><path d="M512.4 276.6L512.4 275.8 810.3-22.1 811.1-22.1 512.4 276.6Z" class="a"/><path d="M512.4 259.2L512.4 258.4 792.9-22.1 793.7-22.1 512.4 259.2Z" class="a"/><path d="M512.4 243.2L512.4 242.4 776.9-22.1 777.7-22.1 512.4 243.2Z" class="a"/><path d="M512.4 225.8L512.4 225 759.6-22.1 760.3-22.1 512.4 225.8Z" class="a"/><path d="M512.4 209.9L512.4 209.1 743.6-22.1 744.4-22.1 512.4 209.9Z" class="a"/><path d="M512.4 192.5L512.4 191.7 726.2-22.1 727-22.1 512.4 192.5Z" class="a"/><path d="M512.4 176.5L512.4 175.7 710.3-22.1 711.1-22.1 512.4 176.5Z" class="a"/><path d="M512.4 159.1L512.4 158.3 692.9-22.1 693.7-22.1 512.4 159.1Z" class="a"/><path d="M512.4 143.2L512.4 142.4 676.9-22.1 677.7-22.1 512.4 143.2Z" class="a"/><path d="M512.4 125.8L512.4 125 659.5-22.1 660.3-22.1 512.4 125.8Z" class="a"/><path d="M512.4 109.8L512.4 109 643.6-22.1 644.4-22.1 512.4 109.8Z" class="a"/><path d="M512.4 92.5L512.4 91.7 626.2-22.1 627-22.1 512.4 92.5Z" class="a"/><path d="M512.4 76.5L512.4 75.7 610.2-22.1 611-22.1 512.4 76.5Z" class="a"/><path d="M512.4 59.1L512.4 58.3 592.8-22.1 593.6-22.1 512.4 59.1Z" class="a"/><path d="M512.4 43.2L512.4 42.4 576.9-22.1 577.7-22.1 512.4 43.2Z" class="a"/><path d="M512.4 25.8L512.4 25 559.5-22.1 560.3-22.1 512.4 25.8Z" class="a"/><path d="M512.4 9.8L512.4 9 543.5-22.1 544.3-22.1 512.4 9.8Z" class="a"/><path d="M520.4 1.8L520.4 1 535.6-14.1 536.3-14.1 520.4 1.8Z" class="a"/><path d="M519.1 3.2L518.3 3.1 537.2-15.8 537.2-15 519.1 3.2Z" class="a"/><g transform="matrix(1.39296 0 0 1.39296 -121.597 -125.999)"><path d="M275.6 513L277.8 514.8 280.1 515.5 279.4 516.9 277.8 517.1 276.9 516.1 276.3 517.2 274.9 518.2 273.1 517.8 271.9 516.9 270.1 516.5 268 514.9 266.3 513.3 264 510.2 265.3 510.8 267.7 512.6 269.9 513.7 270.8 512.4 271.3 510.4 272.9 509.3 274.1 509.6 274.7 510.9 275.6 513" class="b"/><path d="M291 505.4L292.4 506.6 291.9 507.6 289.6 508.4 288.9 507.5 287.4 508.7 286.6 507.5 288.6 505.8 290 506.5 291 505.4" class="b"/><path d="M633.8 480.4L635.4 481.2 636.3 480.9 637.6 480.5 638.6 480.6 638.7 483.3 638.2 484.1 638 485.9 637.4 485.3 636.2 486.9 635.9 486.7 634.8 486.7 633.8 484.7 633.6 483.2 632.6 481.2 632.7 480.2 633.8 480.4" class="b"/><path d="M680.2 480.7L680.6 481.6 681.7 480.7 682.2 481.7 682.2 482.6 681.6 483.7 680.5 485.3 679.7 486.3 680.3 487.4 679 487.4 677.5 488.3 677.1 489.8 676.1 492.3 674.8 493.3 674 494 672.4 494 671.3 493.2 669.5 493 669.2 492.1 670.1 490.3 672.2 488 673.3 487.6 674.5 486.7 676 485.5 677 484.3 677.7 482.6 678.4 482 678.6 480.8 679.8 479.8 680.2 480.7" class="b"/><path d="M682.8 470.5L684.1 472.7 684.1 471.2 684.9 471.8 685.1 473.4 686.5 474.1 687.6 474.3 688.6 473.5 689.4 473.7 689 475.6 688.5 476.9 687.2 476.8 686.8 477.5 686.9 478.4 686.7 478.8 686 480 685.2 481.5 683.9 482.4 683.6 481.8 682.9 481.5 683.9 479.7 683.3 478.5 681.5 477.6 681.6 476.8 682.8 476.1 683.1 474.4 683 473 682.3 471.6 682.4 471.3 681.6 470.4 680.2 468.6 679.5 467.1 680.2 467 681.1 468.1 682.4 468.6 682.8 470.5" class="b"/><path d="M670.3 443.4L669.6 443.9 668.7 443.4 667.5 442.6 666.4 441.6 665.3 440.3 665.1 439.7 665.8 439.7 666.7 440.4 667.5 441 668 441.5 669.4 442.6 670.3 443.4" class="b"/><path d="M671.5 433.3L670.9 433.5 670.4 432.7 670.4 432.3 671.5 433.3" class="b"/><path d="M670.2 430.6L670.5 432 670.1 431.8 669.7 431.9 669.5 431.4 669.4 430.1 670.2 430.6" class="b"/><path d="M473.5 428.2L473.8 430.3 474.2 431.1 474.1 431.9 473.8 432.5 473.2 431.4 472.9 432 473.2 433.3 473.1 434 472.6 434.4 472.5 435.9 471.8 438 471 440.4 470 443.8 469.3 446.4 468.6 448.5 467.2 449 465.7 449.7 464.8 449.3 463.4 448.6 463 447.6 462.9 446 462.3 444.5 462.1 443.2 462.4 441.9 463.2 441.6 463.2 441 464 439.7 464.1 438.5 463.8 437.7 463.4 436.6 463.3 434.9 463.9 434 464.1 432.8 465 432.8 465.9 432.4 466.5 432.1 467.2 432.1 468.2 431.1 469.6 430 470.1 429.1 469.9 428.4 470.6 428.6 471.5 427.4 471.5 426.4 472.1 425.6 472.7 426.3 473.1 427.1 473.5 428.2" class="b"/><path d="M630.7 428.6L631.3 429.9 632.4 429.3 632.9 430 633.7 430.7 633.5 431.5 633.9 433 634.2 433.8 634.6 434.1 635 435.6 634.9 436.5 635.4 437.7 637.2 438.6 638.4 439.5 639.6 440.2 639.3 440.7 640.3 441.8 640.9 443.8 641.6 443.4 642.3 444.1 642.7 443.9 643 445.8 644.2 446.9 645 447.6 646.3 449.1 646.8 450.6 646.8 451.7 646.7 452.9 647.5 454.5 647.4 456.2 647.1 457.1 646.6 458.8 646.7 459.9 646.3 461.3 645.6 463.1 644.4 464.1 643.7 465.7 643.2 466.7 642.7 468.4 642 469.5 641.6 471 641.4 472.5 641.5 473.1 640.5 473.9 638.6 473.9 637.1 474.8 636.3 475.6 635.3 476.6 633.9 475.6 632.9 475.2 633.1 474.1 632.2 474.5 630.8 476.1 629.3 475.5 628.3 475.2 627.4 475 625.8 474.4 624.7 473.1 624.4 471.5 624 470.4 623.1 469.6 621.5 469.3 622.1 468.3 621.7 466.8 620.9 468.2 619.4 468.6 620.2 467.5 620.5 466.3 621.1 465.3 621 463.8 619.6 465.5 618.6 466.2 617.9 467.9 616.6 467 616.7 465.9 615.6 464.5 614.7 463.7 615.1 463.3 612.9 462.1 611.7 462 610.1 461 607.1 461.2 604.9 461.9 603 462.6 601.4 462.5 599.6 463.5 598.2 463.9 597.8 465 597.2 465.8 595.8 465.9 594.7 466 593.3 465.7 592.1 465.9 590.9 466 589.9 467.1 589.4 467 588.6 467.6 587.8 468.2 586.5 468.1 585.4 468.1 583.6 466.8 582.7 466.4 582.8 465.3 583.6 465 583.9 464.5 583.8 463.8 584 462.4 583.8 461.3 582.9 459.3 582.7 458.2 582.7 457.1 582.1 455.8 582 455.3 581.3 454.5 581.1 453 580.1 451.5 579.9 450.7 580.6 451.5 580.1 449.8 580.9 450.3 581.4 451.1 581.4 450.1 580.5 448.6 580.4 448 580 447.5 580.2 446.4 580.5 446 580.7 445.1 580.6 444 581.2 442.7 581.4 444.1 582.1 442.8 583.4 442.2 584.3 441.5 585.5 440.8 586.3 440.6 586.8 440.9 588.1 440.2 589.1 440 589.4 439.6 589.8 439.4 590.7 439.5 592.5 439 593.4 438.2 593.9 437.2 594.8 436.3 594.9 435.6 595 434.7 596.1 433.2 596.8 434.7 597.6 434.3 597 433.5 597.5 432.7 598.2 433 598.4 431.7 599.4 430.9 599.8 430.2 600.6 429.9 600.6 429.4 601.4 429.6 601.4 429.2 602.1 428.9 602.9 428.7 604.2 429.5 605.1 430.5 606.2 430.5 607.2 430.7 606.9 429.7 607.7 428.3 608.5 427.9 608.2 427.4 608.9 426.5 609.9 425.9 610.8 426.1 612.2 425.7 612.2 424.9 610.9 424.3 611.8 424 613 424.5 613.8 425.2 615.3 425.6 615.7 425.4 616.8 426 617.8 425.5 618.4 425.6 618.8 425.3 619.6 426.1 619.1 427.1 618.5 427.8 617.9 427.8 618.1 428.5 617.6 429.4 617 430.2 617.1 430.7 618.5 431.7 619.8 432.2 620.6 432.8 621.8 433.9 622.3 433.9 623.2 434.3 623.4 434.9 625 435.5 626.2 434.9 626.5 433.9 626.8 433.1 627 432.2 627.5 430.8 627.3 430 627.4 429.5 627.2 428.5 627.5 427.2 627.8 426.8 627.5 426.2 627.9 425.3 628.2 424.4 628.3 423.9 628.9 423.3 629.4 424.1 629.5 425.2 629.9 425.4 630 426.1 630.6 427 630.7 427.9 630.7 428.6" class="b"/><path d="M661.9 422.9L662.3 423.5 661.1 423.5 660.5 422.5 661.5 422.9 661.9 422.9" class="b"/><path d="M592.3 422.5L591.6 422.6 589.3 421.4 590.9 421 591.8 421.5 592.4 422.1 592.3 422.5" class="b"/><path d="M659.7 421.9L659.1 421.9 658 421.8 657.7 421.5 657.8 420.8 658.9 421.1 659.5 421.4 659.7 421.9" class="b"/><path d="M661.1 421.4L660.9 421.7 659.6 420.3 659.3 419.3 659.8 419.3 660.4 420.6 661.1 421.4" class="b"/><path d="M598.5 422.3L597.1 422.7 596.9 422.5 597 421.9 597.8 420.9 599.4 420.2 599.6 419.8 601.1 419.4 602.2 419.4 602.8 419.2 603.4 419.4 602.8 419.8 601 420.6 599.6 421.1 598.5 422.3" class="b"/><path d="M587.5 418.9L588.2 419.3 589.2 419.2 589.6 419.9 587.7 420.2 586.5 420.5 585.6 420.5 586.2 419.5 587.1 419.5 587.5 418.9" class="b"/><path d="M596 418.9L595.7 419.8 593.2 420.3 590.9 420.1 590.9 419.5 592.3 419.1 593.3 419.6 594.4 419.5 596 418.9" class="b"/><path d="M658.1 419.3L658.2 419.6 656.8 418.9 655.9 418.3 655.3 417.7 655.5 417.6 656.3 418 657.7 418.7 658.1 419.3" class="b"/><path d="M654.2 417.6L653.8 417.7 653.1 417.3 652.4 416.6 652.5 416.3 653.5 417.1 654.2 417.6" class="b"/><path d="M572 416.6L575.2 416.8 575.5 416.1 578.7 416.9 579.3 418 581.8 418.3 583.9 419.3 581.9 420 580.1 419.3 578.6 419.3 576.8 419.2 575.3 418.9 573.3 418.3 572.1 418.1 571.4 418.3 568.3 417.6 568 416.9 566.5 416.8 567.6 415.1 569.7 415.2 571 415.9 571.7 416 572 416.6" class="b"/><path d="M615.8 415.7L615 416.8 614.8 415.6 615.1 415 615.4 414.4 615.8 414.9 615.8 415.7" class="b"/><path d="M651.4 416.7L650.9 416.9 650.2 416.2 649.4 415.2 649.1 413.9 649.3 413.7 649.5 414.2 650 414.6 650.8 415.7 651.6 416.2 651.4 416.7" class="b"/><path d="M644.8 414.4L643.9 414.6 643.7 415.1 642.8 415.5 641.9 415.9 641 415.9 639.6 415.4 638.7 414.9 638.8 414.4 640.3 414.6 641.2 414.5 641.5 413.7 641.7 413.6 641.9 414.5 642.8 414.4 643.3 413.8 644.3 413.2 644.1 412.2 645.1 412.2 645.4 412.5 645.4 413.4 644.8 414.4" class="b"/><path d="M603.3 411L602.6 411.6 601.5 411.3 601.1 410.6 602.8 410.5 603.3 411" class="b"/><path d="M608.7 410.4L609.3 411.7 607.9 411 606.5 410.9 605.5 411 604.3 410.9 604.7 410 606.8 409.9 608.7 410.4" class="b"/><path d="M646.8 412.8L646.2 413.2 645.9 412.2 645.5 411.6 644.8 411 643.8 410.3 642.6 409.8 643.1 409.4 644 409.9 644.5 410.3 645.3 410.7 645.9 411.4 646.6 411.9 646.8 412.8" class="b"/><path d="M614.8 407.2L615.3 409.9 617.1 410.9 618.5 409.1 620.4 408.1 621.9 408.1 623.3 408.7 624.6 409.3 626.4 409.6 629.3 410.8 632.4 411.7 633.5 412.6 634.5 413.4 634.7 414.4 637.5 415.5 637.9 416.4 636.4 416.5 636.8 417.7 638.3 418.8 639.4 420.6 640.3 420.5 640.3 421.3 641.6 421.6 641 421.9 642.8 422.6 642.7 423.1 641.5 423.2 641.1 422.8 639.7 422.6 638 422.3 636.7 421.2 635.7 420.3 634.8 418.8 632.7 418.1 631.2 418.6 630.2 419.1 630.4 420.4 629.1 421 628.2 420.7 626.4 420.6 624.9 419.2 623.2 418.9 622.8 419.4 620.7 419.4 621.4 418 622.4 417.6 622 415.7 621.2 414.3 617.9 412.9 616.6 412.7 614 411.2 613.5 412 612.9 412.1 612.5 411.5 612.5 410.8 611.2 410 613 409.4 614.2 409.4 614.1 408.9 611.6 408.9 611 407.9 609.5 407.6 608.8 406.8 611 406.4 611.9 405.8 614.6 406.5 614.8 407.2" class="b"/><path d="M599.9 402.8L598.5 404.5 597.3 404.8 595.7 404.5 592.9 404.6 591.4 404.8 591.1 406.1 592.6 407.6 593.6 406.8 596.7 406.3 596.6 407 595.8 406.8 595.1 407.8 593.6 408.4 595.2 410.6 594.9 411.2 596.4 413.1 596.4 414.2 595.5 414.7 594.8 414.1 595.6 412.7 594 413.4 593.6 412.9 593.8 412.3 592.6 411.3 592.7 409.6 591.6 410.1 591.7 412.1 591.8 414.5 590.7 414.8 590 414.3 590.5 412.7 590.2 411.1 589.5 411.1 589 409.9 589.7 408.8 589.9 407.5 590.8 405 591.1 404.3 592.6 403 593.9 403.5 596 403.7 597.9 403.7 599.6 402.5 599.9 402.8" class="b"/><path d="M605.7 403.3L605.6 404.8 604.7 404.6 604.5 405.6 605.2 406.5 604.7 406.7 604 405.7 603.5 403.5 603.8 402.2 604.4 401.6 604.5 402.5 605.5 402.6 605.7 403.3" class="b"/><path d="M567.2 415.1L565.4 415.1 564 413.7 561.8 412.3 561.1 411.3 559.8 409.9 559 408.7 557.7 406.3 556.2 404.9 555.7 403.5 555.1 402.2 553.6 401.1 552.7 399.7 551.5 398.7 549.7 396.9 549.6 396 550.6 396.1 553.2 396.4 554.7 398 556 399.2 557 399.9 558.5 401.7 560.3 401.7 561.7 402.9 562.6 404.3 563.9 405 563.2 406.4 564.2 407 564.8 407 565.1 408.2 565.7 409.2 566.9 409.3 567.7 410.4 567.3 412.5 567.2 415.1" class="b"/><path d="M587.5 402.1L589.4 403.7 587.4 403.9 586.8 405 586.9 406.6 585.3 407.7 585.3 409.4 584.6 412 584.4 411.4 582.4 412.1 581.8 411.1 580.6 411 579.7 410.5 577.7 411.1 577.1 410.3 576 410.3 574.6 410.2 574.4 407.9 573.6 407.4 572.7 406 572.5 404.5 572.7 403 573.7 401.8 574.9 402.4 576.2 402.1 576.6 400.7 577.3 400.4 579.3 400 580.5 398.7 581.3 397.6 582 397 583.4 396.1 584.7 394.9 585.6 393.6 586.3 393.5 587.1 394.4 587.2 395.1 588.3 395.6 589.7 396.1 589.6 396.8 588.5 396.9 588.8 397.7 587.5 398.3 586.6 399.8 587.8 401.4 587.5 402.1" class="b"/><path d="M601.8 391L602 392.2 602.1 393.1 601.5 394.7 600.9 392.9 600.1 393.8 600.6 395 600.1 395.8 598.2 394.8 597.7 393.6 598.2 392.8 597.1 392 596.6 392.7 595.8 392.7 594.6 393.6 594.3 393.1 595 391.7 596 391.2 596.9 390.6 597.5 391.3 598.8 390.9 599.1 390.1 600.3 390.1 600.2 388.7 601.5 389.5 601.7 390.4 601.8 391" class="b"/><path d="M525.9 394.8L524.4 395.2 523.6 393.8 523.3 391.4 524.1 388.6 525.3 389.6 526.1 390.8 526.9 392.5 526.6 394.3 525.9 394.8" class="b"/><path d="M287 388.1L285.6 388.3 285.3 388.2 285.8 387.7 285.8 387 286.7 386.8 287.1 386.9 287 388.1" class="b"/><path d="M597.8 387.9L597.2 388.4 596.6 389.5 596.1 390 595.1 388.8 595.4 388.4 595.8 387.9 596 386.8 597 386.7 596.7 387.9 597.9 386.2 597.8 387.9" class="b"/><path d="M588.6 389.5L586.3 391.1 587.2 389.9 588.4 388.9 589.4 387.7 590.3 386 590.6 387.4 589.4 388.3 588.6 389.5" class="b"/><path d="M594.2 385.1L595.3 385.6 596.3 385.6 596.3 386.3 595.5 387.1 594.4 387.6 594.4 386.8 594.5 385.9 594.2 385.1" class="b"/><path d="M600.3 384.6L600.8 386.5 599.5 386.1 599.5 386.7 599.9 387.7 599.1 388.1 599.1 386.9 598.6 386.8 598.3 385.8 599.3 385.9 599.3 385.3 598.2 383.9 599.9 384 600.3 384.6" class="b"/><path d="M593.6 383.1L593.2 384.6 592.5 383.7 591.6 382.4 593.1 382.4 593.6 383.1" class="b"/><path d="M593.3 373.6L594.3 374.1 594.8 373.6 595 374.1 594.7 374.8 595.3 376.1 594.9 377.5 593.9 378.1 593.6 379.5 594 380.9 594.9 381.1 595.6 380.9 597.7 381.8 597.6 382.8 598.1 383.2 597.9 384 596.6 383.1 596 382.2 595.6 382.9 594.5 381.8 593 382.1 592.1 381.7 592.2 381 592.7 380.5 592.2 380.1 592 380.8 591.2 379.8 590.9 379 590.9 377.3 591.6 377.9 591.7 375.2 592.3 373.6 593.3 373.6" class="b"/><path d="M279.2 374.1L278.8 374.5 277.5 374.5 276.5 374.6 276.4 373.8 276.7 373.5 278 373.6 278.9 373.7 279.2 374.1" class="b"/><path d="M260.2 374.7L259.7 375 258.7 374.7 257.8 374.1 258 373.7 258.7 373.5 259.1 373.6 260.2 373.8 261.1 374.2 261.4 374.7 260.2 374.7" class="b"/><path d="M267.5 371.1L268.9 371.4 269.1 371.1 270.4 371.1 271.4 371.6 271.9 371.5 272.2 372.2 273.1 372.1 273.1 372.7 273.8 372.7 274.6 373.4 274 374.1 273.2 373.7 272.4 373.8 271.9 373.7 271.6 374 270.9 374.1 270.7 373.7 270.1 374 269.4 375.2 269 374.9 268.9 374.4 267.8 374.1 267 374.2 266 374.1 265.2 374.4 264.3 373.9 264.5 373.3 266 373.5 267.3 373.7 267.9 373.3 267.1 372.5 267.1 371.8 266.1 371.6 266.4 371.1 267.5 371.1" class="b"/><path d="M574.8 373.3L573.4 374.1 572 373.6 572 372 572.8 371.2 574.6 370.7 575.6 370.8 576 371.5 575.2 372.2 574.8 373.3" class="b"/><path d="M128.1 372.5L127.8 372.8 127.4 372.6 127.4 372.1 127.2 371.4 127.2 371.2 127.5 370.9 127.4 370.6 127.5 370.4 127.6 370.5 128.3 370.8 128.6 370.9 128.9 371.2 129.3 371.8 129.2 371.9 128.6 372.3 128.1 372.5" class="b"/><path d="M127.1 369.8L126.6 369.9 126.3 369.5 126.1 369.4 126.1 369.2 126.3 369.1 126.8 369.3 127.3 369.5 127.1 369.8" class="b"/><path d="M126 368.8L126 369 125.1 368.9 125.2 368.7 126 368.8" class="b"/><path d="M124.5 368.5L124.4 368.6 124.3 368.6 123.7 368.6 123.5 368.1 123.4 368.1 123.9 367.8 124 367.9 124.5 368.5" class="b"/><path d="M121.7 367.3L121.5 367.5 120.9 367.2 121 367.1 121.2 366.9 121.6 366.9 121.7 367.3" class="b"/><path d="M255.5 365.9L256.2 366.6 257.8 366.4 258.4 366.8 259.8 367.9 260.8 368.7 261.4 368.7 262.4 369.1 262.3 369.6 263.5 369.7 264.8 370.4 264.6 370.8 263.5 371 262.3 371.1 261.2 371 258.8 371.2 259.9 370.2 259.2 369.7 258.1 369.6 257.5 369.1 257.1 368 256.2 368.1 254.6 367.6 254.1 367.2 251.9 367 251.3 366.6 252 366.2 250.3 366.1 249.1 367 248.4 367 248.2 367.5 247.4 367.7 246.6 367.5 247.5 366.9 247.9 366.3 248.6 365.9 249.5 365.5 250.8 365.3 251.2 365.1 252.6 365.3 254 365.3 255.5 365.9" class="b"/><path d="M259.1 364.1L258.7 364.2 258.3 363.1 257.7 362.6 258 361.4 258.5 361.5 259.1 363 259.1 364.1" class="b"/><path d="M593.1 365.9L592.3 367.4 591.4 365.8 591.3 364.5 592.2 362.7 593.6 361.3 594.4 361.8 594.1 362.9 593.1 365.9" class="b"/><path d="M258.7 358.9L256.8 359.2 256.7 358.5 257.5 358.3 258.6 358.4 258.7 358.9" class="b"/><path d="M260 358.8L259.7 360.2 259.4 359.9 259.5 359 258.7 358.2 258.7 358 260 358.8" class="b"/><path d="M615.7 344.1L615.9 344.8 614.9 346 614.3 345.4 613.4 345.8 612.9 347 611.9 346.4 611.9 345.5 612.8 344.3 613.7 344.5 614.4 343.7 615.7 344.1" class="b"/><path d="M447.5 341L446.4 341.9 446.5 342.2 446.6 342.4 444.8 343.2 444 343 443.6 342.2 444.4 342.1 444.5 342.1 444.8 341.6 446 341.6 447.5 341" class="b"/><path d="M429.3 340.9L430.2 341.6 431.5 341.5 432.7 341.6 432.7 342 433.6 341.7 433.4 342.4 431 342.5 431 342.2 428.9 341.8 429.3 340.9" class="b"/><path d="M415.5 335.6L414.9 337.3 415.2 337.9 414.8 339 413.5 338.2 412.7 338 410.3 336.9 410.6 335.8 412.5 336 414.2 335.8 415.5 335.6" class="b"/><path d="M404.9 329.1L405.9 330.7 405.7 333.6 404.9 333.4 404.2 334.1 403.6 333.6 403.5 330.9 403.1 329.7 404.1 329.8 404.9 329.1" class="b"/><path d="M626.3 337.9L625.7 339.6 626 340.6 625.1 342.1 623 343 620 343.2 617.6 345.5 616.5 344.7 616.4 343.2 613.5 343.6 611.5 344.6 609.5 344.6 611.2 346.1 610.1 349.5 609 350.3 608.2 349.6 608.6 347.8 607.6 347.2 606.9 345.8 608.5 345.2 609.4 343.9 611 342.9 612.3 341.5 615.6 340.9 617.4 341.3 619.2 337.6 620.3 338.6 622.8 336.5 623.7 335.6 624.8 333 624.5 330.5 625.2 329.1 627 328.7 627.9 331.8 627.9 333.6 626.3 335.7 626.3 337.9" class="b"/><path d="M405.5 327L404.9 328.7 404.2 328.3 403.8 326.7 404.1 325.9 405.2 325 405.5 327" class="b"/><path d="M631.3 322.3L632.4 322.8 633.6 321.8 634 324.4 631.5 325.1 630 327.3 627.4 325.8 626.5 328.2 624.6 328.3 624.4 326 625.2 324.3 627 324.1 627.5 320.9 628 319 630 321.5 631.3 322.3" class="b"/><path d="M282.4 316.6L283.7 317 285.2 316.9 284.4 317.9 283.8 318 281.6 317 281.2 316.2 281.9 315.4 282.4 316.6" class="b"/><path d="M285.6 310.2L284.7 310.3 282.6 309.5 281 308.2 281.6 308 283.8 308.7 285.5 309.8 285.6 310.2" class="b"/><path d="M181.9 311.7L181 312.1 178.3 310.9 177.8 310 176.3 309.1 176 308.4 174.2 307.9 173.6 306.5 173.7 305.9 175.5 306.5 176.5 306.9 178.1 307.1 178.7 308 179.5 309.3 181.2 310.3 181.9 311.7" class="b"/><path d="M295.1 306.1L294 308.4 295.1 307.5 296.2 308.1 295.6 309 297.1 309.7 297.9 309.1 299.6 309.9 299 311.7 300.2 311.3 300.4 312.6 301 314.2 300.2 316.4 299.5 316.5 298.4 316 298.7 314 298.3 313.7 296.3 315.8 295.3 315.7 296.5 314.6 294.9 314 293.1 314.1 289.8 314 289.6 313.3 290.6 312.4 289.9 311.7 291.3 310.2 293 306 294.1 304.5 295.5 303.6 296.3 303.7 296 304.4 295.1 306.1" class="b"/><path d="M166.4 296.9L168 296.6 167.5 299.9 169 302.1 168.3 302.1 167.3 300.8 166.7 299.5 165.8 298.7 165.5 297.4 165.6 296.5 166.4 296.9" class="b"/><path d="M630.8 305.9L632.5 310.6 630 309.7 629 313.4 630.6 315.9 630.6 317.6 629.3 316.2 628.2 318 627.9 316 628.1 313.6 627.9 310.9 628.3 308.9 628.3 305.4 627.4 302.7 627.5 299 629.1 297.7 628.4 296.3 629.1 295.9 629.6 297.8 630.2 300.5 630.1 303.2 630.8 305.9" class="b"/><path d="M378 301.9L375 303.5 372.7 303.1 374 300.2 373.1 297.3 375.4 295.1 376.7 293.7 378.1 293.6 379.9 295.4 379 297.4 379.3 299.4 378 301.9" class="b"/><path d="M410.8 292.3L409.7 294.7 408 293 407.7 291.8 410.2 290.8 410.8 292.3" class="b"/><path d="M132.3 287.7L130.6 288.9 129.8 288.1 129.5 286.6 131 285.5 131.9 285 133.1 285.3 133.8 286.2 132.3 287.7" class="b"/><path d="M384.4 282.9L382.6 286.4 384.3 285.9 386.1 285.9 385.7 288.5 384.2 291.2 385.9 291.4 387.6 295.2 388.7 295.6 389.7 298.9 390.2 300 392.3 300.5 392 302.3 391.2 303.1 391.9 304.5 390.4 305.9 388.1 305.9 385.2 306.6 384.5 306.1 383.3 307.3 381.8 307 380.6 308 379.7 307.5 382.2 304.7 383.7 304.1 381.1 303.7 380.6 302.6 382.3 301.7 381.4 300.3 381.7 298.4 384.2 298.7 384.5 297 383.3 295.2 381.3 294.7 380.9 293.9 381.5 292.6 380.9 291.8 380 293.2 379.9 290.3 379.1 288.7 379.7 285.5 381 282.9 382.3 283.2 384.4 282.9" class="b"/><path d="M111.2 278.7L110.2 279.2 109.1 278.6 108 277.7 109.7 277.1 111 277.4 111.2 278.7" class="b"/><path d="M256.2 270.9L255.6 272.8 254.8 272.5 254.4 271.4 254.5 271.2 255.1 270.1 255.8 270.2 256.2 270.9" class="b"/><path d="M251.8 268.9L249.8 270.9 248.7 270.8 248.3 269.9 249.5 268.2 251.8 268.2 251.8 268.9" class="b"/><path d="M100.8 264.9L101.9 265.6 102.9 265.2 104.3 266.2 106 266.7 105.8 267.1 104.5 267.9 103.3 267.1 102.6 266.4 101.1 266.7 100.7 266.3 100.8 264.9" class="b"/><path d="M246.3 257.5L246.6 259.3 247.5 258.7 248.5 259.7 250.3 261.1 252.2 262.3 252.4 264.2 253.6 263.9 254.8 265.1 253.3 266.3 250.7 265.4 249.8 263.7 248.1 265.7 245.7 267.7 245.1 265.5 242.9 265.8 244.3 263.9 244.5 260.9 245.1 257.2 246.3 257.5" class="b"/><path d="M365 254.2L364.7 256.9 366.6 259.7 364.4 262.7 359.5 265.3 358.1 266 355.9 265.4 351.2 264.2 352.8 262.5 349.2 260.6 352.1 259.8 352.1 258.7 348.5 257.7 349.7 255 352.2 254.4 354.9 257.2 357.4 255 359.5 256.1 362.3 253.9 365 254.2" class="b"/><path d="M261.9 251.3L260.1 251.5 259.6 249.4 260.4 246.8 261.9 246.2 263.2 247.5 263.2 249.4 263 250 261.9 251.3" class="b"/><path d="M95.3 253.7L96.5 254.7 96.1 251.6 100.6 252.3 103.9 256.2 102.3 258 99.5 258.4 99.5 262.3 98.8 263.1 97.2 263 95.9 261.6 93.7 260.5 93.3 258.7 91.6 258.1 89.7 258.6 88.8 257.2 89.2 255.7 87.1 256.6 87.9 258.6 87 260.3 87 243.1 91.1 246.6 95.5 251 95.3 253.7" class="b"/><path d="M228.7 242.4L227.7 244.1 225.4 242.6 224 243.2 221.7 241 223.2 239.5 224.4 237.4 226.2 238.8 227.2 239.7 227.7 240.6 228.7 242.4" class="b"/><path d="M89.1 233.6L87 234 87 230.4 87.2 230.2 88.6 230.2 91 231.7 90.9 232.4 89.1 233.6" class="b"/><path d="M237.3 240.6L237.3 245.4 239.5 241.7 241.5 244.7 241 248.1 242.6 251.1 244.4 247.9 245.6 243.9 245.7 238.7 248.1 239.1 250.6 239.8 252.8 242.2 252.9 244.5 251.7 246.9 252.9 249.3 252.7 251.4 249.4 254.4 247 255.1 245.3 253.8 244.8 255.9 243.2 259.3 242.7 261.1 240.7 263.7 238.3 264 237 265.6 236.9 268 234.9 268.5 232.9 271.4 231.1 275.4 230.4 278.1 230.3 281.9 232.8 282.4 233.5 285.4 234.3 287.8 236.7 287.2 239.8 288.5 241.5 289.7 242.7 291.1 244.8 292 246.6 293.2 249.3 293.4 251.2 293.7 250.9 296.2 251.4 299 252.6 302.1 255.1 304.7 256.4 303.8 257.3 301 256.5 296.6 255.3 295.1 258 293.7 259.9 291.6 260.8 289.5 260.7 287.5 259.5 284.8 257.5 282.4 259.5 278.9 258.7 275.8 258.2 270.3 259.3 269.5 262.2 270.5 264 270.8 265.3 269.9 266.9 271.1 269 273.2 269.5 274.5 272.5 274.8 272.4 277.7 273 281.9 274.5 282.4 275.7 284.3 278.2 282.5 279.8 278.9 280.9 277.3 282.2 280.3 284.4 284.4 286.3 288.2 285.6 290.1 287.8 291.8 289.3 293.5 292 294.2 293.1 295.2 293.7 297.6 295.1 298 295.7 299.1 295.9 302.2 294.6 303.2 293.4 304.1 290.7 305.1 288.5 307.3 285.7 307.7 282.1 307.1 279.6 307.1 277.8 307.3 276.4 309.2 274.3 310.3 271.9 313.7 269.9 316 271.4 315.6 274.1 312.3 277.6 310.2 280.1 309.9 281.6 311.2 280 312.9 280.5 315.5 281.1 317.4 283.3 318.6 286 318.2 287.7 315.5 287.8 317.3 288.9 318.2 286.9 319.7 283.1 321.1 281.5 322.1 279.6 323.8 278.3 323.6 278.2 321.6 281.2 319.7 278.5 319.7 276.6 320 276.9 320.8 275.1 322 273.4 322.8 271.6 323.5 270.6 325 270.4 325.3 270.4 326.6 271 327.8 271.7 327.8 271.5 327 272 327.5 271.9 328.1 270.7 328.5 269.9 328.5 268.7 328.8 267.9 329 267 329.1 265.6 329.7 268 329.3 268.5 329.7 266.2 330.4 265.1 330.4 265.2 330.1 264.6 330.7 265.1 330.8 264.8 332.4 263.6 334.1 263.4 333.5 263.1 333.4 262.5 332.9 262.9 334 263.3 334.4 263.3 335.2 262.8 336.1 261.8 337.8 261.7 337.7 262.2 336.2 261.3 335.4 261.1 333.6 260.8 334.6 261.2 335.9 260.1 335.6 261.2 336.3 261.3 338.3 261.8 338.4 261.9 339.2 262.2 341.2 261.1 342.8 259.4 343.4 258.3 344.6 257.4 344.7 256.6 345.4 256.3 346.1 254.5 347.4 253.5 348.3 252.7 349.5 252.5 350.9 252.8 352.3 253.3 353.9 254.1 355.3 254.1 356.1 254.9 358.3 254.8 359.6 254.8 360.3 254.4 361.4 253.9 361.7 253 361.4 252.8 360.6 252.1 360.2 251.2 358.6 250.4 357.1 250.2 356.4 250.5 355.1 250.1 354.1 248.8 352.5 248.1 352.2 246.4 353 246.1 352.9 245.3 352 244.2 351.6 242.3 351.8 240.8 351.6 239.6 351.7 238.9 352 239.2 352.5 239.1 353.3 239.5 353.7 239.2 354 238.6 353.7 237.9 354 236.7 354 235.5 353 234 353.2 232.8 352.8 231.7 352.9 230.3 353.3 228.8 354.8 227.1 355.6 226.2 356.5 225.8 357.4 225.8 358.7 225.9 359.6 226.2 360.2 226.2 360.2 226.2 360.2 225.5 361.8 225.2 363.2 225.1 365.6 225 366.5 225.3 367.5 225.8 368.4 226.1 369.8 227.2 371.1 227.6 372.1 228.3 373 230.1 373.5 230.8 374.2 232.2 373.7 233.5 373.5 234.8 373.2 235.8 372.9 236.9 372.2 237.3 371.1 237.4 369.6 237.7 369.1 238.9 368.6 240.6 368.2 242.1 368.3 243.1 368.1 243.5 368.5 243.5 369.4 242.6 370.4 242.2 371.5 242.5 371.8 242.2 372.6 241.8 374 241.4 373.5 241 373.6 241.1 373.8 241.4 373.8 241.3 374.3 241.1 375.1 241.2 375.4 241 376 241.1 376.2 241 377 240.6 377.5 240.3 377.6 240 378.2 240.5 378.5 240.7 378.2 241.2 378.5 241.3 378.5 241.7 378.2 242.2 378.2 242.4 378.3 242.6 378.2 243.4 378.4 244.2 378.4 244.7 378.2 244.9 378 245.4 378.1 245.8 378.2 246.3 378.1 246.6 378 247.4 378.2 247.7 378.3 248.2 378.6 248.7 379 249.3 379.3 249.7 379.7 249.6 379.9 249.5 380.3 249.6 380.9 249.3 381.5 249.1 382.2 249 383 249.1 383.4 249.2 384.2 248.9 384.4 248.7 385.1 248.9 385.5 248.5 386 248.6 386.4 248.8 386.7 249.3 387.7 249.9 388.3 250.7 389.1 251.3 389.7 251.3 390 252 390.1 252.1 390 252.6 390.4 253.4 390.3 254.1 389.8 255.1 389.5 255.7 389 256.6 389.1 256.6 389.3 257.5 389.3 258.3 389.6 258.8 390.1 259.4 390.6 260.3 390.6 261.6 389.5 262.3 389.3 262.3 388.7 262.6 387.3 263.6 386.5 264.6 386.4 264.7 386.1 266.1 386.2 267.4 385.4 268 385 268.8 384.2 269.4 384.3 269.9 384.7 269.6 385.3 269.5 385.7 268.5 385.9 269.1 386.7 269.1 387.6 268.3 388.6 268.9 389.9 269.7 389.8 270 388.6 269.5 388 269.4 386.7 271.5 386 271.3 385.2 271.9 384.6 272.5 385.8 273.7 385.9 274.8 386.8 274.8 387.4 276.3 387.4 278.1 387.2 279.1 388 280.4 388.2 281.3 387.7 281.3 387.2 283.4 387.1 285.4 387.1 284 387.6 284.6 388.4 285.9 388.5 287.2 389.4 287.5 390.7 288.3 390.7 289 391.1 290.1 391.7 291.1 392.8 291.2 393.7 291.8 393.8 292.7 394.6 293.4 395.2 295.4 395.5 295.6 395.2 296.9 395.1 298.8 395.5 299.3 395.7 300.6 396.1 302.3 397.5 302.6 398.2 303.2 398.2 303.6 399.1 304.6 402 305.4 402.3 305.5 403.5 304.2 404.8 304.8 405.4 307.7 405.6 307.8 407.3 309.1 406.2 311.2 406.8 314 407.8 314.8 408.8 314.5 409.7 316.5 409.2 319.7 410.1 322.2 410 324.7 411.4 326.9 413.3 328.2 413.8 329.6 413.9 330.2 414.4 330.8 416.6 331.1 417.6 330.4 420.4 329.5 421.5 327.2 423.9 326.1 425.8 324.9 427.3 324.4 427.4 324 428.6 324.1 431.9 323.6 434.6 323.4 435.7 322.9 436.4 322.6 438.8 320.9 441.2 320.6 443 319.3 443.8 318.9 444.9 317 444.9 314.4 445.6 313.2 446.4 311.3 446.9 309.4 448.4 307.9 450.3 307.7 451.7 308 452.7 307.7 454.6 307.3 455.6 306.1 456.6 304.2 460 302.8 461.6 301.6 462.5 300.8 464.4 299.7 465.6 299 466.8 297.1 468 295.9 467.6 295 467.8 293.4 466.9 292.3 467 291.2 465.9 291.1 466.9 293.3 468.7 293 470.1 294.1 471 294 472 292.4 474.7 289.9 475.9 286.5 476.3 284.7 476.1 285 477.4 284.7 479.1 285 480.2 284 480.9 282.3 481.3 280.6 480.4 280 481 280.2 483.3 281.4 483.9 282.3 483.2 282.8 484.4 281.2 485.1 279.9 486.5 279.6 488.9 279.3 490.2 277.7 490.2 276.3 491.4 275.9 493.2 277.5 495 279.1 495.5 278.5 497.7 276.6 499.2 275.5 502.2 273.9 503.2 273.2 504.5 273.8 507.2 274.9 508.8 274.2 508.7 272.7 508.7 271.9 509.3 270.4 510.4 270.1 513 269.4 513 267.5 512.1 265.6 510.2 263.5 508.6 263 506.9 263.4 505.3 262.6 503.5 262.4 499.1 263.1 496.7 264.9 494.8 262.3 494.1 263.9 491.9 264.5 488 266.4 488.8 267.2 484 266.1 483.4 265.6 486.2 264.5 485.9 265 482.7 265.6 478.5 266.4 477.1 265.9 475 265.8 472.6 266.5 472.5 267.5 469.1 268.7 465.9 269.4 462.9 269 459.9 269.5 458.3 269.3 455.9 270.3 453.6 270.6 449.9 271.1 446.1 271.6 442 271.5 439.1 271.2 436.6 269.5 435.6 269.3 434.9 266 433.1 263 431.2 261.7 430.1 261 428.7 261.3 428.2 259.9 425.9 258.2 422.8 256.6 419.4 255.9 418.6 255.4 417.3 254.1 416.2 252.9 415.6 253.4 414.8 252.6 413.2 253.1 412 254.5 410.9 255.4 409.7 255 409 254.4 409.7 253.4 409 253.7 408.5 253.4 407 254 406.7 254.3 405.7 255 404.6 254.8 403.9 255.8 403.6 256.9 402.9 256.7 402.4 257.3 402.3 257.2 401.4 257.6 400.8 258.5 400.7 259.2 399.6 259.8 398.7 259.2 398.3 259.5 397.4 259.1 395.8 259.5 395.4 259.2 394 258.6 393 258 392.6 257.6 391.6 258 391.2 257.6 391.1 257.3 390.5 256.5 390 255.7 390.1 255.4 390.7 254.7 391.2 254.4 391.2 254.2 391.6 255 392.5 254.5 392.7 254.3 393 253.5 393.1 253.2 392 253 392.3 252.4 392.2 252.1 391.5 251.4 391.4 251 391.2 250.3 391.2 250.2 391.6 250 391.4 249.1 391 248.8 390.6 249 390.3 248.9 389.9 248.4 389.5 247.8 389.2 247.2 389 247.1 388.5 246.6 388.2 246.7 388.7 246.4 389.1 246 388.6 245.5 388.4 245.2 388.1 245.3 387.6 245.5 387 245 386.8 245.4 386.5 244.8 385.9 244 385.2 243.7 384.7 242.9 384.1 242.1 383.3 242.3 383.1 242.6 383.3 242.7 383.2 242.4 382.7 241.9 382.5 241.7 382.9 240.7 382.9 240.1 382.7 239.4 382.4 238.5 382.3 238 381.9 237.2 381.6 236.1 381.6 235.3 381.2 234.4 380.5 232.5 378.6 231.7 378.1 230.3 377.6 229.4 377.8 228 378.4 227.2 378.6 226 378.1 224.7 377.8 223.2 377 221.9 376.7 220 375.9 218.6 375.1 218.2 374.6 217.2 374.5 215.5 373.9 214.8 373.1 213 372.1 212.2 371 211.8 370.1 212.3 370 212.1 369.4 212.5 369 212.5 368.4 212 367.5 211.8 366.8 211.3 365.9 209.8 364.1 208.1 362.6 207.3 361.5 205.8 360.7 205.5 360.3 205.8 359.1 204.9 358.7 203.9 357.8 203.5 356.4 202.6 356.3 201.6 355.3 200.8 354.4 200.8 353.8 199.9 352.3 199.3 350.8 199.3 350 198.1 349.3 197.5 349.4 196.6 348.8 196.3 349.6 196.6 350.6 196.7 352 197.3 352.8 198.5 354.1 198.8 354.6 199.1 354.7 199.3 355.4 199.6 355.4 199.9 356.6 200.5 357.1 200.8 357.7 201.9 358.7 202.4 360.4 202.9 361.3 203.4 362.1 203.5 363.1 204.3 363.2 205 364 205.6 364.8 205.5 365.2 204.8 365.8 204.5 365.8 204.1 364.7 203 363.7 201.8 362.8 200.9 362.3 201 360.9 200.7 359.9 199.9 359.3 198.8 358.5 198.5 358.7 198.1 358.3 197.1 357.8 196.1 356.7 196.2 356.6 196.9 356.7 197.5 356 197.6 355.1 196.3 353.7 195.3 353.2 194.7 352 194.1 350.7 193.3 349.1 192.6 347.3 192.3 346.3 191.2 345.2 190.4 344.9 190.3 344.3 189.3 344.2 188.7 343.7 187.2 343.5 186.7 343.2 186.5 342 184.9 340 183.5 337 183.6 336.6 182.8 335.8 181.5 334 181.3 332.3 180.4 331.1 180.8 329.2 180.7 327.3 180.2 325.6 180.8 323.4 181.2 319.1 180.9 315.9 180.4 313.7 179.9 312.6 180.1 312.1 182.5 312.9 183.4 315.3 183.8 314.6 183.6 312.6 183 310.5 182.8 310.5 179.5 308 178.3 306.8 175.3 305.7 174.3 303.3 174.6 301.7 172.4 300.5 172.1 298.2 170.1 296.2 170.1 294.7 169.1 293.6 167.7 292.6 167.2 290 165 287.5 164.1 284.6 162.5 284.4 159.8 284.3 157.9 283.4 154.4 280 152.8 279.3 149.8 278.1 147.5 278.4 144.2 276.9 142.2 275.4 140.3 276.1 140.7 278.5 139.8 278.7 137.8 279.4 136.3 280.5 134.5 281.2 134.2 279.3 135 276 136.8 274.9 136.3 274 134.2 275.9 133 278.2 130.6 280.6 131.8 282.2 130.3 284.5 128.4 285.8 126.8 286.8 126.3 288.1 123.7 289.7 123.2 291.1 121.2 292.4 120.1 292.2 118.5 293 116.8 294 115.4 295 112.5 295.8 112.3 295.3 114.1 294 115.7 293.1 117.5 291.4 119.6 291.1 120.4 289.9 122.8 288 123.1 287.4 124.4 286.3 124.7 283.9 125.5 282 123.6 283 123.1 282.4 122.1 283.6 121 282 120.6 283.1 120 281.5 118.3 282.8 117.3 282.8 117.1 280.9 117.4 279.6 116.3 278.5 114.1 279.1 112.7 277.5 111.6 276.7 111.6 274.8 110.3 273.3 110.9 271.2 112.3 269.2 112.9 267.3 114.3 267 115.4 267.6 116.8 265.8 118 266.1 119.3 265 118.9 263.2 118 262.5 119.3 261 118.2 261.1 116.4 261.9 115.9 262.8 114.6 261.9 112.2 262.4 109.8 261.4 109.1 259.8 106.9 257.5 109.3 255.8 113 253.7 114.4 253.7 114.2 255.8 117.7 255.6 116.4 253 114.3 251.4 113.1 249.2 111.5 247.3 109.2 245.9 110.1 243.5 113.1 243.3 115.2 241.2 115.6 238.8 117.4 236.5 119 235.9 122.2 233.7 123.7 234 126.3 231.2 128.8 232.3 130.1 234.7 130.8 233.7 133.6 234 133.5 235.1 136.1 236 137.8 235.5 141.4 237.1 144.6 237.5 145.9 238.2 148.1 237.4 150.7 238.9 152.5 239.5 155.6 240.7 158.3 243 160 243.4 161.5 241.4 163.6 239.9 166 240.5 168.6 238.4 171.3 237.2 172.5 239.2 173.7 238.1 174.1 235.7 175.3 236.3 178.1 240.7 180.3 237.4 180.6 241 182.6 240.3 183.3 238.8 185.3 239.1 187.9 241.1 191.8 242.9 194.1 243.7 195.8 243.4 198 245.7 195.7 248 198.7 248.9 203.2 248.4 204.7 247.6 206.5 250.3 208.3 248 206.6 246.1 207.7 244.5 209.7 244.3 211 243.9 212.4 245 214.1 247.4 216 247.1 218.9 249.1 221.5 248.4 224 248.5 223.8 245.7 225.3 244.9 227.9 246.4 227.9 250.6 229 247.1 230.3 247.2 231.1 242.6 229.3 239.7 227.3 237.7 227.4 232.1 229.4 228.2 231.7 229.1 233.4 231.4 235.6 237.2 234.1 239.6 237.3 240.6" class="b"/><path d="M197.6 221.5L196.7 224.2 200.5 222.5 202.8 225.3 204.7 222.4 206.2 224.3 207.6 229.7 208.5 227.4 207.3 221.7 208.8 220.8 210.4 221.8 212.3 224.1 213.4 229.4 213.9 233.1 216.7 235.7 219.7 238 219.6 240.2 216.8 240.5 217.9 242.4 217.3 244.1 214.3 243.4 211.4 242.1 209.4 242.4 206.3 244 201.3 244.8 199 245.1 198.1 242.9 195.8 241.6 194.3 242.1 192.2 238.3 193.4 237.8 196 237 198.3 237.2 200.5 236.3 197.3 235.1 193.7 235.5 191.3 235.4 190.4 233.6 194.3 231.5 191.7 231.6 188.8 230.2 190.2 226.1 191.4 223.9 195.9 220.4 197.6 221.5" class="b"/><path d="M213.8 219.8L212.3 223.6 209.7 219.5 210.3 218.7 212.5 218.5 213.8 219.8" class="b"/><path d="M261.1 221.6L261.3 223.2 259.5 223 257.7 222.9 255.9 223.7 255.4 223.3 253.5 220.3 253.6 218.1 254.4 217.7 258.2 218.4 261.1 221.6" class="b"/><path d="M244 221.3L245.3 224.9 246.8 220.2 251.1 217.8 254 223.8 253.7 227.5 257.1 225.9 258.6 223.6 262.4 226.5 264.7 229.1 264.9 231.4 268 230.2 269.8 233.5 273.8 235.5 275.3 237.5 276.9 242.1 273.8 244.2 277.8 247.2 280.4 248.2 282.8 252.2 285.5 252.5 285 255.5 282 260.2 279.9 258.5 277.3 254.5 275.1 255 274.9 257.4 276.7 259.7 279 261.6 279.7 262.6 280.8 266.4 280.2 269 278.1 268.1 273.8 265.1 276.2 268.3 278 270.5 278.2 271.7 273.7 270.3 270.1 268.2 268 266.4 268.6 265.3 266.1 263.3 263.7 261.4 263.7 262.6 258.8 263.2 257.4 261.9 258.5 258.9 261.7 258.9 265.1 258.4 264.6 256.9 265.2 254.8 267.3 250.7 266.9 248.7 266.2 247.2 263.7 245 260.3 243.4 261.3 242.2 259.6 239.3 258.1 239 256.7 237.3 255.8 238.8 252.8 239.4 246.7 238.3 243.1 236.8 240.4 236.1 239 234.3 240.8 232 238.4 231.9 237.8 226.5 239.1 221.5 240.9 219.1 245.2 217.5 244 221.3" class="b"/><path d="M220.8 217.2L222.8 218.5 225.8 217.7 226.2 219.5 224.7 222.3 227.2 224.7 226.9 229.6 224.1 231.7 222.5 231.2 221.4 229.2 217.2 225 217.2 223.2 220.6 223.9 218.8 220.1 220.8 217.2" class="b"/><path d="M630.7 221L628.2 221 624.7 220.4 624.5 220.1 626 217.7 628.1 217.2 630.5 219.4 630.7 221" class="b"/><path d="M232.8 223.5L231 227.7 229.1 227.5 228 222.6 228.1 219.7 229 217.1 230.6 215.5 234.1 215.7 237.3 217.2 234.8 222.4 232.8 223.5" class="b"/><path d="M187 231L182.6 233.6 181.7 231.3 177.8 228.5 178.4 226.7 179.7 222.1 181.2 218.2 179.5 214.5 185.2 213.5 187.6 214.8 191.9 215.2 193.5 216.9 195.3 219.4 193.2 220.9 189.1 224.9 187 228.8 187 231" class="b"/><path d="M642.7 209.5L640.8 212 638.1 211.4 635 208.9 635.4 206.7 638.5 207.7 642.7 209.5" class="b"/><path d="M232.1 210.1L231.2 212.6 228.8 212.1 226.7 210.5 227.6 207.5 230 205.7 231.5 208.1 232.1 210.1" class="b"/><path d="M633.2 206.3L631.9 211.2 625.7 211 622.9 212.5 619.6 208.3 620.5 203.6 622.7 202.3 627.2 202.6 633.2 206.3" class="b"/><path d="M223.9 198.2L225.2 201.5 225.2 205.1 224.5 210 221.7 210.7 219.9 209.6 219.9 205.8 217.2 206.3 217.1 200.9 218.9 201.1 221.4 198.7 223.8 199.1 223.9 198.2" class="b"/><path d="M207.6 201.9L208.2 204.4 209.7 203.2 211.5 203.5 211.8 206.8 210.8 210 205.1 211 200.8 213.7 198.3 213.9 198.1 211.8 201.6 208.9 194 209.7 191.6 208.5 193.9 201.9 195.5 199.9 200.2 202.3 203.2 206.4 206.1 206.9 203.7 200.3 205.3 197.6 207 198.5 207.6 201.9" class="b"/><path d="M486.1 234.5L485.1 235 479.6 234.3 479.2 232 476.1 230.6 475.9 227.7 477.6 226.5 477.6 223.5 480.9 218.5 479.3 217.8 483.4 212.4 482.9 209.5 486.7 206 492.2 201.5 497.8 200.2 500.7 197.5 504 196.5 505.1 199.4 504 201.7 498 205.1 492.9 208.3 487.7 214.4 485.2 220.3 482.6 225.8 482.9 230.3 486.1 234.5" class="b"/><path d="M230.3 195.4L232.2 197.7 235.5 197.7 236.9 200.1 236.6 202.8 238.5 204.3 239.6 206 241.8 206.3 244.3 206.8 246.9 205.4 250.4 204.8 253.1 205.3 254.9 207.8 255.3 210.5 254.2 212.2 251.7 213.6 249.6 212.8 244.7 213.8 241.3 213.9 238.6 213.1 234.1 211 233.5 207.5 233.3 204.1 231.6 201 228.2 200.2 226.2 197.9 226.9 194.9 230.3 195.4" class="b"/><path d="M194.2 191.1L193.9 197 192.6 199.5 191.1 199.9 187.9 202.9 185.3 204 183 202.5 185.8 197.1 189.3 192.2 191.9 192.3 194.2 191.1" class="b"/><path d="M569.2 196.3L569.6 199.9 571.2 198.1 576.1 198.2 579.9 201.7 581.2 204.3 580.8 207.9 578.9 209.8 574.5 213.3 573.3 215.2 575.3 216 577.8 217.6 579.3 216.4 580.2 220.3 580.9 218.7 583.6 217.8 589 218.8 589.4 221.5 596.5 222.4 596.6 217.9 600.1 218.9 602.8 218.9 605.5 222 606.3 225.6 605.3 227.9 607.4 232.1 610 234.2 611.7 228.7 614.4 231.1 617.2 229.7 620.5 231.3 621.7 229.8 624.5 230.5 623.3 225.5 625.5 223.1 640.6 226.7 642.1 229.9 646.5 233.9 653.3 232.9 656.6 233.8 658 235.9 657.8 239.5 659.9 240.9 662.1 239.9 665.1 239.8 668.3 240.7 671.5 240.2 674.4 244.4 676.5 242.9 675.1 239.8 675.9 237.7 681.2 239 684.7 238.7 689.5 241 691.9 243.1 691.9 260.3 691.9 260.3 689.7 262 687.6 261.7 689.1 263.8 690.1 266.9 690.8 267.9 691 269.4 690.6 270.4 687.5 269.6 682.8 272.3 681.3 272.7 678.7 275.2 676.3 277.3 675.7 278.8 673.3 276.5 668.9 279.1 668.1 277.9 666.5 279.3 664.2 278.9 663.7 281 661.7 284.2 661.7 285.5 663.7 286.2 663.4 290.6 661.9 290.8 661.2 293.2 661.9 294.5 658.9 296 658.3 299.2 655.8 299.9 655.3 302.7 652.9 305.2 652.3 303.4 651.6 299.4 650.6 293 651.4 288.8 652.8 286.9 652.9 285.5 655.5 284.8 658.5 280.7 661.4 277.3 664.5 274.5 665.8 269.5 663.8 269.8 662.8 272.8 658.5 276.6 657.1 272.3 652.8 273.5 648.6 279.2 650 281.3 646.2 282.1 643.6 282.4 643.7 280.1 641.1 279.6 639 281.2 633.9 280.6 628.4 281.6 622.9 287.8 616.5 294.9 619.1 295.2 620 297 621.6 297.7 622.7 296.3 624.5 296.4 626.9 299.6 627 301.9 625.7 304.6 625.5 307.8 624.8 311.9 622.3 315.5 621.7 317.2 619.4 320 617.1 322.7 616.1 324.1 613.8 325.5 612.8 325.5 611.7 324.4 609.5 326.1 609.2 326.8 608.6 326.7 607.8 327.4 607.3 328.2 607.4 329.8 606.5 330.3 606.2 330.7 605.6 331.3 604.5 331.7 603.7 332.3 603.7 333.2 603.5 333.5 604.2 333.8 605.1 334.8 606.6 337.3 607 338.7 607 341.1 606.4 342.2 604.8 342.6 603.5 343.4 602 343.6 601.8 342.5 602.1 341 601.4 338.8 602.6 338.4 601.5 336.6 600.6 336.2 600.4 336.6 599.9 336.8 599.9 336.4 599.4 336.2 599 335.9 599.5 334.9 599.9 334.7 599.7 334.3 600.1 333.1 600 332.7 599 332.5 598.2 331.9 595.9 332.6 594.7 333.6 592.8 334.2 593.7 333.2 593.4 332.3 594.7 330.8 593.8 329.7 592.4 330.5 590.5 332 589.4 333.4 587.8 333.5 586.9 334.5 587.8 336 589.2 336.3 589.2 337.3 590.6 337.9 592.5 336.4 594 337.2 595 337.3 595.3 338.4 592.9 338.9 592.1 340.1 590.5 341.1 589.7 342.5 591.5 343.7 592.1 345.7 593.1 347.5 594.3 349 594.3 350.5 593.2 351 593.6 352.1 594.6 352.7 594.3 354.2 593.9 355.7 593 355.9 591.7 358 590.4 360.4 588.8 362.6 586.5 364.3 584.2 365.9 582.3 366.1 581.3 366.9 580.7 366.3 579.7 367.2 577.4 368.1 575.6 368.4 575 370.3 574.1 370.4 573.6 369.1 574 368.4 571.8 367.8 571 368.1 568.8 369.7 567.4 371.4 567 372.6 568.3 374.5 569.8 376.8 571.4 377.8 572.4 379.2 573.2 382.4 572.9 385.5 571.5 386.6 569.6 387.7 568.2 389.1 566.1 390.7 565.5 389.6 566 388.5 564.8 387.5 563.3 387.2 562.7 386.4 561.8 384.6 560.3 383.8 558.9 383.8 559.1 382.5 557.6 382.5 557.5 384.4 556.6 386.9 556 388.4 556.2 389.6 557.3 389.7 557.9 391.2 558.2 392.7 559.2 393.7 560.2 393.9 561.1 394.7 561.5 394.9 562.4 395.9 563.2 397.1 563.2 398.2 563.1 399 563.2 399.5 563.4 400.5 563.9 401 564.6 402.5 564.6 403 563.4 403.2 561.8 401.9 559.8 400.6 559.6 399.7 558.6 398.6 558.4 397.2 557.8 396.3 558 395 557.6 394.3 556.9 393.7 556.7 392.8 555.8 391.9 555 391.1 554.7 392.1 554.4 391.1 554.5 390.1 555 388.4 554.9 387.2 555.4 385.9 554.8 384.8 555 383 554.3 382.1 553.7 380 553.4 377.8 552.7 376.3 551.6 377.2 549.7 378.5 548.7 378.3 547.7 377.9 548.3 375.7 547.9 374.1 546.6 372 546.8 371.4 545.8 371.2 544.6 369.7 544.2 368.8 544.1 367.8 543.7 367 543 365.9 541.5 365.8 541.7 366.6 541.1 367.6 540.4 367.2 540.2 367.6 539.7 367.4 539 367.2 538.8 367.9 537.7 367.8 535.6 368.2 535.7 369.6 534.8 370.6 532.4 371.8 530.5 373.9 529.2 375 527.5 376.2 527.5 377 526.7 377.4 525.2 378.1 524.4 378.2 523.9 379.5 524.3 381.7 524.3 383.2 523.6 384.8 523.6 387.7 522.8 387.8 522 389.1 522.5 389.7 521 390.1 520.4 391.3 519.7 391.8 518.1 390.2 517.4 387.8 516.7 386.1 516.1 385.3 515.2 383.6 514.8 381.5 514.5 380.4 513 378 512.3 374.6 511.8 372.3 511.8 370.2 511.5 368.5 509 369.5 507.8 369.3 505.7 367.1 506.5 366.5 506 365.8 504 364.2 502.8 363.8 502.3 362.4 501 361 497.9 361.4 495.1 361.4 492.8 361.7 489.6 361.1 487.8 360.7 485.9 360.4 485.2 358.1 484.4 357.8 483.1 358.1 481.4 359 479.3 358.4 477.6 357 476 356.4 474.9 354.6 473.6 352 472.7 352.4 471.7 351.7 471 352.5 470 352.4 470.4 353.2 470.2 353.7 470.8 355.1 471.4 356.8 472.3 357.2 472.6 357.9 473.7 358.7 473.8 359.4 473.6 360.1 473.8 360.7 474.3 361.2 474.6 361.8 474.8 362.3 474.7 360.9 475.2 359.9 475.6 359.7 476.1 360.3 476.1 361.4 475.8 362.5 476.1 363.2 476.4 363.1 476.5 363.6 477.8 363.3 479.2 363.4 480.2 363.4 481.3 362.2 482.6 361 483.6 359.8 484.1 359.2 484.3 359.4 484.2 360.1 484 360.5 484.2 361.9 484.9 363.2 485.9 363.9 487.1 364.1 488.1 364.5 488.9 365.5 489.3 366.1 489.9 366.3 489.9 366.7 489.3 367.8 489 368.3 488.3 368.9 487.7 370.1 486.9 370 486.6 370.5 486.3 371.4 486.5 372.6 486.4 372.8 485.6 372.8 484.6 373.4 484.4 374.3 484 374.7 483 374.7 482.3 375.1 482.3 375.8 481.5 376.3 480.6 376.1 479.4 376.7 478.7 376.8 477.5 377.3 477.1 378.1 477.1 378.7 475.4 379.4 472.7 380.2 471.2 381.5 470.5 381.5 470 381.4 469 382.2 467.9 382.5 466.5 382.6 466.1 382.7 465.7 383.1 465.3 383.3 465 383.7 464.2 383.7 463.7 383.9 462.5 383.8 462.1 382.8 462.1 381.9 461.8 381.3 461.5 380.1 461 379.3 461.4 379.3 461.2 378.5 461.4 378.1 461.3 377.4 461.1 376.6 460.6 376.1 460.5 375.4 459.6 374.8 458.7 373.3 458.2 371.8 457.1 370.6 456.3 370.3 455.2 368.6 455 367.3 455.1 366.3 454.1 364.2 453.3 363.5 452.4 363.1 451.9 362.1 452 361.7 451.5 360.7 451 360.3 450.3 358.9 449.3 357.4 448.5 356.1 447.6 356.1 447.9 355 448 354.3 448.2 353.6 448.1 353.3 447.6 354.1 447.3 355.5 446.8 356.5 446.4 356.8 445.9 356.2 445.1 355.4 443.9 352.6 443.7 352.8 444.4 354.8 445.5 356.7 446.7 359.7 447.4 360.7 447.9 361.7 449.4 363.8 449.1 364.1 449.1 365.3 451.1 366.9 451.4 367.3 451.9 369.1 451.6 369.4 451.8 371.3 452.4 373.4 453.1 373.8 454 374.5 454.9 376.5 455.4 378.1 456.3 379 458.6 380.6 459.6 381.6 460.5 382.6 461 383.2 461.8 383.7 462.2 384.2 462.2 385 461.2 385.4 461.9 385.8 462.5 386.1 462.8 386.9 463.6 387.6 464.4 387.6 466 387.1 467.8 386.9 469.3 386.4 470.1 386.3 470.7 386 471.7 385.9 472.2 385.9 473 385.6 473.9 385.5 474.7 384.9 475.3 384.9 475.4 385.3 475.2 386.3 475.2 387.2 474.9 387.9 474.4 389.7 473.6 391.6 472.5 393.8 471.1 396.2 469.7 398.1 467.7 400.4 466 401.8 463.5 403.5 461.9 404.7 460.1 406.8 459.7 407.7 459.3 408.1 458.1 408.7 457.7 409.4 457.1 409.5 456.8 410.7 456.3 411.4 456 412.5 455.3 413.1 454.5 415.2 454.6 416.1 455.7 416.7 455.8 417.2 455.3 418.2 455.4 418.7 455.3 419.5 455.9 420.6 456.6 422.3 457.2 422.7 457.4 423.4 457.4 425.1 457.6 426.6 457.7 429.3 457.9 430.2 457.4 431.4 456.8 432.6 455.7 433.7 454.2 434.4 452.3 435.2 450.4 437.1 449.7 437.5 448.6 438.7 447.9 439.1 447.7 440.4 448.5 441.8 448.9 442.8 448.9 443.4 449.2 443.3 449.1 445.1 448.9 445.9 449.3 446.2 449 447 448.3 447.7 446.9 448.3 444.9 449.3 444.2 450 444.3 450.8 444.7 450.9 444.6 451.9 444.2 453.3 444 454.8 443.5 455.7 442.4 456.7 442.1 457 441.4 457.9 440.9 458.9 439.9 460.3 438 462.4 436.8 463.6 435.6 464.5 433.8 465.3 433 465.4 432.7 465.9 431.7 465.6 430.9 466 429.1 465.6 428.1 465.9 427.4 465.8 425.6 466.6 424.2 466.9 423.2 467.7 422.4 467.7 421.7 467 421.1 466.9 420.4 466 420.3 466.3 420.1 465.8 420.1 464.6 419.5 463.2 420.1 462.9 420 461.4 418.9 459.5 418.1 457.9 418.1 457.9 416.9 455.4 415.6 453.9 415 452.5 414.6 450.7 414.2 449.4 413.6 446.5 413.6 444.3 413.4 443.3 412.7 442.6 411.9 441.1 411 438.9 410.6 437.8 409.2 436.1 409.1 434.7 409 433.6 409.2 432.1 409.8 430.5 409.9 429.8 410.4 428.2 410.8 427.5 411.8 426.4 412.3 425.6 412.5 424.3 412.4 423.4 411.9 422.7 411.5 421.7 411.1 420.7 411.2 420.3 411.7 419.7 411.2 418 410.8 416.9 410 415.8 410.1 415.5 409.9 415 409.4 413.7 408.1 411.9 406.3 410.2 405.2 408.8 404.2 407.1 404.3 406.5 404.6 406 405 404.8 405.4 403.5 405.1 403.3 405.6 401.4 405.9 400.1 405.2 398.9 404.5 398.7 404.1 397.9 403.7 397.7 403.7 397.2 402 397.8 401.3 397.7 400.7 398.1 399.3 398.1 398.4 397 397.9 395.8 396.7 394.7 395.4 394.7 393.9 394.7 392.6 394.9 391.2 395.2 388.6 396.2 387.6 396.8 386.1 397.3 384.6 396.8 383.9 396.8 382.7 396.5 381.6 396.5 379.6 396.8 378.5 397.3 376.8 397.9 376.5 397.9 376 397.9 374.3 397.1 372.8 395.8 371.3 394.9 370.2 393.8 369.8 393.7 368.5 393 367.7 392.1 367.4 391.5 367.2 390.2 366.4 389.2 365.8 388.5 365.3 388.3 364.9 388 364.7 387.2 364.5 386.8 364 386.6 363.1 385.8 362.4 385.7 362 385.2 362 385 361.5 384.6 361.4 384.2 361.1 382.9 361.3 382.2 360.6 380.8 359.8 380.2 360.5 379.9 361.4 378.6 361.8 377.7 361.6 376.8 362.1 375.9 362.3 374.3 362.1 372.5 361.9 371.6 362.1 370.7 361.6 369.9 360.8 369.1 360.8 368.4 360.9 367.5 361.5 367 362.1 366.1 362 365.5 362.6 364.2 363.5 363 364.1 362.7 364.5 361.6 364.6 360.6 365.2 359.5 366.3 358.8 367.3 356.9 368.2 356.1 369.8 355.9 371.1 354.6 372 354.1 373.4 352.5 372.9 350 373.6 348.3 373.8 347.3 374.9 345.9 376.6 345 377.8 344.2 378.9 342.1 379.5 340.8 380.7 340.8 381.7 341.7 383.3 341.5 385 342 385.8 342 387.4 340.9 389.2 340.5 390.3 339.7 391.9 339 394.7 338.7 397.5 338.5 398.4 338.8 399.9 338 401.7 338 402.4 338.5 403.6 338.3 405.4 337.5 406.6 337.7 406.5 338.8 408 338 408.1 338.4 407.2 339.4 407.2 340.4 407.8 340.9 407.6 342.7 406.5 343.7 406.8 344.8 407.7 344.9 408.1 345.8 408.7 346.1 410.7 346.8 411.4 346.7 412.8 347 415 347.9 415.8 349.6 417.3 350 419.7 350.8 421.5 351.8 422.3 351.3 423.1 350.4 422.7 348.9 423.3 347.9 424.5 347 425.6 346.7 427.9 347.1 428.5 348 429.1 348 429.6 348.4 431.3 348.6 431.7 349.3 433.9 349.2 435.6 349.8 437.2 350.3 438 350.6 439.3 350 440 349.5 441.5 349.3 442.7 349.5 443.1 350.5 443.5 349.9 444.9 350.3 446.2 350.4 447 350 447.5 349.3 447.4 349.2 447.8 348.3 448.2 346.8 448.4 346.3 448.5 346.2 449.1 344.6 449.9 343.2 449.9 343.1 449.8 341.5 450.2 340.7 449.6 339.7 450.2 338.9 449.2 339.1 447.8 338.6 446.6 339.8 444.1 340.1 442.7 339 440.9 338.9 440.5 339.8 439.3 340 437.7 338.9 435.9 338.9 434.9 336.8 433.7 335.6 434.5 334 433.4 332.9 435.3 330.8 437.9 330.8 438.6 329.1 441.8 329.4 443.8 327.9 445.7 327.3 448.5 327.2 451.5 328.8 453.9 329.7 455.8 329.3 457.3 329.5 459.3 328.4 459.5 327.4 459.1 325.8 458.1 325 457.2 324.7 456.6 324 454.4 322.1 452.5 321.2 451.1 319.8 452.3 319.4 453.7 317.4 452.7 316.4 455.2 315.4 455.2 314.9 453.7 315.3 452.3 315.5 451.2 316.3 449.6 316.4 448.2 317.3 448.3 318.8 449.1 319.4 450.8 319.2 450.5 320.1 448.6 320.5 446.4 321.9 445.4 321.4 445.8 320.3 444 319.6 444.3 319.1 445.9 318.3 445.4 317.8 442.8 317.2 442.7 316.2 441.1 316.5 440.5 317.9 439.2 319.7 439.2 320.3 438.4 320.8 437.9 320.6 437.4 323.4 436.5 324.4 435.9 326 436.5 327.3 436.7 328.2 438.1 328.9 437.8 329.4 435.8 329.6 435.1 330.2 433.7 331.4 433.2 330.4 433.2 329.9 432.2 329.9 431.3 329.7 429.3 330.3 430.4 331.5 429.6 331.9 428.7 331.9 427.8 330.7 427.4 331.2 427.8 332.5 428.7 333.5 428 334 429 335 429.8 335.6 429.8 336.8 428.3 336.3 428.8 337.3 427.7 337.6 428.3 339.4 427.2 339.4 425.8 338.5 425.2 336.8 424.9 335.4 424.3 334.4 423.4 333.2 423.3 332.6 423 332.4 423 332 422 331.2 421.9 330.2 422 328.6 422.3 327.9 422 327.6 421.6 327.4 421.2 326.7 420.4 326.2 418.9 325.4 417.9 324.5 416.3 323.9 414.9 322.1 415.3 322 414.5 321 414.5 320.2 413.4 319.8 412.9 320.8 412.4 320 412.4 319.2 412.5 319.2 412.8 318.9 411.5 318.6 410.1 319.4 410.2 320.6 410 321.3 410.6 322.5 412.2 323.7 413 325.6 414.9 327.4 416.2 327.4 416.6 327.9 416.1 328.3 417.6 329.2 418.9 329.8 420.3 331 420.5 331.4 420.2 332.2 419.2 331.2 417.8 330.8 417.1 332.2 418.3 333 418.1 334.2 417.4 334.3 416.5 336.1 415.8 336.3 415.8 335.6 416.1 334.5 416.5 334 415.8 332.8 415.3 331.7 414.6 331.4 414.1 330.4 413.1 330 412.3 329.1 411.1 329 409.8 328 408.2 326.5 407.1 325.2 406.6 322.9 405.7 322.6 404.4 321.9 403.6 322.2 402.6 323.3 401.9 323.4 400.4 324.7 397.1 324.1 394.6 324.9 394.4 326.2 394.5 327.6 392.9 329.1 390.8 329.5 390.6 330.3 389.6 331.5 389 333.3 389.6 334.5 388.6 335.5 388.3 336.9 387 337.3 385.8 338.9 383.7 338.9 382.1 338.9 381 339.6 380.4 340.4 379.6 340.2 378.9 339.5 378.5 338.3 376.9 338 376.2 338.5 375.3 338.3 374.5 338.5 374.7 336.8 374.6 335.5 373.8 335.3 373.4 334.5 373.6 333.1 374.2 332.3 374.3 331.4 374.7 330.1 374.7 329.1 374.3 328.3 374.2 327.6 374.3 326 373.6 325 376 323.3 378.1 323.7 380.3 323.7 382.1 324.1 383.5 324 386.2 324.1 387.1 322.7 387.4 317.9 385.7 315.4 384.4 314.1 381.9 313.1 381.7 311.3 383.9 310.7 386.7 311.4 386.2 308.5 387.8 309.6 391.7 307.6 392.2 305.4 393.7 304.9 395 304.3 395.9 303.6 397.3 299.6 399.6 298.4 401 298.5 401.4 297.9 402.8 297.7 403.1 298.3 404.2 296.9 403.8 295.8 403.8 294.2 403.1 292.6 403 289.5 403.3 288.7 403.8 287.7 405.3 287.5 405.9 286.7 407.2 285.8 407.1 287.4 406.7 288.4 406.9 289.3 407.8 289.7 407.4 290.9 406.9 290.5 405.6 292.7 406.1 294.1 406.1 295.3 407.8 295.9 407.8 297 409.5 296.4 410.5 295.6 412.4 296.8 413.2 297.7 414.3 296.8 416.9 295.5 419 294.5 420.7 295 420.8 295.7 422.5 295.8 422.8 294.5 425.2 293.5 424.8 291 424.9 288.7 425.7 286.8 427.3 285.7 428.6 288.1 430 288 430.3 285.6 430.5 283.7 429.9 284.1 428.8 283 428.6 281.1 430.8 280.2 432.9 279.7 434.7 280.3 436.4 280.2 438.4 278.3 436.6 276.7 433.5 277 430.6 278.2 427.9 278.9 426.9 277.1 425.3 276 425.6 272.5 424.8 269.3 425.6 267.1 427.1 264.8 431 260.6 432.1 259.7 431.9 258 429.6 256.1 426.7 257.3 425.1 260.1 425.3 262.5 422.7 265.6 419.4 268.8 418.2 273.8 419.4 276.3 421 278.1 419.5 281.9 417.7 282.6 417.1 288 416.1 290.8 414.1 290.5 413.1 292.9 411.2 293 410.6 290.2 409.2 286.7 408 282.2 406.8 280.2 403.5 284 401.3 284.7 398.9 283.1 398.3 279.5 397.8 271.6 399.4 269.3 403.8 266.2 407.1 262.2 410.2 256.6 414.2 248.4 417 245 421.7 239 425.4 236.9 428.1 237.1 430.7 232.9 433.7 233.2 436.8 232.1 442 235.9 439.8 237.2 441.7 240.3 443.4 238.6 446.2 241.5 450.8 242.6 457.1 247.8 458.4 249.9 458.5 252.8 456.7 255 453.9 256.1 446.4 252.9 445.2 253.5 447.9 256.5 448.1 262.5 450.3 263.7 451.6 264.7 451.8 262.8 450.8 261 451.9 259.6 456 262.1 457.4 261.1 456.2 258.2 460.2 254.1 461.7 254.4 463.3 255.8 464.3 253 462.9 250.4 463.7 247.7 462.4 244.9 467.1 246.4 468.1 248.9 466 249.4 466 251.9 467.3 253.3 469.9 252.4 470.3 249.6 473.8 247.5 479.7 243.6 481 243.8 479.3 246.6 481.4 247.1 482.6 245.5 485.7 245.4 488.2 243.5 490.2 246.3 492.1 243.2 490.3 240.5 491.2 238.9 496.1 240.3 498.5 241.8 504.6 247.1 505.7 244.7 504 242.3 503.9 241.2 501.9 240.8 502.4 238.5 501.6 234.6 501.5 232.9 504.6 228.2 505.7 223.1 507 222 511.4 223.5 511.8 226.6 510.2 231 511.2 232.6 511.7 236.2 511.4 242.8 513.2 245.7 512.5 248.7 509.2 254.8 511.1 255.4 511.8 253.9 513.6 252.8 514.1 250.7 515.5 248.6 514.6 246 515.3 243 513.5 242.6 513.1 239.9 514.4 235 512.3 230.8 515.3 227.1 514.9 223.2 515.7 223 516.6 226.2 515.9 231.4 517.7 232.3 517 228.5 519.8 226.3 523.3 226 526.4 229.2 524.9 224.6 524.7 218.4 527.6 217.2 531.7 217.5 535.3 216.7 534 213.4 535.9 209.2 537.8 209.1 541.1 205.8 545.5 204.9 546.1 203 550.5 202.3 551.9 203.9 555.7 200.1 558.7 200.3 559.2 197.1 560.8 193.9 564.8 190.7 567.7 193.3 565.4 195.1 569.2 196.3M472 328.9L472.8 330.5 473.6 330.6 474.1 331.2 472.7 331.4 472.4 333.1 472.1 333.8 471.5 334.3 471.6 335.4 472.1 337 473.7 337.4 474.9 338.5 477.3 338.8 479.9 338.3 480 337.8 479.7 336.3 480 334 478.7 333.3 479.1 331.8 478 331.7 478.3 329.8 479.9 330.4 481.4 329.7 480.2 328.3 479.7 327 478.3 327.6 478.2 329.3 477.7 327.8 477.6 327.3 478 326.3 477.7 325.5 475.7 324.7 474.9 322.6 474 322.1 474 321.3 475.6 321.5 475.7 319.8 477.1 319.4 478.6 319.7 478.9 317.4 478.6 315.9 476.9 316 475.5 315.4 473.5 316.5 471.9 317 471.2 318.4 469.5 318.8 467.9 321.3 469.4 323.5 469.2 325.1 471.1 327.7 472 328.9" class="b"/><path d="M231.7 192.1L231 192.3 227.8 191.8 227.4 189.6 230.8 189.8 231.9 191.2 231.7 192.1" class="b"/><path d="M204.3 190.7L201.1 193 198.6 190.5 200 187.9 202.5 187.1 204.8 188.3 204.3 190.7" class="b"/><path d="M431 189.5L427.2 192.7 424.3 190.9 425.4 188.8 424.4 186.2 427.9 184.6 428.5 187.7 431 189.5" class="b"/><path d="M205.1 183.3L203.1 185 200.3 185 200.3 183.8 202.1 181.2 203 181.6 205.1 183.3" class="b"/><path d="M228.4 187.9L225.9 189.5 224.5 187.6 223.8 184.5 223.7 181 225.9 181.4 226.8 181.9 228.8 184.9 228.4 187.9" class="b"/><path d="M221.3 185.7L221.9 189.1 219.2 188.2 216.4 185.5 212.7 185.2 214.3 182.7 212.3 180.6 212.2 177.2 215.5 178.4 220 181.6 221.3 185.7" class="b"/><path d="M566 185.8L556.5 189 559.6 177.8 561 176.8 562.2 177.4 566.5 182.4 566 185.8" class="b"/><path d="M420.1 173.5L425.6 180.3 421.4 183.7 420.5 189.7 419 191.2 418.2 197.5 416.2 197.8 412.6 193.2 414.1 190.4 411.6 188.1 408.3 181 407 174 411.6 170.6 412.5 173.9 414.9 173.8 415.5 170.5 418 170.2 420.1 173.5" class="b"/><path d="M432.2 166.6L435.5 170.1 433 175.2 428.1 176.3 423.2 174.8 422.9 172.2 420.5 172 418.6 167.5 423.8 164.7 426.2 167.1 427.9 164.1 432.2 166.6" class="b"/><path d="M475.4 165.2L473.1 166.6 471.6 167.3 471.4 168.9 469.4 170.6 467.6 168.2 468.5 165.1 464.8 164.8 468.1 162.9 470.6 162.8 471 165.5 471.9 163.1 473.5 161.3 476 163.6 475.4 165.2" class="b"/><path d="M557.4 180.9L553.7 182 549 179.5 546.2 176.1 544.9 169.3 542.6 167.3 547 160.2 550.6 157.7 553.9 163.1 557.8 172.8 557.4 180.9" class="b"/><path d="M243.2 173.9L245.2 176.9 242.9 179.5 239.8 186 236.8 186.6 233.4 185.5 231.5 182.1 231.6 178.9 232.9 176.5 229.8 176.5 228 173.5 226.9 169.1 228.1 164.6 229.2 161.5 231 160.7 230.2 158.2 234.1 157.7 236.3 163.4 239.1 165.6 241.9 167.5 243.2 173.9" class="b"/><path d="M274.3 134.7L278.8 135.8 282.4 137.6 285.5 141.2 285.4 144.6 281.3 150 277.3 152.3 275.7 154.9 279.4 154.9 275.4 161.5 272.7 164.5 269.8 172.6 266.3 174.1 265.3 176 260.2 177 262.5 178.1 261.3 179.7 262.7 184 261.1 186.8 258.5 189.1 257.7 192.2 255.4 194.5 255.6 196.2 258.5 195.9 258.5 197.7 254.1 202 249.7 200.1 244.7 201.2 242.2 200.3 239 200 238.8 196.4 241.9 194.7 241.1 189.1 242.1 188.6 246.6 192 244.3 186.9 241.6 185.3 243 182 246 179.9 246.4 176.8 244.1 173.2 243.3 168.2 247.9 168.6 249.3 169.7 251.9 166.1 248.1 164.9 242.2 165.5 239.3 162 237.9 157.6 235.9 154.3 235.5 150.4 238 148.1 240 147.7 243.3 145.6 245.8 140.9 247.8 141.6 249.6 145.1 250.9 138.1 253.1 135.9 256.2 134.4 261.3 133.8 262.2 135.3 267 132.9 270.7 133.8 274.3 134.7" class="b"/><path d="M343.9 128.7L354.4 139.9 351.3 144.9 344.9 145.4 335.8 146.6 336.7 148.8 342.6 147.5 347.7 151.6 350.9 148 352.3 152.2 350.5 158.8 354.8 154.7 362.9 150.1 368 152.4 368.9 157.3 362.1 164.9 361.1 167.2 355.7 168.9 359.6 169.4 357.7 176.3 356.3 182.1 356.4 191.2 358.4 196.2 355.8 196.5 353 198.8 356.1 202.6 356.5 208.4 354.7 209 356.9 214.5 353.1 214.9 355.1 217.4 354.5 219.5 352.2 220.4 349.8 220.4 351.9 224.3 352 226.8 348.6 224.5 347.8 226 350 227.4 352.2 230.6 352.9 234.8 349.9 235.8 348.6 233.8 346.5 230.8 347.1 234.4 345.1 237 349.6 237.2 351.9 237.5 347.4 241.7 342.8 245.4 337.9 247 336 247 334.3 248.7 332 253.3 328.3 256.2 327.2 256.4 324.9 257.4 322.5 258.3 321.1 260.8 321.1 263.5 320.2 266 317.5 269 318.1 271.8 317.4 274.8 316.5 278.1 314.2 278.3 311.7 275.5 308.3 275.5 306.7 273.6 305.6 270.1 302.7 265.5 301.8 263 301.6 259.5 299.3 255.7 299.9 252.6 298.7 251.1 300.4 245.9 302.9 244.2 303.6 242.2 303.9 238.5 302 240.2 301.1 240.9 299.6 241.6 297.5 240 297.4 236.7 298.1 234 299.6 233.9 303.1 235.3 300.2 232 298.7 230.2 297 231 295.6 229.7 297.5 224.6 296.5 222.4 295.1 218.4 293.1 211.9 291 209.4 291 206.6 286.5 202.6 282.9 202.1 278.4 202.3 274.3 202.9 272.4 200.6 269.4 196 273.9 193.6 277.2 193.2 270 191.2 266.3 188 266.5 184.8 272.8 180.6 279 176.3 279.7 173 275.1 169.5 276.6 165.5 282.4 158.1 284.8 157 284.1 151.8 288.1 148.7 293.3 146.8 298.5 146.6 300.3 150.4 304.7 143.6 308.8 148.3 311.1 149.3 314.6 153.1 310.6 146.6 310.8 141.2 316.5 133 322.4 133.7 324.5 128.3 330.5 126.9 343.9 128.7" class="b"/></g></g></svg>