<svg width="100" height="100" viewBox="0 0 778 180" xmlns="http://www.w3.org/2000/svg" stroke-linejoin="round"><style>.a{fill:#fff;}</style><path d="M717.1 180c32.2 0 54.6-16.6 54.6-40.7 0-20.7-12.2-32.9-37.8-38.3l-16.1-3.4c-8-1.7-12.4-5.4-12.4-10 0-6.3 6.1-10.2 16.1-10.2 11.2 0 22 3.2 34.6 10.5l11-25.1c-11.5-8.3-27.1-12.9-44.4-12.9 -31.5 0-52 16.1-52 41.2 0 20 12 31.7 37.3 36.8l14.9 3.2c10 2.2 13.4 5.1 13.4 11 0 6.3-7.1 10-19.8 10 -10.5 0-25.9-5.6-38.8-14.1l-10.7 25.4c11 10.2 30 16.6 50 16.8Zm-123.2-30.5c-17.8 0-29.3-12.9-29.3-34.6 0-21.7 11.5-34.6 29.3-34.6 17.8 0 29.3 12.9 29.3 34.6 0 21.7-11.5 34.6-29.3 34.6Zm8 30.5c29.5 0 55.9-23.9 55.9-65.1 0-40-23.9-65.1-54.6-65.1 -16.6 0-29.3 7.1-37.1 18.8l0-68.5 -33.7 0 0 142.2c0 11.7-0.5 22-1.5 34.4l31.7 0c0.5-4.9 1-10 1.2-15.6 9 12.7 22.9 19 38 19Zm-149.8-30.5c-17.8 0-29.3-12.9-29.3-34.6 0-21.7 11.5-34.6 29.3-34.6 17.8 0 29.3 12.9 29.3 34.6 0 21.7-11.5 34.6-29.3 34.6Zm-1.2 30.5c38 0 65.1-25.1 65.1-65.1 0-40-25.9-65.1-63.9-65.1 -37.3 0-63.9 27.3-63.9 65.1 0 38.8 25.4 65.1 62.7 65.1Zm-110.7 0c16.8 0 34.1-5.9 44.6-15.4l-12.2-25.6c-9.3 5.9-21.2 9.8-30.5 9.8 -19 0-31.2-12.9-31.2-33.9 0-20.2 12-33.9 32.9-33.9 8.8 0 19 3.9 27.6 9.5l13.4-26.6c-10.7-9.3-25.4-14.1-41.7-14.1 -42.2 0-66.8 30-66.8 65.1 0 40 24.4 65.1 63.9 65.1Zm-112.9-48c0 16.3-13.9 21.7-25.1 21.7 -11.5 0-17.8-4.4-17.8-13.7 0-8 5.1-13.9 19-14.6l23.9-1.2 0 7.8Zm5.6 44.6l31.7 0c-2.4-10.2-4.1-27.1-4.1-38.8l0-39.3c0-30.2-18.8-48.8-52-48.8 -35.9 0-51.5 22.7-53.9 40.7l31.7 0c2-8 9-13.2 21.2-13.2 12 0 19.8 6.1 19.8 18.3l0 5.1 -30.7 1.5c-32.4 1.7-45.6 18-45.6 40 0 23.7 16.8 37.8 42.4 37.8 19 0 31.2-9.3 37.3-16.8 0.5 5.1 1.5 10 2.2 13.4Zm-132.4-109l35.6 0 0-67.6 -69.5 0 0 33.7 33.9 0 0 33.9Zm-33.2 112.4c41 0 68.8-28.8 68.8-68.8l0-21.2 -35.6 0 0 21.2c0 21-12.9 34.6-33.2 34.6 -19 0-30-12-32-28.8l-35.4 0c2 36.8 28.5 62.9 67.3 62.9Z" class="a"/><path d="M772.5 169.9c-0.3 0-0.5 0-0.8 0l0 1.8c0.2 0 0.5 0 0.7 0 0.9 0 1.4-0.3 1.4-0.9 0-0.3-0.1-0.6-0.3-0.7 -0.2-0.1-0.5-0.2-1-0.2Zm-1.5 4.2l0-4.8c0.3 0 0.6 0 0.8-0.1 0.3 0 0.5 0 0.6 0 1.3 0 2 0.5 2 1.5 0 0.7-0.3 1.1-0.9 1.4l1.1 2 -0.8 0 -0.9-1.8c-0.1 0-0.3 0-0.4 0 -0.3 0-0.5 0-0.7 0l0 1.8 -0.7 0Zm1.6 1.6c1.3 0 2.2-0.3 2.9-1 0.7-0.7 1-1.7 1-2.9 0-1.3-0.3-2.3-1-2.9 -0.7-0.7-1.6-1-2.9-1 -1.2 0-2.2 0.3-2.9 1 -0.7 0.7-1 1.7-1 2.9 0 1.3 0.3 2.2 1 2.9 0.7 0.7 1.6 1 2.9 1Zm-4.9-4c0-1 0.2-1.8 0.6-2.6 0.4-0.7 1-1.3 1.7-1.7 0.7-0.4 1.6-0.6 2.6-0.6 1 0 1.8 0.2 2.6 0.6 0.7 0.4 1.3 1 1.7 1.7 0.4 0.7 0.6 1.6 0.6 2.6 0 1-0.2 1.8-0.6 2.6 -0.4 0.7-1 1.3-1.7 1.7 -0.7 0.4-1.6 0.6-2.6 0.6 -1 0-1.8-0.2-2.6-0.6 -0.7-0.4-1.3-1-1.7-1.7 -0.4-0.7-0.6-1.6-0.6-2.6Z" class="a"/></svg>