<?xml version="1.0" encoding="UTF-8" standalone="no"?><!DOCTYPE svg PUBLIC "-//W3C//DTD SVG 1.1//EN" "http://www.w3.org/Graphics/SVG/1.1/DTD/svg11.dtd"><svg width="100%" height="100%" viewBox="0 0 327 118" version="1.1" xmlns="http://www.w3.org/2000/svg" xmlns:xlink="http://www.w3.org/1999/xlink" xml:space="preserve" xmlns:serif="http://www.serif.com/" style="fill-rule:evenodd;clip-rule:evenodd;stroke-linejoin:round;stroke-miterlimit:2;"><g><path d="M296.956,90.244l0,-15.493l29.634,21.588l-29.634,21.588l0,-15.504c-44.771,-0.054 -78.655,-0.327 -123.253,0.01c-3.423,0.039 -6.37,2.547 -9.283,4.463c-3.306,2.172 -6.79,4.1 -10.52,5.381c-11.401,3.915 -24.504,2.616 -34.589,-2.535c-3.944,-2.014 -7.449,-4.947 -11.451,-6.63c-1.753,-0.736 -3.713,-0.679 -5.631,-0.679c-30.069,-0.004 -72.125,-0.044 -102.229,-0.071c0,0 3.291,-12.175 3.28,-12.186c30.999,0.028 70.671,-0.055 101.645,0.068c2.996,0.023 5.9,0.788 8.604,2.052c5.291,2.474 9.767,6.403 15.429,8.345c8.587,2.944 18.403,2.142 25.918,-2.161c4.976,-2.848 9.44,-6.772 15.192,-7.885c0.786,-0.152 1.581,-0.254 2.38,-0.308c0.436,-0.029 0.873,-0.042 1.31,-0.043l123.198,0Z" style="fill:#1a237e;"/><path d="M27.597,0l-18.704,67.237l13.063,0l4.104,-14.987l23.436,0l4.034,14.987l13.063,0l-18.634,-67.237l-20.362,0Zm1.44,40.734l8.165,-30.178l1.152,0l8.164,30.178l-17.481,0Z" style="fill:#2962ff;fill-rule:nonzero;"/><rect x="72.177" y="0" width="12.093" height="67.237" style="fill:#2962ff;fill-rule:nonzero;"/><rect x="95.042" y="19.598" width="12.093" height="47.639" style="fill:#2962ff;fill-rule:nonzero;"/><path d="M153.452,19.598l0,6.716l-1.345,0c-2.499,-4.03 -6.728,-8.061 -15.186,-8.061c-11.915,0 -21.897,10.172 -21.897,24.396c0,14.224 9.982,24.396 21.897,24.396c8.458,0 12.687,-4.03 15.186,-8.061l1.153,0l0,6.142c0,8.459 -5.67,12.307 -13.167,12.307c-7.209,0 -11.822,-4.521 -14.319,-9.426l-10.174,6.348c4.799,7.492 12.19,13.441 25.262,13.441c14.99,0 24.491,-9.116 24.491,-22.19l0,-46.008l-11.901,0Zm-13.263,36.699c-7.305,0 -13.072,-4.803 -13.072,-13.642c0,-8.848 5.767,-13.654 13.072,-13.654c7.497,0 13.071,4.998 13.071,13.648c0,8.652 -5.574,13.648 -13.071,13.648Z" style="fill:#2962ff;fill-rule:nonzero;"/><path d="M176.125,19.598l0,47.639l12.093,0l0,-24.594c0,-8.454 4.133,-13.258 11.919,-13.258c6.921,0 10.765,3.939 10.765,10.568l0,27.284l12.093,0l0,-28.437c0,-12.389 -7.966,-19.97 -18.533,-19.97c-8.747,0 -13.168,4.03 -15.091,8.444l-1.345,0l0,-7.676l-11.901,0Z" style="fill:#2962ff;fill-rule:nonzero;"/><rect x="233.191" y="19.598" width="12.093" height="47.639" style="fill:#2962ff;fill-rule:nonzero;"/><path d="M251.06,19.598l0,10.172l12.105,0l0,28.255c0,5.374 4.031,9.212 9.405,9.212l13.063,0l0,-10.171l-7.686,0c-1.729,0 -2.69,-0.961 -2.69,-2.884l0,-24.412l13.066,0l0,-10.172l-13.066,0l0,-14.794l-12.092,0l0,14.794l-12.105,0Z" style="fill:#2962ff;fill-rule:nonzero;"/><circle cx="101.093" cy="6.042" r="6.042" style="fill:#2962ff;"/><circle cx="239.233" cy="6.042" r="6.042" style="fill:#2962ff;"/></g></svg>