<?xml version="1.0" encoding="UTF-8" standalone="no"?><!DOCTYPE svg PUBLIC "-//W3C//DTD SVG 1.1//EN" "http://www.w3.org/Graphics/SVG/1.1/DTD/svg11.dtd"><svg width="100%" height="100%" viewBox="0 0 353 353" version="1.1" xmlns="http://www.w3.org/2000/svg" xmlns:xlink="http://www.w3.org/1999/xlink" xml:space="preserve" xmlns:serif="http://www.serif.com/" style="fill-rule:evenodd;clip-rule:evenodd;stroke-miterlimit:10;"><g opacity="0.6"><g><clipPath id="_clip1"><rect x="49.465" y="190.23" width="145.693" height="106.356" clip-rule="nonzero"/></clipPath><g clip-path="url(#_clip1)"><path d="M0,201.163l201.162,-201.162l0.831,0l-201.993,201.993l0,-0.831Z" style="fill:#cdcccc;fill-rule:nonzero;"/><path d="M0,217.959l217.959,-217.959l0.831,0l-218.79,218.79l0,-0.831Z" style="fill:#cdcccc;fill-rule:nonzero;"/><path d="M0,234.756l234.755,-234.756l0.832,0l-235.587,235.587l0,-0.831Z" style="fill:#cdcccc;fill-rule:nonzero;"/><path d="M0,251.552l251.552,-251.552l0.832,0l-252.384,252.383l0,-0.831Z" style="fill:#cdcccc;fill-rule:nonzero;"/><path d="M0,268.349l268.349,-268.349l0.831,0l-269.18,269.18l0,-0.831Z" style="fill:#cdcccc;fill-rule:nonzero;"/><path d="M0,285.146l285.145,-285.146l0.832,0l-285.977,285.977l0,-0.831Z" style="fill:#cdcccc;fill-rule:nonzero;"/><path d="M0,301.942l301.942,-301.942l0.831,0l-302.773,302.773l0,-0.831Z" style="fill:#cdcccc;fill-rule:nonzero;"/><path d="M0,318.739l318.739,-318.739l0.831,0l-319.57,319.57l0,-0.831Z" style="fill:#cdcccc;fill-rule:nonzero;"/><path d="M0,335.536l335.535,-335.536l0.832,0l-336.367,336.367l0,-0.831Z" style="fill:#cdcccc;fill-rule:nonzero;"/><path d="M352.748,0l0,0.416l-352.332,352.332l-0.416,0l0,-0.416l352.332,-352.332l0.416,0Z" style="fill:#cdcccc;fill-rule:nonzero;"/><path d="M352.748,17.213l-335.535,335.536l-0.832,0l336.367,-336.367l0,0.831Z" style="fill:#cdcccc;fill-rule:nonzero;"/><path d="M352.748,34.009l-318.739,318.739l-0.831,0l319.57,-319.57l0,0.831Z" style="fill:#cdcccc;fill-rule:nonzero;"/><path d="M352.748,50.806l-301.942,301.942l-0.831,0l302.773,-302.773l0,0.831Z" style="fill:#cdcccc;fill-rule:nonzero;"/><path d="M352.748,67.603l-285.145,285.146l-0.832,0l285.977,-285.977l0,0.831Z" style="fill:#cdcccc;fill-rule:nonzero;"/><path d="M352.748,84.399l-268.349,268.349l-0.831,0l269.18,-269.18l0,0.831Z" style="fill:#cdcccc;fill-rule:nonzero;"/><path d="M352.748,101.196l-251.552,251.552l-0.831,0l252.383,-252.383l0,0.831Z" style="fill:#cdcccc;fill-rule:nonzero;"/><path d="M352.748,117.993l-234.755,234.756l-0.832,0l235.587,-235.587l0,0.831Z" style="fill:#cdcccc;fill-rule:nonzero;"/><path d="M352.748,134.789l-217.959,217.959l-0.831,0l218.79,-218.79l0,0.831Z" style="fill:#cdcccc;fill-rule:nonzero;"/><path d="M352.748,151.586l-201.162,201.162l-0.831,0l201.993,-201.993l0,0.831Z" style="fill:#cdcccc;fill-rule:nonzero;"/><path d="M352.748,168.383l-184.365,184.366l-0.832,0l185.197,-185.197l0,0.831Z" style="fill:#cdcccc;fill-rule:nonzero;"/><path d="M352.748,185.179l-167.569,167.569l-0.831,0l168.4,-168.4l0,0.831Z" style="fill:#cdcccc;fill-rule:nonzero;"/><path d="M0,192.638l192.637,-192.637l0.832,0l-193.469,193.468l0,-0.831Z" style="fill:#cdcccc;fill-rule:nonzero;"/><path d="M0,209.434l209.434,-209.434l0.831,0l-210.265,210.265l0,-0.831Z" style="fill:#cdcccc;fill-rule:nonzero;"/><path d="M0,226.231l226.231,-226.231l0.831,0l-227.062,227.062l0,-0.831Z" style="fill:#cdcccc;fill-rule:nonzero;"/><path d="M0,243.028l243.027,-243.027l0.832,0l-243.859,243.858l0,-0.831Z" style="fill:#cdcccc;fill-rule:nonzero;"/><path d="M0,259.824l259.824,-259.824l0.831,0l-260.655,260.655l0,-0.831Z" style="fill:#cdcccc;fill-rule:nonzero;"/><path d="M0,276.621l276.621,-276.621l0.831,0l-277.452,277.452l0,-0.831Z" style="fill:#cdcccc;fill-rule:nonzero;"/><path d="M0,293.418l293.417,-293.417l0.832,0l-294.249,294.248l0,-0.831Z" style="fill:#cdcccc;fill-rule:nonzero;"/><path d="M0,310.215l310.214,-310.214l0.832,0l-311.046,311.045l0,-0.831Z" style="fill:#cdcccc;fill-rule:nonzero;"/><path d="M0,327.011l327.011,-327.011l0.831,0l-327.842,327.842l0,-0.831Z" style="fill:#cdcccc;fill-rule:nonzero;"/><path d="M0,343.808l343.807,-343.807l0.832,0l-344.639,344.638l0,-0.831Z" style="fill:#cdcccc;fill-rule:nonzero;"/><path d="M352.748,8.688l-344.06,344.06l-0.832,0l344.892,-344.891l0,0.831Z" style="fill:#cdcccc;fill-rule:nonzero;"/><path d="M352.748,25.485l-327.263,327.264l-0.832,0l328.095,-328.095l0,0.831Z" style="fill:#cdcccc;fill-rule:nonzero;"/><path d="M352.748,42.281l-310.467,310.467l-0.831,0l311.298,-311.298l0,0.831Z" style="fill:#cdcccc;fill-rule:nonzero;"/><path d="M352.748,59.078l-293.67,293.67l-0.832,0l294.502,-294.501l0,0.831Z" style="fill:#cdcccc;fill-rule:nonzero;"/><path d="M352.748,75.875l-276.873,276.874l-0.832,0l277.705,-277.705l0,0.831Z" style="fill:#cdcccc;fill-rule:nonzero;"/><path d="M352.748,92.671l-260.077,260.077l-0.831,0l260.908,-260.908l0,0.831Z" style="fill:#cdcccc;fill-rule:nonzero;"/><path d="M352.748,109.468l-243.28,243.28l-0.832,0l244.112,-244.111l0,0.831Z" style="fill:#cdcccc;fill-rule:nonzero;"/><path d="M352.748,126.265l-226.483,226.484l-0.832,0l227.315,-227.315l0,0.831Z" style="fill:#cdcccc;fill-rule:nonzero;"/><path d="M352.748,143.061l-209.687,209.687l-0.831,0l210.518,-210.518l0,0.831Z" style="fill:#cdcccc;fill-rule:nonzero;"/><path d="M352.748,159.858l-192.89,192.89l-0.832,0l193.722,-193.721l0,0.831Z" style="fill:#cdcccc;fill-rule:nonzero;"/><path d="M352.748,176.655l-176.093,176.094l-0.832,0l176.925,-176.925l0,0.831Z" style="fill:#cdcccc;fill-rule:nonzero;"/><path d="M352.748,193.451l-159.297,159.297l-0.831,0l160.128,-160.128l0,0.831Z" style="fill:#cdcccc;fill-rule:nonzero;"/></g></g></g><rect x="66.59" y="179.448" width="146.566" height="102.625" style="fill:#fff;"/><path d="M67.532,281.234l-1.389,0l0,-100.977l1.389,-0.549l0,101.527Z" style="fill:#030405;fill-rule:nonzero;"/><rect x="65.319" y="279.845" width="147.837" height="1.389" style="fill:#030405;"/><path d="M66.366,219.727c7.159,9.902 22.193,11.024 33.24,12.754c6.108,0.957 12.601,1.661 18.351,4.062c9.357,3.908 12.468,14.374 15.742,23.053c0.546,1.448 2.893,0.82 2.341,-0.645c-2.926,-7.755 -5.507,-16.195 -12.145,-21.659c-4.397,-3.619 -10.192,-4.813 -15.657,-5.83c-6.974,-1.298 -14.037,-2.086 -20.971,-3.599c-6.713,-1.464 -14.564,-3.495 -18.805,-9.361c-0.907,-1.254 -3.013,-0.044 -2.096,1.225" style="fill:#030405;fill-rule:nonzero;"/><g opacity="0.5"><path d="M94.579,214.604c7.159,9.902 22.193,11.024 33.24,12.754c6.108,0.956 12.601,1.661 18.351,4.062c9.357,3.908 12.468,14.374 15.742,23.053c0.546,1.448 2.893,0.82 2.341,-0.645c-2.926,-7.755 -5.507,-16.195 -12.145,-21.66c-4.397,-3.619 -10.192,-4.812 -15.657,-5.829c-6.974,-1.298 -14.037,-2.086 -20.971,-3.599c-6.713,-1.464 -14.564,-3.495 -18.805,-9.361c-0.907,-1.254 -3.013,-0.044 -2.096,1.225" style="fill:#030405;fill-rule:nonzero;"/></g><path d="M99.257,214.623l0,0.485" style="fill:none;fill-rule:nonzero;stroke:#030405;stroke-width:0.97px;"/><path d="M99.257,216.101l0,15.404" style="fill:none;fill-rule:nonzero;stroke:#030405;stroke-width:0.97px;stroke-dasharray:0.99,0.99;"/><path d="M99.257,232.002l0,0.485" style="fill:none;fill-rule:nonzero;stroke:#030405;stroke-width:0.97px;"/><rect x="90.66" y="202.346" width="17.193" height="17.193" style="fill:#a52052;"/><g opacity="0.5"><path d="M136.303,214.369c7.159,9.902 22.193,11.024 33.24,12.754c6.108,0.957 12.601,1.661 18.351,4.062c9.357,3.908 12.468,14.374 15.742,23.053c0.546,1.448 2.893,0.82 2.34,-0.645c-2.925,-7.755 -5.506,-16.195 -12.144,-21.66c-4.397,-3.618 -10.192,-4.812 -15.657,-5.829c-6.974,-1.298 -14.037,-2.086 -20.971,-3.599c-6.713,-1.464 -14.564,-3.495 -18.805,-9.361c-0.907,-1.254 -3.013,-0.044 -2.096,1.225" style="fill:#030405;fill-rule:nonzero;"/></g><path d="M142.818,211.924l0,0.485" style="fill:none;fill-rule:nonzero;stroke:#030405;stroke-width:0.97px;"/><path d="M142.818,213.403l0,15.404" style="fill:none;fill-rule:nonzero;stroke:#030405;stroke-width:0.97px;stroke-dasharray:0.99,0.99;"/><path d="M142.818,229.304l0,0.485" style="fill:none;fill-rule:nonzero;stroke:#030405;stroke-width:0.97px;"/><rect x="134.222" y="202.67" width="17.193" height="17.193" style="fill:#a52052;"/></svg>