<?xml version="1.0" encoding="UTF-8" standalone="no"?><!DOCTYPE svg PUBLIC "-//W3C//DTD SVG 1.1//EN" "http://www.w3.org/Graphics/SVG/1.1/DTD/svg11.dtd"><svg width="100%" height="100%" viewBox="0 0 691 487" version="1.1" xmlns="http://www.w3.org/2000/svg" xmlns:xlink="http://www.w3.org/1999/xlink" xml:space="preserve" xmlns:serif="http://www.serif.com/" style="fill-rule:evenodd;clip-rule:evenodd;stroke-miterlimit:10;"><path d="M99.017,118.504l-99.017,99.017l0,2.871l101.888,-101.888l-2.871,0Z" style="fill:#cdcccc;fill-rule:nonzero;"/><path d="M157.06,118.504l-157.059,157.058l0,2.871l159.929,-159.929l-2.87,0Z" style="fill:#cdcccc;fill-rule:nonzero;"/><path d="M215.1,118.504l-215.096,215.096l0,2.875l217.966,-217.971l-2.87,0Z" style="fill:#cdcccc;fill-rule:nonzero;"/><path d="M273.141,118.504l-273.138,273.138l0,2.875l276.013,-276.013l-2.875,0Z" style="fill:#cdcccc;fill-rule:nonzero;"/><path d="M331.183,118.504l-331.183,331.179l0,2.875l334.054,-334.054l-2.871,0Z" style="fill:#cdcccc;fill-rule:nonzero;"/><path d="M389.226,118.504l-367.517,367.517l2.871,0l367.517,-367.517l-2.871,0Z" style="fill:#cdcccc;fill-rule:nonzero;"/><path d="M447.268,118.504l-367.516,367.517l2.871,0l367.516,-367.517l-2.871,0Z" style="fill:#cdcccc;fill-rule:nonzero;"/><path d="M137.792,486.022l2.871,0l362.792,-362.791l0,-2.871l-365.663,365.662Z" style="fill:#cdcccc;fill-rule:nonzero;"/><path d="M195.834,486.022l2.871,0l304.75,-304.75l0,-2.87l-307.621,307.62Z" style="fill:#cdcccc;fill-rule:nonzero;"/><path d="M253.876,486.022l2.871,0l246.708,-246.708l0,-2.871l-249.579,249.579Z" style="fill:#cdcccc;fill-rule:nonzero;"/><path d="M311.916,486.022l2.875,0l188.662,-188.662l0,-2.875l-191.537,191.537Z" style="fill:#cdcccc;fill-rule:nonzero;"/><path d="M369.958,486.022l2.871,0l130.625,-130.625l0,-2.87l-133.496,133.495Z" style="fill:#cdcccc;fill-rule:nonzero;"/><path d="M428.001,486.022l2.871,0l72.583,-72.583l0,-2.871l-75.454,75.454Z" style="fill:#cdcccc;fill-rule:nonzero;"/><path d="M486.043,486.022l2.871,0l14.542,-14.537l0,-2.875l-17.413,17.412Z" style="fill:#cdcccc;fill-rule:nonzero;"/><path d="M69.558,118.504l-69.554,69.554l0,2.875l72.429,-72.429l-2.875,0Z" style="fill:#cdcccc;fill-rule:nonzero;"/><path d="M127.6,118.504l-127.596,127.596l0,2.875l130.471,-130.471l-2.875,0Z" style="fill:#cdcccc;fill-rule:nonzero;"/><path d="M185.642,118.504l-185.642,185.642l0,2.871l188.513,-188.513l-2.871,0Z" style="fill:#cdcccc;fill-rule:nonzero;"/><path d="M243.685,118.504l-243.684,243.683l0,2.871l246.554,-246.554l-2.87,0Z" style="fill:#cdcccc;fill-rule:nonzero;"/><path d="M301.727,118.504l-301.725,301.725l0,2.871l304.596,-304.596l-2.871,0Z" style="fill:#cdcccc;fill-rule:nonzero;"/><path d="M359.77,118.504l-359.767,359.767l0,2.875l362.637,-362.642l-2.87,0Z" style="fill:#cdcccc;fill-rule:nonzero;"/><path d="M417.81,118.504l-367.516,367.517l2.871,0l367.516,-367.517l-2.871,0Z" style="fill:#cdcccc;fill-rule:nonzero;"/><path d="M475.851,118.504l-367.517,367.517l2.875,0l367.517,-367.517l-2.875,0Z" style="fill:#cdcccc;fill-rule:nonzero;"/><path d="M166.375,486.022l2.87,0l334.209,-334.208l0,-2.871l-337.079,337.079Z" style="fill:#cdcccc;fill-rule:nonzero;"/><path d="M224.417,486.022l2.871,0l276.167,-276.166l0,-2.871l-279.038,279.037Z" style="fill:#cdcccc;fill-rule:nonzero;"/><path d="M282.46,486.022l2.87,0l218.125,-218.12l0,-2.875l-220.995,220.995Z" style="fill:#cdcccc;fill-rule:nonzero;"/><path d="M340.502,486.022l2.871,0l160.083,-160.079l0,-2.875l-162.954,162.954Z" style="fill:#cdcccc;fill-rule:nonzero;"/><path d="M398.544,486.022l2.871,0l102.041,-102.037l0,-2.875l-104.912,104.912Z" style="fill:#cdcccc;fill-rule:nonzero;"/><path d="M456.586,486.022l2.871,0l43.996,-43.995l0,-2.875l-46.867,46.87Z" style="fill:#cdcccc;fill-rule:nonzero;"/><path d="M40.975,118.504l-40.971,40.971l0,2.875l43.841,-43.846l-2.87,0Z" style="fill:#cdcccc;fill-rule:nonzero;"/><path d="M11.518,118.504l-11.516,11.517l0,2.871l14.387,-14.388l-2.871,0Z" style="fill:#cdcccc;fill-rule:nonzero;"/><rect x="79.799" y="0" width="610.692" height="427.604" style="fill:#fff;"/><path d="M83.724,424.109l-5.788,0l0,-420.738l5.788,-2.287l0,423.025Z" style="fill:#030405;fill-rule:nonzero;"/><rect x="74.503" y="418.321" width="615.987" height="5.787" style="fill:#030405;"/><path d="M78.867,167.828c29.829,41.258 92.471,45.933 138.5,53.142c25.45,3.987 52.504,6.92 76.463,16.925c38.987,16.283 51.95,59.891 65.591,96.054c2.275,6.033 12.055,3.416 9.755,-2.688c-12.192,-32.312 -22.946,-67.479 -50.605,-90.246c-18.32,-15.079 -42.466,-20.054 -65.237,-24.291c-29.058,-5.409 -58.488,-8.692 -87.379,-14.996c-27.971,-6.1 -60.684,-14.563 -78.354,-39.004c-3.78,-5.225 -12.555,-0.184 -8.734,5.104" style="fill:#030405;fill-rule:nonzero;"/><g opacity="0.5"><path d="M196.42,146.483c29.829,41.258 92.471,45.933 138.5,53.142c25.45,3.983 52.504,6.92 76.462,16.925c38.988,16.283 51.95,59.891 65.592,96.054c2.275,6.033 12.054,3.416 9.754,-2.688c-12.192,-32.312 -22.946,-67.479 -50.604,-90.25c-18.321,-15.079 -42.467,-20.05 -65.238,-24.287c-29.058,-5.409 -58.487,-8.692 -87.379,-14.996c-27.971,-6.1 -60.683,-14.563 -78.354,-39.004c-3.779,-5.225 -12.554,-0.184 -8.733,5.104" style="fill:#030405;fill-rule:nonzero;"/></g><path d="M215.91,146.559l0,2.021" style="fill:none;fill-rule:nonzero;stroke:#030405;stroke-width:4.04px;"/><path d="M215.91,152.72l0,64.183" style="fill:none;fill-rule:nonzero;stroke:#030405;stroke-width:4.04px;stroke-dasharray:4.14,4.14;"/><path d="M215.91,218.974l0,2.021" style="fill:none;fill-rule:nonzero;stroke:#030405;stroke-width:4.04px;"/><rect x="180.091" y="95.408" width="71.637" height="71.637" style="fill:#a52052;"/><g opacity="0.5"><path d="M370.269,145.502c29.829,41.258 92.471,45.933 138.5,53.142c25.45,3.987 52.504,6.921 76.462,16.925c38.988,16.283 51.95,59.891 65.592,96.054c2.275,6.033 12.054,3.417 9.75,-2.688c-12.187,-32.312 -22.942,-67.479 -50.6,-90.25c-18.321,-15.075 -42.467,-20.05 -65.237,-24.287c-29.059,-5.408 -58.488,-8.692 -87.38,-14.996c-27.97,-6.1 -60.683,-14.562 -78.354,-39.004c-3.779,-5.225 -12.554,-0.183 -8.733,5.104" style="fill:#030405;fill-rule:nonzero;"/></g><path d="M397.416,135.316l0,2.021" style="fill:none;fill-rule:nonzero;stroke:#030405;stroke-width:4.04px;"/><path d="M397.416,141.477l0,64.183" style="fill:none;fill-rule:nonzero;stroke:#030405;stroke-width:4.04px;stroke-dasharray:4.14,4.14;"/><path d="M397.416,207.731l0,2.021" style="fill:none;fill-rule:nonzero;stroke:#030405;stroke-width:4.04px;"/><rect x="361.599" y="96.758" width="71.637" height="71.637" style="fill:#a52052;"/></svg>