<?xml version="1.0" encoding="UTF-8" standalone="no"?><!DOCTYPE svg PUBLIC "-//W3C//DTD SVG 1.1//EN" "http://www.w3.org/Graphics/SVG/1.1/DTD/svg11.dtd"><svg width="100%" height="100%" viewBox="0 0 430 92" version="1.1" xmlns="http://www.w3.org/2000/svg" xmlns:xlink="http://www.w3.org/1999/xlink" xml:space="preserve" xmlns:serif="http://www.serif.com/" style="fill-rule:evenodd;clip-rule:evenodd;stroke-linejoin:round;stroke-miterlimit:2;"><path d="M100.45,0.592l33.86,0l0,5.14l-14.14,0l0,35.5l-5.82,0l0,-35.5l-13.9,0l0,-5.14m39.55,40.64l0,-40.63l10.16,0c4.1,0 7.38,1 9.79,3.08c2.423,2.044 3.762,5.104 3.62,8.27c0.054,2.186 -0.564,4.336 -1.77,6.16c-1.278,1.783 -3.067,3.136 -5.13,3.88c1.438,0.969 2.734,2.134 3.85,3.46c1.893,2.453 3.636,5.018 5.22,7.68c1.42,2.31 2.56,4 3.4,5.19l2.14,2.9l-6.93,0l-1.77,-2.69c-0.095,-0.181 -0.209,-0.352 -0.34,-0.51l-1.13,-1.6l-1.8,-2.89l-2,-3.16c-0.978,-1.426 -2.079,-2.765 -3.29,-4c-0.799,-0.821 -1.699,-1.537 -2.68,-2.13c-1.269,-0.508 -2.635,-0.73 -4,-0.65l-1.51,0l0,17.64l-5.83,0m7.57,-35.7l-1.74,0l0,13l2.2,0c2.93,0 4.93,-0.27 6,-0.78c1.073,-0.48 1.968,-1.285 2.56,-2.3c0.612,-1.071 0.923,-2.287 0.9,-3.52c0.013,-1.238 -0.334,-2.455 -1,-3.5c-0.665,-1.044 -1.673,-1.825 -2.85,-2.21c-1.976,-0.538 -4.023,-0.77 -6.07,-0.69Zm42.43,-5.16l4.16,0l18.18,40.85l-6,0l-5.37,-12l-17.28,0l-5.06,12l-6,0l17.35,-40.85m8.68,23.7l-6.58,-14.77l-6.09,14.77l12.67,0Zm49.04,-23.48l5.46,0l0,40.64l-4.94,0l-27.14,-31.28l0,31.28l-5.48,0l0,-40.64l4.73,0l27.37,31.56l0,-31.56m24.25,23.63l-4.43,-2.69c-2.286,-1.26 -4.301,-2.959 -5.93,-5c-1.184,-1.657 -1.805,-3.653 -1.77,-5.69c-0.1,-2.971 1.12,-5.84 3.33,-7.83c2.409,-2.067 5.519,-3.141 8.69,-3c3.337,-0.024 6.603,0.971 9.36,2.85l0,6.67c-2.93,-2.81 -6.09,-4.24 -9.48,-4.24c-1.665,-0.06 -3.309,0.402 -4.7,1.32c-1.136,0.758 -1.823,2.034 -1.83,3.4c0.027,1.271 0.505,2.491 1.35,3.44c1.258,1.347 2.727,2.478 4.35,3.35l4.47,2.65c5,3 7.47,6.74 7.47,11.33c0.109,3.011 -1.083,5.928 -3.27,8c-2.321,2.097 -5.375,3.2 -8.5,3.07c-3.986,0.024 -7.866,-1.306 -11,-3.77l0,-7.36c3.13,4 6.77,6 10.9,6c1.657,0.062 3.281,-0.478 4.57,-1.52c1.161,-0.936 1.826,-2.358 1.8,-3.85c0,-2.473 -1.796,-4.826 -5.39,-7.06m16.86,16.93l0,-40.63l12.87,0c3.87,0 7,1.06 9.23,3.14c2.357,2.146 3.634,5.237 3.48,8.42c0.037,2.215 -0.579,4.393 -1.77,6.26c-1.162,1.804 -2.858,3.202 -4.85,4c-2.843,0.931 -5.83,1.345 -8.82,1.22l-4.3,0l0,17.63l-5.85,0m11.83,-35.49l-6,0l0,12.73l6.31,0c1.963,0.136 3.908,-0.467 5.45,-1.69c1.318,-1.226 2.017,-2.983 1.9,-4.78c0.03,-4.22 -2.52,-6.3 -7.65,-6.3l-0.01,0.04Zm38.72,-5.75c5.811,-0.177 11.456,1.986 15.66,6c4.136,3.873 6.424,9.336 6.28,15c0.151,5.644 -2.161,11.083 -6.33,14.89c-4.321,3.987 -10.043,6.119 -15.92,5.93c-5.687,0.161 -11.206,-1.978 -15.3,-5.93c-4.05,-3.836 -6.278,-9.223 -6.12,-14.8c-0.169,-5.666 2.067,-11.148 6.15,-15.08c4.167,-4.015 9.786,-6.181 15.57,-6m0.29,5.48c-4.255,-0.153 -8.395,1.433 -11.46,4.39c-2.995,2.928 -4.626,6.984 -4.49,11.17c-0.12,4.136 1.516,8.135 4.5,11c6.362,5.849 16.275,5.818 22.6,-0.07c2.994,-2.916 4.643,-6.951 4.55,-11.13c0.081,-4.115 -1.571,-8.08 -4.55,-10.92c-2.965,-2.912 -6.984,-4.506 -11.14,-4.42l-0.01,-0.02Zm28.95,35.72l0,-40.63l10.18,0c4.107,0 7.367,1.027 9.78,3.08c2.423,2.046 3.768,5.102 3.64,8.27c0.124,4.475 -2.689,8.539 -6.92,10c1.436,0.96 2.723,2.126 3.82,3.46c1.915,2.444 3.669,5.009 5.25,7.68c1.38,2.31 2.54,4 3.39,5.19l2.14,2.9l-6.91,0l-1.79,-2.65c-0.099,-0.176 -0.21,-0.346 -0.33,-0.51l-1.13,-1.6l-1.82,-2.89l-1.94,-3.16c-0.98,-1.422 -2.077,-2.76 -3.28,-4c-0.806,-0.826 -1.717,-1.542 -2.71,-2.13c-1.267,-0.515 -2.634,-0.737 -4,-0.65l-1.53,0l0,17.64l-5.81,0m7.53,-35.7l-1.75,0l0,13l2.24,0c2.91,0 4.93,-0.27 6,-0.78c1.075,-0.477 1.971,-1.282 2.56,-2.3c0.62,-1.068 0.939,-2.285 0.92,-3.52c0.02,-1.239 -0.328,-2.458 -1,-3.5c-0.656,-1.048 -1.663,-1.831 -2.84,-2.21c-1.995,-0.546 -4.063,-0.779 -6.13,-0.69Zm19.41,-4.94l33.84,0l0,5.14l-14.1,0l0,35.5l-5.85,0l0,-35.5l-13.89,0l0,-5.14m-266,79.22c0.053,2.135 -0.563,4.233 -1.76,6c-1.249,1.723 -2.958,3.061 -4.93,3.86c-2.314,0.922 -4.789,1.375 -7.28,1.33c-0.935,-0.006 -1.87,-0.059 -2.8,-0.16c-1.487,-0.15 -2.958,-0.425 -4.4,-0.82c-1.966,-0.467 -3.884,-1.117 -5.73,-1.94l0,-9c1.751,1.104 3.587,2.067 5.49,2.88c1.83,0.755 3.792,1.136 5.77,1.12c1.93,0 3.14,-0.3 3.71,-0.91c0.493,-0.491 0.792,-1.145 0.84,-1.84c-0.016,-1.025 -0.556,-1.973 -1.43,-2.51c-1.311,-0.849 -2.713,-1.55 -4.18,-2.09c-1.87,-0.773 -3.672,-1.7 -5.39,-2.77c-1.498,-0.983 -2.773,-2.271 -3.74,-3.78c-0.991,-1.604 -1.491,-3.464 -1.44,-5.35c-0.103,-3.993 2.256,-7.664 5.93,-9.23c2.299,-1.032 4.802,-1.528 7.32,-1.45c1.924,-0.007 3.843,0.201 5.72,0.62c1.477,0.318 2.923,0.766 4.32,1.34c0.811,0.332 1.597,0.723 2.35,1.17l0,8.67c-1.565,-1.134 -3.24,-2.109 -5,-2.91c-1.864,-0.849 -3.891,-1.283 -5.94,-1.27c-1.062,-0.089 -2.123,0.194 -3,0.8c-0.606,0.484 -0.951,1.225 -0.93,2c0.008,0.738 0.351,1.434 0.93,1.89c1.041,0.768 2.165,1.415 3.35,1.93c2.336,1.069 4.609,2.268 6.81,3.59c1.573,0.934 2.935,2.184 4,3.67c1.016,1.535 1.523,3.351 1.45,5.19m40.58,7.92c-1.502,0.795 -3.08,1.438 -4.71,1.92c-1.579,0.468 -3.195,0.803 -4.83,1c-1.657,0.219 -3.328,0.323 -5,0.31c-2.927,0.046 -5.842,-0.404 -8.62,-1.33c-2.465,-0.836 -4.732,-2.171 -6.66,-3.92c-1.825,-1.687 -3.255,-3.756 -4.19,-6.06c-1.93,-5.172 -1.845,-10.887 0.24,-16c1.067,-2.303 2.652,-4.329 4.63,-5.92c2.008,-1.595 4.308,-2.784 6.77,-3.5c2.597,-0.766 5.293,-1.147 8,-1.13c4.866,0.14 9.675,1.086 14.23,2.8l0,9.8c-1.728,-1.079 -3.537,-2.025 -5.41,-2.83c-1.998,-0.799 -4.138,-1.184 -6.29,-1.13c-2.068,-0.02 -4.117,0.413 -6,1.27c-1.805,0.787 -3.364,2.048 -4.51,3.65c-1.154,1.605 -1.755,3.544 -1.71,5.52c-0.011,1.815 0.514,3.593 1.51,5.11c1.007,1.585 2.428,2.865 4.11,3.7c1.861,0.932 3.92,1.399 6,1.36c1.721,0.014 3.436,-0.201 5.1,-0.64c1.374,-0.367 2.713,-0.856 4,-1.46c1.157,-0.572 2.282,-1.206 3.37,-1.9l0,9.34m46.08,-15.65c0.038,3.32 -0.786,6.593 -2.39,9.5c-1.629,2.939 -4.093,5.331 -7.08,6.87c-3.536,1.816 -7.477,2.701 -11.45,2.57c-4.017,0.121 -7.999,-0.795 -11.56,-2.66c-2.968,-1.597 -5.402,-4.032 -7,-7c-3.071,-5.806 -3.071,-12.773 0,-18.58c1.587,-2.975 4.025,-5.413 7,-7c3.564,-1.876 7.555,-2.796 11.58,-2.67c3.101,-0.051 6.185,0.465 9.1,1.52c2.469,0.881 4.717,2.287 6.59,4.12c1.696,1.709 3.018,3.753 3.88,6c0.894,2.316 1.348,4.778 1.34,7.26m-11.34,0c0.018,-1.286 -0.188,-2.565 -0.61,-3.78c-0.387,-1.124 -1.019,-2.148 -1.85,-3c-0.849,-0.868 -1.871,-1.549 -3,-2c-1.316,-0.479 -2.709,-0.71 -4.11,-0.68c-0.102,-0.003 -0.204,-0.005 -0.307,-0.005c-5.167,0 -9.42,4.253 -9.42,9.42c0,5.168 4.253,9.42 9.42,9.42c0.103,0 0.205,-0.001 0.307,-0.005c1.809,0.052 3.6,-0.365 5.2,-1.21c1.397,-0.76 2.536,-1.919 3.27,-3.33c0.734,-1.478 1.108,-3.109 1.09,-4.76l0.01,-0.07Zm50.49,-9.33l-13.52,0l0,27.87l-11.06,0l0,-27.87l-13.5,0l0,-8.99l38.08,0l0,8.99m34.52,27.87l-28.02,0l0,-36.86l11.11,0l0,28l16.91,0l0,8.86m46.2,-0.01l-11.38,0l-3,-7.42l-16,0l-3.1,7.42l-11.37,0l16.32,-36.86l12.27,0l16.26,36.86m-16.93,-13.87l-5.42,-13.48l-5.45,13.48l10.87,0Zm61.83,13.88l-9.85,0l-19.16,-20.55l0,20.55l-11,0l0,-36.86l9.86,0l19.11,20.45l0,-20.45l11.04,0l0,36.86m47.19,-17.75c0.15,3.156 -0.558,6.295 -2.05,9.08c-1.235,2.146 -2.875,4.031 -4.83,5.55c-2.66,2.11 -6.38,3.11 -11.11,3.11l-19.91,0l0,-36.85l15.32,0c1.983,-0.01 3.964,0.114 5.93,0.37c1.505,0.21 2.991,0.544 4.44,1c1.163,0.373 2.283,0.869 3.34,1.48c2.292,1.352 4.262,3.188 5.77,5.38c1.005,1.5 1.771,3.146 2.27,4.88c0.579,1.947 0.862,3.97 0.84,6m-11.28,-0.49c0.143,-2.454 -0.46,-4.895 -1.73,-7c-0.977,-1.528 -2.422,-2.7 -4.12,-3.34c-1.58,-0.56 -3.243,-0.847 -4.92,-0.85l-4.75,0l0,21.76l4.73,0c2.661,0.082 5.288,-0.613 7.56,-2c2.15,-1.44 3.22,-4.27 3.22,-8.57l0.01,0Z" style="fill:#999;fill-rule:nonzero;"/><path d="M66.591,91.019l-20.751,-24.703l-20.1,24.703l40.851,0Zm-20.383,-69.764l-22.954,12.06l21.383,22.591l21.984,-23.431l-20.413,-11.22Zm-9.637,8.401l2.309,-1.266l16.217,11.579l-2.315,2.437l-16.211,-12.75Zm54.44,7.503l0,-26.361l-15.54,19.099l15.54,7.262Zm-39.739,-18.57l19.728,9.218l20.011,-21.327l0,-6.477l-4.382,0l-35.357,18.586Zm-39.77,-18.586l33.226,15.529l36.189,-15.529l-69.415,0Zm5.981,27.217l22.215,-9.532l-32.201,-17.688l-7.497,0l0,8.753l17.483,18.467Zm-2.065,-15.496l10.995,7.846l-1.718,0.768l-10.504,-8.259l1.227,-0.355Zm-12.037,-8.675l7.583,5.427l-0.945,0.31l-7.206,-5.651l0.568,-0.086Zm60.119,47.782l2.558,-3.029l24.953,17.813l0,-19.748l-19.723,-10.831l-21.446,26.363l28.037,29.62l13.132,0l0,-18.575l-27.511,-21.613Zm-49.315,-22.195l-14.185,-16.887l0,22.971l14.185,-6.084Zm26.472,31.511l-20.965,-24.959l-19.692,10.349l0,45.482l11.693,0l28.964,-30.872Zm50.279,-51.63l-76.684,82.508l8.885,-0.008l67.799,-82.043l0,-0.457m-7.738,-8.517l-83.192,36.776l0,6.683l84.301,-43.459l-1.109,0" style="fill:#999;fill-rule:nonzero;"/></svg>