<?xml version="1.0" encoding="UTF-8" standalone="no"?><!DOCTYPE svg PUBLIC "-//W3C//DTD SVG 1.1//EN" "http://www.w3.org/Graphics/SVG/1.1/DTD/svg11.dtd"><svg width="100" height="100" viewBox="0 0 31 33" version="1.1" xmlns="http://www.w3.org/2000/svg" xmlns:xlink="http://www.w3.org/1999/xlink" xml:space="preserve" xmlns:serif="http://www.serif.com/" style="fill-rule:evenodd;clip-rule:evenodd;stroke-linejoin:round;stroke-miterlimit:2;"><path d="M20.277,30.88l1.796,0l0,-9.28l8.16,0l0,11.28l-8.16,0l-1.796,0l-2.001,0l0,-30.88l-4.16,0l0,30.88l-1.999,0l-1.797,0l-2,0l0,-20.394l-4.16,0l0,20.394l-2,0l-2.16,0l0,-2l2.16,0l0,-20.394l8.16,0l0,20.394l1.797,0l0,-30.88l8.16,0l0,30.88Zm3.796,-7.28l0,7.28l4.16,0l0,-7.28l-4.16,0Zm2.133,-12.08l0.053,0.001l0.052,0.002l0.052,0.002l0.052,0.003l0.052,0.004l0.052,0.004l0.051,0.005l0.052,0.006l0.051,0.006l0.051,0.006l0.05,0.008l0.051,0.008l0.05,0.009l0.05,0.009l0.05,0.01l0.05,0.01l0.049,0.011l0.05,0.012l0.049,0.012l0.048,0.013l0.049,0.014l0.048,0.014l0.048,0.014l0.048,0.016l0.047,0.015l0.048,0.017l0.047,0.017l0.046,0.017l0.047,0.018l0.046,0.019l0.046,0.019l0.046,0.019l0.045,0.021l0.045,0.02l0.045,0.021l0.044,0.022l0.044,0.023l0.044,0.022l0.044,0.024l0.043,0.023l0.043,0.025l0.042,0.025l0.042,0.025l0.042,0.026l0.042,0.026l0.041,0.027l0.041,0.027l0.04,0.028l0.041,0.028l0.039,0.029l0.04,0.029l0.039,0.029l0.039,0.031l0.038,0.03l0.038,0.031l0.038,0.031l0.037,0.032l0.037,0.033l0.036,0.032l0.036,0.033l0.036,0.034l0.035,0.034l0.035,0.034l0.034,0.035l0.034,0.036l0.034,0.035l0.033,0.036l0.033,0.037l0.032,0.036l0.032,0.038l0.031,0.037l0.031,0.038l0.031,0.039l0.03,0.038l0.029,0.039l0.03,0.04l0.028,0.04l0.028,0.04l0.028,0.04l0.028,0.041l0.026,0.041l0.027,0.042l0.025,0.042l0.026,0.042l0.025,0.043l0.024,0.043l0.024,0.043l0.023,0.043l0.023,0.044l0.022,0.044l0.022,0.045l0.021,0.044l0.021,0.045l0.02,0.046l0.02,0.045l0.019,0.046l0.018,0.046l0.018,0.047l0.018,0.047l0.017,0.047l0.016,0.047l0.016,0.047l0.015,0.048l0.015,0.048l0.014,0.048l0.013,0.049l0.013,0.049l0.012,0.049l0.012,0.049l0.011,0.049l0.01,0.05l0.01,0.05l0.01,0.05l0.008,0.05l0.008,0.051l0.008,0.051l0.007,0.051l0.006,0.051l0.005,0.051l0.005,0.051l0.005,0.052l0.003,0.052l0.003,0.052l0.002,0.052l0.002,0.053l0.001,0.052l0,0.053l0,0.053l-0.001,0.052l-0.002,0.052l-0.002,0.053l-0.003,0.052l-0.003,0.052l-0.005,0.051l-0.005,0.052l-0.005,0.051l-0.006,0.051l-0.007,0.051l-0.008,0.051l-0.008,0.05l-0.008,0.051l-0.01,0.05l-0.01,0.05l-0.01,0.049l-0.011,0.05l-0.012,0.049l-0.012,0.049l-0.013,0.049l-0.013,0.048l-0.014,0.049l-0.015,0.048l-0.015,0.047l-0.016,0.048l-0.016,0.047l-0.017,0.047l-0.018,0.047l-0.018,0.046l-0.018,0.046l-0.019,0.046l-0.02,0.046l-0.02,0.045l-0.021,0.045l-0.021,0.045l-0.022,0.045l-0.022,0.044l-0.023,0.043l-0.023,0.044l-0.024,0.043l-0.024,0.043l-0.025,0.043l-0.026,0.042l-0.025,0.042l-0.027,0.041l-0.026,0.042l-0.028,0.04l-0.028,0.041l-0.028,0.04l-0.028,0.04l-0.03,0.039l-0.029,0.039l-0.03,0.039l-0.031,0.039l-0.031,0.038l-0.031,0.037l-0.032,0.037l-0.032,0.037l-0.033,0.037l-0.033,0.036l-0.034,0.035l-0.034,0.035l-0.034,0.035l-0.035,0.035l-0.035,0.034l-0.036,0.033l-0.036,0.033l-0.036,0.033l-0.037,0.032l-0.037,0.032l-0.038,0.032l-0.038,0.031l-0.038,0.03l-0.039,0.03l-0.039,0.03l-0.04,0.029l-0.039,0.029l-0.041,0.028l-0.04,0.028l-0.041,0.027l-0.041,0.027l-0.042,0.026l-0.042,0.026l-0.042,0.025l-0.042,0.025l-0.043,0.024l-0.043,0.024l-0.044,0.023l-0.044,0.023l-0.044,0.023l-0.044,0.021l-0.045,0.022l-0.045,0.02l-0.045,0.02l-0.046,0.02l-0.046,0.019l-0.046,0.019l-0.047,0.018l-0.046,0.017l-0.047,0.017l-0.048,0.016l-0.047,0.016l-0.048,0.015l-0.048,0.015l-0.048,0.014l-0.049,0.013l-0.048,0.013l-0.049,0.013l-0.05,0.011l-0.049,0.011l-0.05,0.011l-0.05,0.01l-0.05,0.009l-0.05,0.009l-0.051,0.008l-0.05,0.007l-0.051,0.007l-0.051,0.006l-0.052,0.006l-0.051,0.005l-0.052,0.004l-0.052,0.004l-0.052,0.003l-0.052,0.002l-0.052,0.002l-0.053,0.001l-0.053,0l-0.052,0l-0.053,-0.001l-0.052,-0.002l-0.052,-0.002l-0.052,-0.003l-0.052,-0.004l-0.052,-0.004l-0.051,-0.005l-0.052,-0.006l-0.051,-0.006l-0.051,-0.007l-0.051,-0.007l-0.05,-0.008l-0.05,-0.009l-0.051,-0.009l-0.049,-0.01l-0.05,-0.011l-0.05,-0.011l-0.049,-0.011l-0.049,-0.013l-0.048,-0.013l-0.049,-0.013l-0.048,-0.014l-0.048,-0.015l-0.048,-0.015l-0.048,-0.016l-0.047,-0.016l-0.047,-0.017l-0.047,-0.017l-0.046,-0.018l-0.046,-0.019l-0.046,-0.019l-0.046,-0.02l-0.045,-0.02l-0.045,-0.02l-0.045,-0.022l-0.044,-0.021l-0.044,-0.023l-0.044,-0.023l-0.044,-0.023l-0.043,-0.024l-0.043,-0.024l-0.042,-0.025l-0.043,-0.025l-0.041,-0.026l-0.042,-0.026l-0.041,-0.027l-0.041,-0.027l-0.041,-0.028l-0.04,-0.028l-0.04,-0.029l-0.039,-0.029l-0.039,-0.03l-0.039,-0.03l-0.038,-0.03l-0.038,-0.031l-0.038,-0.032l-0.037,-0.032l-0.037,-0.032l-0.036,-0.033l-0.036,-0.033l-0.036,-0.033l-0.035,-0.034l-0.035,-0.035l-0.034,-0.035l-0.034,-0.035l-0.034,-0.035l-0.033,-0.036l-0.033,-0.037l-0.032,-0.037l-0.032,-0.037l-0.031,-0.037l-0.031,-0.038l-0.031,-0.039l-0.03,-0.039l-0.03,-0.039l-0.029,-0.039l-0.028,-0.04l-0.029,-0.04l-0.027,-0.041l-0.028,-0.04l-0.026,-0.042l-0.027,-0.041l-0.026,-0.042l-0.025,-0.042l-0.025,-0.043l-0.024,-0.043l-0.024,-0.043l-0.023,-0.044l-0.023,-0.043l-0.022,-0.044l-0.022,-0.045l-0.021,-0.045l-0.021,-0.045l-0.02,-0.045l-0.02,-0.046l-0.019,-0.046l-0.018,-0.046l-0.018,-0.046l-0.018,-0.047l-0.017,-0.047l-0.016,-0.047l-0.016,-0.048l-0.015,-0.047l-0.015,-0.048l-0.014,-0.049l-0.013,-0.048l-0.013,-0.049l-0.012,-0.049l-0.012,-0.049l-0.011,-0.05l-0.011,-0.049l-0.01,-0.05l-0.009,-0.05l-0.008,-0.051l-0.009,-0.05l-0.007,-0.051l-0.007,-0.051l-0.006,-0.051l-0.005,-0.051l-0.005,-0.052l-0.005,-0.051l-0.003,-0.052l-0.003,-0.052l-0.003,-0.053l-0.001,-0.052l-0.001,-0.052l-0.001,-0.053l0.001,-0.053l0.001,-0.052l0.001,-0.053l0.003,-0.052l0.003,-0.052l0.003,-0.052l0.005,-0.052l0.005,-0.051l0.005,-0.051l0.006,-0.051l0.007,-0.051l0.007,-0.051l0.009,-0.051l0.008,-0.05l0.009,-0.05l0.01,-0.05l0.011,-0.05l0.011,-0.049l0.012,-0.049l0.012,-0.049l0.013,-0.049l0.013,-0.049l0.014,-0.048l0.015,-0.048l0.015,-0.048l0.016,-0.047l0.016,-0.047l0.017,-0.047l0.018,-0.047l0.018,-0.047l0.018,-0.046l0.019,-0.046l0.02,-0.045l0.02,-0.046l0.021,-0.045l0.021,-0.044l0.022,-0.045l0.022,-0.044l0.023,-0.044l0.023,-0.043l0.024,-0.043l0.024,-0.043l0.025,-0.043l0.025,-0.042l0.026,-0.042l0.027,-0.042l0.026,-0.041l0.028,-0.041l0.027,-0.04l0.029,-0.04l0.028,-0.04l0.029,-0.04l0.03,-0.039l0.03,-0.038l0.031,-0.039l0.031,-0.038l0.031,-0.037l0.032,-0.038l0.032,-0.036l0.033,-0.037l0.033,-0.036l0.034,-0.035l0.034,-0.036l0.034,-0.035l0.035,-0.034l0.035,-0.034l0.036,-0.034l0.036,-0.033l0.036,-0.032l0.037,-0.033l0.037,-0.032l0.038,-0.031l0.038,-0.031l0.038,-0.03l0.039,-0.031l0.039,-0.029l0.039,-0.029l0.04,-0.029l0.04,-0.028l0.041,-0.028l0.041,-0.027l0.041,-0.027l0.042,-0.026l0.041,-0.026l0.043,-0.025l0.042,-0.025l0.043,-0.025l0.043,-0.023l0.044,-0.024l0.044,-0.022l0.044,-0.023l0.044,-0.022l0.045,-0.021l0.045,-0.02l0.045,-0.021l0.046,-0.019l0.046,-0.019l0.046,-0.019l0.046,-0.018l0.047,-0.017l0.047,-0.017l0.047,-0.017l0.048,-0.015l0.048,-0.016l0.048,-0.014l0.048,-0.014l0.049,-0.014l0.048,-0.013l0.049,-0.012l0.049,-0.012l0.05,-0.011l0.05,-0.01l0.049,-0.01l0.051,-0.009l0.05,-0.009l0.05,-0.008l0.051,-0.008l0.051,-0.006l0.051,-0.006l0.052,-0.006l0.051,-0.005l0.052,-0.004l0.052,-0.004l0.052,-0.003l0.052,-0.002l0.052,-0.002l0.053,-0.001l0.052,0l0.053,0Zm-0.079,2.04l-0.026,0.001l-0.026,0l-0.026,0.002l-0.026,0.001l-0.026,0.002l-0.026,0.002l-0.026,0.002l-0.026,0.003l-0.025,0.003l-0.026,0.004l-0.025,0.003l-0.025,0.004l-0.025,0.005l-0.026,0.004l-0.024,0.005l-0.025,0.006l-0.025,0.005l-0.025,0.006l-0.024,0.006l-0.025,0.007l-0.024,0.006l-0.024,0.007l-0.024,0.008l-0.024,0.007l-0.024,0.008l-0.023,0.008l-0.024,0.009l-0.023,0.008l-0.023,0.009l-0.023,0.01l-0.023,0.009l-0.023,0.01l-0.023,0.01l-0.022,0.011l-0.023,0.01l-0.022,0.011l-0.022,0.011l-0.022,0.012l-0.022,0.011l-0.021,0.012l-0.022,0.012l-0.021,0.013l-0.021,0.012l-0.021,0.013l-0.021,0.013l-0.02,0.014l-0.021,0.013l-0.02,0.014l-0.02,0.014l-0.02,0.015l-0.02,0.014l-0.019,0.015l-0.02,0.015l-0.019,0.015l-0.019,0.016l-0.019,0.016l-0.018,0.016l-0.019,0.016l-0.018,0.016l-0.018,0.017l-0.018,0.016l-0.017,0.017l-0.018,0.018l-0.017,0.017l-0.017,0.018l-0.017,0.018l-0.016,0.018l-0.017,0.018l-0.016,0.018l-0.016,0.019l-0.015,0.019l-0.016,0.019l-0.015,0.019l-0.015,0.019l-0.015,0.02l-0.015,0.019l-0.014,0.02l-0.014,0.02l-0.014,0.021l-0.014,0.02l-0.013,0.021l-0.013,0.02l-0.013,0.021l-0.013,0.022l-0.012,0.021l-0.012,0.021l-0.012,0.022l-0.012,0.022l-0.011,0.021l-0.011,0.023l-0.011,0.022l-0.011,0.022l-0.01,0.023l-0.01,0.022l-0.01,0.023l-0.01,0.023l-0.009,0.023l-0.009,0.023l-0.009,0.024l-0.008,0.023l-0.008,0.024l-0.008,0.024l-0.008,0.024l-0.007,0.024l-0.007,0.024l-0.007,0.024l-0.006,0.024l-0.006,0.025l-0.006,0.024l-0.006,0.025l-0.005,0.025l-0.005,0.025l-0.005,0.025l-0.004,0.025l-0.004,0.025l-0.004,0.026l-0.003,0.025l-0.003,0.026l-0.003,0.025l-0.002,0.026l-0.003,0.026l-0.001,0.026l-0.002,0.026l-0.001,0.026l-0.001,0.026l0,0.027l-0.001,0.026l0.001,0.026l0,0.026l0.001,0.027l0.001,0.026l0.002,0.026l0.001,0.026l0.003,0.026l0.002,0.025l0.003,0.026l0.003,0.026l0.003,0.025l0.004,0.025l0.004,0.026l0.004,0.025l0.005,0.025l0.005,0.025l0.005,0.025l0.006,0.024l0.006,0.025l0.006,0.024l0.006,0.025l0.007,0.024l0.007,0.024l0.007,0.024l0.008,0.024l0.008,0.024l0.008,0.024l0.008,0.023l0.009,0.023l0.009,0.024l0.009,0.023l0.01,0.023l0.01,0.022l0.01,0.023l0.01,0.023l0.011,0.022l0.011,0.022l0.011,0.022l0.011,0.022l0.012,0.022l0.012,0.022l0.012,0.021l0.012,0.021l0.013,0.021l0.013,0.021l0.013,0.021l0.013,0.021l0.014,0.02l0.014,0.02l0.014,0.02l0.014,0.02l0.015,0.02l0.015,0.02l0.015,0.019l0.015,0.019l0.016,0.019l0.015,0.019l0.016,0.019l0.016,0.018l0.017,0.018l0.016,0.018l0.017,0.018l0.017,0.018l0.017,0.017l0.018,0.017l0.017,0.017l0.018,0.017l0.018,0.017l0.018,0.016l0.019,0.016l0.018,0.016l0.019,0.016l0.019,0.015l0.019,0.016l0.02,0.015l0.019,0.014l0.02,0.015l0.02,0.014l0.02,0.014l0.02,0.014l0.021,0.014l0.02,0.013l0.021,0.013l0.021,0.013l0.021,0.013l0.021,0.012l0.022,0.013l0.021,0.012l0.022,0.011l0.022,0.012l0.022,0.011l0.022,0.011l0.023,0.01l0.022,0.011l0.023,0.01l0.023,0.009l0.023,0.01l0.023,0.009l0.023,0.009l0.023,0.009l0.024,0.008l0.023,0.009l0.024,0.008l0.024,0.007l0.024,0.007l0.024,0.007l0.024,0.007l0.025,0.007l0.024,0.006l0.025,0.006l0.025,0.005l0.025,0.005l0.024,0.005l0.026,0.005l0.025,0.004l0.025,0.004l0.025,0.004l0.026,0.003l0.025,0.004l0.026,0.002l0.026,0.003l0.026,0.002l0.026,0.002l0.026,0.001l0.026,0.001l0.026,0.001l0.026,0.001l0.026,0l0.027,0l0.026,-0.001l0.026,-0.001l0.026,-0.001l0.026,-0.001l0.026,-0.002l0.026,-0.002l0.026,-0.003l0.026,-0.002l0.025,-0.004l0.026,-0.003l0.025,-0.004l0.025,-0.004l0.025,-0.004l0.025,-0.005l0.025,-0.005l0.025,-0.005l0.025,-0.005l0.025,-0.006l0.024,-0.006l0.024,-0.007l0.025,-0.007l0.024,-0.007l0.024,-0.007l0.024,-0.007l0.023,-0.008l0.024,-0.009l0.024,-0.008l0.023,-0.009l0.023,-0.009l0.023,-0.009l0.023,-0.01l0.023,-0.009l0.023,-0.01l0.022,-0.011l0.023,-0.01l0.022,-0.011l0.022,-0.011l0.022,-0.012l0.021,-0.011l0.022,-0.012l0.022,-0.013l0.021,-0.012l0.021,-0.013l0.021,-0.013l0.021,-0.013l0.02,-0.013l0.021,-0.014l0.02,-0.014l0.02,-0.014l0.02,-0.014l0.02,-0.015l0.019,-0.014l0.02,-0.015l0.019,-0.016l0.019,-0.015l0.019,-0.016l0.018,-0.016l0.019,-0.016l0.018,-0.016l0.018,-0.017l0.018,-0.017l0.017,-0.017l0.018,-0.017l0.017,-0.017l0.017,-0.018l0.017,-0.018l0.016,-0.018l0.017,-0.018l0.016,-0.018l0.016,-0.019l0.015,-0.019l0.016,-0.019l0.015,-0.019l0.015,-0.019l0.015,-0.02l0.015,-0.02l0.014,-0.02l0.014,-0.02l0.014,-0.02l0.013,-0.02l0.014,-0.021l0.013,-0.021l0.013,-0.021l0.013,-0.021l0.012,-0.021l0.012,-0.021l0.012,-0.022l0.012,-0.022l0.011,-0.022l0.011,-0.022l0.011,-0.022l0.011,-0.022l0.01,-0.023l0.01,-0.023l0.01,-0.022l0.01,-0.023l0.009,-0.023l0.009,-0.024l0.009,-0.023l0.008,-0.023l0.008,-0.024l0.008,-0.024l0.008,-0.024l0.007,-0.024l0.007,-0.024l0.007,-0.024l0.006,-0.025l0.006,-0.024l0.006,-0.025l0.006,-0.024l0.005,-0.025l0.005,-0.025l0.005,-0.025l0.004,-0.025l0.004,-0.026l0.004,-0.025l0.003,-0.025l0.003,-0.026l0.003,-0.026l0.002,-0.025l0.002,-0.026l0.002,-0.026l0.002,-0.026l0.001,-0.026l0.001,-0.027l0,-0.026l0,-0.026l0,-0.026l0,-0.027l-0.001,-0.026l-0.001,-0.026l-0.002,-0.026l-0.002,-0.026l-0.002,-0.026l-0.002,-0.026l-0.003,-0.025l-0.003,-0.026l-0.003,-0.025l-0.004,-0.026l-0.004,-0.025l-0.004,-0.025l-0.005,-0.025l-0.005,-0.025l-0.005,-0.025l-0.006,-0.025l-0.006,-0.024l-0.006,-0.025l-0.006,-0.024l-0.007,-0.024l-0.007,-0.024l-0.007,-0.024l-0.008,-0.024l-0.008,-0.024l-0.008,-0.024l-0.008,-0.023l-0.009,-0.024l-0.009,-0.023l-0.009,-0.023l-0.01,-0.023l-0.01,-0.023l-0.01,-0.022l-0.01,-0.023l-0.011,-0.022l-0.011,-0.022l-0.011,-0.023l-0.011,-0.021l-0.012,-0.022l-0.012,-0.022l-0.012,-0.021l-0.012,-0.021l-0.013,-0.022l-0.013,-0.021l-0.013,-0.02l-0.014,-0.021l-0.013,-0.02l-0.014,-0.021l-0.014,-0.02l-0.014,-0.02l-0.015,-0.019l-0.015,-0.02l-0.015,-0.019l-0.015,-0.019l-0.016,-0.019l-0.015,-0.019l-0.016,-0.019l-0.016,-0.018l-0.017,-0.018l-0.016,-0.018l-0.017,-0.018l-0.017,-0.018l-0.017,-0.017l-0.018,-0.018l-0.017,-0.017l-0.018,-0.016l-0.018,-0.017l-0.018,-0.016l-0.019,-0.016l-0.018,-0.016l-0.019,-0.016l-0.019,-0.016l-0.019,-0.015l-0.02,-0.015l-0.019,-0.015l-0.02,-0.014l-0.02,-0.015l-0.02,-0.014l-0.02,-0.014l-0.021,-0.013l-0.02,-0.014l-0.021,-0.013l-0.021,-0.013l-0.021,-0.012l-0.021,-0.013l-0.022,-0.012l-0.022,-0.012l-0.021,-0.011l-0.022,-0.012l-0.022,-0.011l-0.022,-0.011l-0.023,-0.01l-0.022,-0.011l-0.023,-0.01l-0.023,-0.01l-0.023,-0.009l-0.023,-0.01l-0.023,-0.009l-0.023,-0.008l-0.024,-0.009l-0.024,-0.008l-0.023,-0.008l-0.024,-0.007l-0.024,-0.008l-0.024,-0.007l-0.025,-0.006l-0.024,-0.007l-0.024,-0.006l-0.025,-0.006l-0.025,-0.005l-0.025,-0.006l-0.025,-0.005l-0.025,-0.004l-0.025,-0.005l-0.025,-0.004l-0.025,-0.003l-0.026,-0.004l-0.025,-0.003l-0.026,-0.003l-0.026,-0.002l-0.026,-0.002l-0.026,-0.002l-0.026,-0.001l-0.026,-0.002l-0.026,0l-0.026,-0.001l-0.027,0l-0.026,0Z"  style="fill:#2962FF"/></svg>