<svg width="100" height="100" viewBox="0 0 33 33" xmlns="http://www.w3.org/2000/svg" stroke-linejoin="round"><path d="M25.1 5.8l5.8-5.8c0.5 0.5 0.9 0.9 1.4 1.4l-5.8 5.8c2.1 2.4 3.3 5.5 3.3 8.9 0 3.4-1.3 6.5-3.3 8.9l5.8 5.8c-0.5 0.5-0.9 0.9-1.4 1.4l-5.8-5.8c-2.4 2.1-5.5 3.3-8.9 3.3 -3.4 0-6.5-1.3-8.9-3.3l-5.8 5.8 -1.4-1.4 5.8-5.8c-2.1-2.4-3.3-5.5-3.3-8.9 0-7.5 6.1-13.7 13.7-13.7 3.4 0 6.5 1.3 8.9 3.3Zm0.1 2.8l-1.8 1.8 0 12.9 -11.5 0 2-2 7.5 0 0-8.9 -12.7 12.7c2 1.7 4.7 2.8 7.6 2.8 6.5 0 11.8-5.3 11.8-11.8 0-2.9-1-5.5-2.8-7.6Zm-1.4-1.4c-2-1.7-4.7-2.8-7.6-2.8 -6.5 0-11.8 5.3-11.8 11.8 0 2.9 1 5.5 2.8 7.6l1.8-1.8 0-12.9 11.5 0 -2 2 -7.5 0 0 8.9 12.7-12.7Z" style="fill:#2962FF"/></svg>