<svg width="100" height="100" viewBox="0 0 33 33" xmlns="http://www.w3.org/2000/svg" stroke-linejoin="round"><path d="M17.4 12.5c1.8 0.4 3.1 2 3.1 3.9 0 2.2-1.8 4.1-4.1 4.1 -2.2 0-4.1-1.8-4.1-4.1 0-1.9 1.3-3.5 3.1-3.9l0-5.8c-5 0.5-8.9 4.7-8.9 9.8 0 5.4 4.4 9.9 9.9 9.9 2.4 0 4.7-0.9 6.4-2.3l-2.8-2.8 1.4-1.4 6 6c2.2-2.5 3.4-5.8 3.4-9.4 0-7.3-5.4-13.3-12.4-14.3l0-2c8.1 1 14.4 7.9 14.4 16.3 0 9.1-7.4 16.4-16.4 16.4 -9.1 0-16.4-7.4-16.4-16.4 0-8.4 6.3-15.3 14.4-16.3l0 2c-7 1-12.4 7-12.4 14.3 0 8 6.5 14.5 14.5 14.5 3.7 0 7.1-1.4 9.6-3.7l-1.8-1.8c-2.1 1.8-4.8 2.9-7.8 2.9 -6.5 0-11.8-5.3-11.8-11.8 0-6.2 4.8-11.3 10.8-11.8l0-4.7 2 0 0 12.5Zm-1 1.9c1.1 0 2 0.9 2 2 0 1.1-0.9 2-2 2 -1.1 0-2-0.9-2-2 0-1.1 0.9-2 2-2Z" style="fill:#2962FF"/></svg>